<svg preserveAspectRatio="none" width="100%" height="100%" overflow="visible" style="display: block;" viewBox="0 0 43.6577 41.8173" fill="none" xmlns="http://www.w3.org/2000/svg">
<path id="Star 14" d="M18.9757 2.07295C19.8737 -0.690981 23.784 -0.690985 24.682 2.07295L27.7785 11.6028C28.1801 12.8389 29.332 13.6758 30.6317 13.6758H40.652C43.5581 13.6758 44.7665 17.3946 42.4153 19.1028L34.3087 24.9926C33.2573 25.7566 32.8173 27.1107 33.2189 28.3467L36.3154 37.8766C37.2134 40.6406 34.05 42.9389 31.6988 41.2307L23.5922 35.3409C22.5408 34.577 21.117 34.577 20.0655 35.3409L11.9589 41.2307C9.60776 42.9389 6.44431 40.6406 7.34237 37.8766L10.4388 28.3467C10.8404 27.1107 10.4005 25.7566 9.34901 24.9926L1.2424 19.1028C-1.10875 17.3946 0.0995783 13.6758 3.00575 13.6758H13.0261C14.3257 13.6758 15.4776 12.8389 15.8792 11.6028L18.9757 2.07295Z" fill="var(--fill-0, #F8E8D1)"/>
</svg>
