<svg width="25" height="25" viewBox="0 0 30 30" fill="none" xmlns="http://www.w3.org/2000/svg">
    <path fill-rule="evenodd" clip-rule="evenodd" d="M15 30C18.9782 30 22.7936 28.4196 25.6066 25.6066C28.4196 22.7936 30 18.9782 30 15C30 11.0218 28.4196 7.20644 25.6066 4.3934C22.7936 1.58035 18.9782 0 15 0C11.0218 0 7.20644 1.58035 4.3934 4.3934C1.58035 7.20644 0 11.0218 0 15C0 18.9782 1.58035 22.7936 4.3934 25.6066C7.20644 28.4196 11.0218 30 15 30ZM16.4062 5.625C16.4062 5.25204 16.2581 4.89435 15.9944 4.63063C15.7306 4.36691 15.373 4.21875 15 4.21875C14.627 4.21875 14.2694 4.36691 14.0056 4.63063C13.7419 4.89435 13.5938 5.25204 13.5938 5.625V15C13.5938 15.7762 14.2238 16.4062 15 16.4062H22.5C22.873 16.4062 23.2306 16.2581 23.4944 15.9944C23.7581 15.7306 23.9062 15.373 23.9062 15C23.9062 14.627 23.7581 14.2694 23.4944 14.0056C23.2306 13.7419 22.873 13.5938 22.5 13.5938H16.4062V5.625Z" fill="#AD7757"/>
</svg>