<svg width="29" height="28" viewBox="0 0 29 28" fill="none" xmlns="http://www.w3.org/2000/svg">
<mask id="path-1-inside-1_2020_1209" fill="white">
<path fill-rule="evenodd" clip-rule="evenodd" d="M12.1569 0.110903C12.616 0.108911 13.1478 0.130847 13.7428 0.173403C13.8902 0.18396 14.0386 0.200636 14.1881 0.212466C14.2775 0.209549 14.3612 0.215736 14.4459 0.235903C14.8108 0.266298 15.1856 0.291771 15.5631 0.329653C16.1724 0.390775 16.7927 0.447589 17.4225 0.501528C18.2327 0.571056 18.9866 0.846813 19.6725 1.30622C20.1834 1.64887 20.7045 1.9402 21.2272 2.18122C21.7553 2.42471 22.3228 2.63796 22.9303 2.82184C23.7223 3.06155 24.4274 3.4651 25.0319 4.02497C25.659 4.60627 26.0994 5.32308 26.3444 6.14997C26.4875 6.63352 26.7439 7.04187 27.1256 7.39215C27.8286 8.03724 28.218 8.86296 28.2663 9.81403C28.299 10.461 28.3694 11.0859 28.4694 11.689C28.5749 12.3252 28.6901 12.9771 28.8131 13.6343C28.96 14.4208 28.9559 15.2127 28.8053 16.0015C28.675 16.6834 28.5336 17.3635 28.3756 18.0328C28.2288 18.6556 28.1039 19.3082 28.0084 19.9859C27.8716 20.9524 27.3948 21.7545 26.6178 22.3453C26.0732 22.7593 25.5569 23.1922 25.0709 23.6343C24.5801 24.081 24.098 24.55 23.6256 25.0406C23.0122 25.6778 22.269 26.1238 21.4147 26.3609C20.7591 26.5428 20.1276 26.7434 19.5241 26.9703C18.8145 27.237 18.0824 27.4161 17.3288 27.5015C16.6042 27.5836 15.8792 27.6083 15.1569 27.5718C14.5924 27.5432 14.0047 27.5961 13.3991 27.7437C12.448 27.9761 11.5221 27.8354 10.6959 27.314C10.1569 26.9739 9.60963 26.6935 9.05532 26.4781C8.33154 26.1967 7.66796 25.8018 7.07094 25.2906C6.67987 24.9555 6.22526 24.7187 5.69594 24.5875C4.74488 24.3525 4.00094 23.7796 3.53969 22.9156C3.25858 22.39 2.92285 21.9433 2.53969 21.5718C2.02032 21.068 1.56938 20.5057 1.18032 19.8922C0.789772 19.276 0.472245 18.6184 0.235003 17.9234C-0.0391147 17.1198 -0.0740332 16.2934 0.13344 15.4703C0.273062 14.916 0.337785 14.3801 0.328753 13.8609C0.315766 13.1343 0.420163 12.4197 0.649065 11.7359C0.794135 11.3012 0.850134 10.8389 0.805315 10.3375C0.728676 9.48774 0.919178 8.68049 1.38344 7.97028C1.72434 7.44883 2.06323 6.94554 2.39907 6.46247C2.7169 6.00524 3.02717 5.53535 3.32094 5.0484C3.67476 4.46203 4.09909 3.93181 4.60219 3.47028C5.11293 3.00183 5.68631 2.63007 6.31313 2.35309C6.83989 2.12044 7.37086 1.88811 7.89907 1.65778C8.41693 1.43193 8.94373 1.19577 9.47719 0.946841C9.77624 0.807335 10.0851 0.705592 10.3991 0.634341C10.5446 0.418485 10.7648 0.27265 11.0241 0.220278C11.0626 0.205943 11.101 0.18285 11.1413 0.173403C11.2908 0.138621 11.4684 0.132579 11.5944 0.126528C11.7463 0.119267 11.9373 0.111903 12.1569 0.110903ZM22.2594 4.70563C22.4779 4.84567 22.6959 4.98703 22.9147 5.12653C22.9401 5.11867 22.9658 5.10919 22.9928 5.10309C23.0389 5.09281 23.0836 5.08646 23.1266 5.08258C22.8877 4.93721 22.6309 4.8203 22.3522 4.7359C22.3211 4.72649 22.2904 4.71518 22.2594 4.70563Z"/>
</mask>
<path fill-rule="evenodd" clip-rule="evenodd" d="M12.1569 0.110903C12.616 0.108911 13.1478 0.130847 13.7428 0.173403C13.8902 0.18396 14.0386 0.200636 14.1881 0.212466C14.2775 0.209549 14.3612 0.215736 14.4459 0.235903C14.8108 0.266298 15.1856 0.291771 15.5631 0.329653C16.1724 0.390775 16.7927 0.447589 17.4225 0.501528C18.2327 0.571056 18.9866 0.846813 19.6725 1.30622C20.1834 1.64887 20.7045 1.9402 21.2272 2.18122C21.7553 2.42471 22.3228 2.63796 22.9303 2.82184C23.7223 3.06155 24.4274 3.4651 25.0319 4.02497C25.659 4.60627 26.0994 5.32308 26.3444 6.14997C26.4875 6.63352 26.7439 7.04187 27.1256 7.39215C27.8286 8.03724 28.218 8.86296 28.2663 9.81403C28.299 10.461 28.3694 11.0859 28.4694 11.689C28.5749 12.3252 28.6901 12.9771 28.8131 13.6343C28.96 14.4208 28.9559 15.2127 28.8053 16.0015C28.675 16.6834 28.5336 17.3635 28.3756 18.0328C28.2288 18.6556 28.1039 19.3082 28.0084 19.9859C27.8716 20.9524 27.3948 21.7545 26.6178 22.3453C26.0732 22.7593 25.5569 23.1922 25.0709 23.6343C24.5801 24.081 24.098 24.55 23.6256 25.0406C23.0122 25.6778 22.269 26.1238 21.4147 26.3609C20.7591 26.5428 20.1276 26.7434 19.5241 26.9703C18.8145 27.237 18.0824 27.4161 17.3288 27.5015C16.6042 27.5836 15.8792 27.6083 15.1569 27.5718C14.5924 27.5432 14.0047 27.5961 13.3991 27.7437C12.448 27.9761 11.5221 27.8354 10.6959 27.314C10.1569 26.9739 9.60963 26.6935 9.05532 26.4781C8.33154 26.1967 7.66796 25.8018 7.07094 25.2906C6.67987 24.9555 6.22526 24.7187 5.69594 24.5875C4.74488 24.3525 4.00094 23.7796 3.53969 22.9156C3.25858 22.39 2.92285 21.9433 2.53969 21.5718C2.02032 21.068 1.56938 20.5057 1.18032 19.8922C0.789772 19.276 0.472245 18.6184 0.235003 17.9234C-0.0391147 17.1198 -0.0740332 16.2934 0.13344 15.4703C0.273062 14.916 0.337785 14.3801 0.328753 13.8609C0.315766 13.1343 0.420163 12.4197 0.649065 11.7359C0.794135 11.3012 0.850134 10.8389 0.805315 10.3375C0.728676 9.48774 0.919178 8.68049 1.38344 7.97028C1.72434 7.44883 2.06323 6.94554 2.39907 6.46247C2.7169 6.00524 3.02717 5.53535 3.32094 5.0484C3.67476 4.46203 4.09909 3.93181 4.60219 3.47028C5.11293 3.00183 5.68631 2.63007 6.31313 2.35309C6.83989 2.12044 7.37086 1.88811 7.89907 1.65778C8.41693 1.43193 8.94373 1.19577 9.47719 0.946841C9.77624 0.807335 10.0851 0.705592 10.3991 0.634341C10.5446 0.418485 10.7648 0.27265 11.0241 0.220278C11.0626 0.205943 11.101 0.18285 11.1413 0.173403C11.2908 0.138621 11.4684 0.132579 11.5944 0.126528C11.7463 0.119267 11.9373 0.111903 12.1569 0.110903ZM22.2594 4.70563C22.4779 4.84567 22.6959 4.98703 22.9147 5.12653C22.9401 5.11867 22.9658 5.10919 22.9928 5.10309C23.0389 5.09281 23.0836 5.08646 23.1266 5.08258C22.8877 4.93721 22.6309 4.8203 22.3522 4.7359C22.3211 4.72649 22.2904 4.71518 22.2594 4.70563Z" fill="url(#paint0_radial_2020_1209)"/>
<g clip-path="url(#paint1_diamond_2020_1209_clip_path)" data-figma-skip-parse="true" mask="url(#path-1-inside-1_2020_1209)"><g transform="matrix(0 0.0138706 -0.0144604 0 14.4604 13.9814)"><rect x="0" y="0" width="1014.42" height="1013.83" fill="url(#paint1_diamond_2020_1209)" opacity="0.5" shape-rendering="crispEdges"/><rect x="0" y="0" width="1014.42" height="1013.83" transform="scale(1 -1)" fill="url(#paint1_diamond_2020_1209)" opacity="0.5" shape-rendering="crispEdges"/><rect x="0" y="0" width="1014.42" height="1013.83" transform="scale(-1 1)" fill="url(#paint1_diamond_2020_1209)" opacity="0.5" shape-rendering="crispEdges"/><rect x="0" y="0" width="1014.42" height="1013.83" transform="scale(-1)" fill="url(#paint1_diamond_2020_1209)" opacity="0.5" shape-rendering="crispEdges"/></g></g><path d="M10.4595 16.9388C10.4896 16.8925 10.4764 16.8305 10.4301 16.8005C10.3838 16.7704 10.3218 16.7836 10.2918 16.8299L10.3756 16.8843L10.4595 16.9388ZM10.2421 16.9126C10.2145 16.9604 10.231 17.0216 10.2789 17.0491C10.3267 17.0767 10.3879 17.0602 10.4154 17.0124L10.3288 16.9625L10.2421 16.9126ZM10.3756 16.8843L10.2918 16.8299C10.2821 16.8448 10.2694 16.866 10.2598 16.8822C10.2548 16.8906 10.2504 16.8982 10.2473 16.9036C10.2457 16.9064 10.2444 16.9086 10.2435 16.9101C10.2431 16.9109 10.2427 16.9115 10.2425 16.9119C10.2424 16.9121 10.2423 16.9123 10.2422 16.9124C10.2422 16.9124 10.2421 16.9125 10.2421 16.9125C10.2421 16.9125 10.2421 16.9125 10.2421 16.9126C10.2421 16.9126 10.2421 16.9126 10.2421 16.9126C10.2421 16.9126 10.2421 16.9126 10.2421 16.9126C10.2421 16.9126 10.2421 16.9126 10.3288 16.9625C10.4154 17.0124 10.4154 17.0124 10.4154 17.0124C10.4154 17.0124 10.4154 17.0124 10.4154 17.0124C10.4154 17.0124 10.4154 17.0124 10.4154 17.0124C10.4154 17.0124 10.4154 17.0123 10.4154 17.0123C10.4154 17.0123 10.4155 17.0123 10.4155 17.0122C10.4155 17.0122 10.4156 17.012 10.4157 17.0118C10.4159 17.0115 10.4162 17.0109 10.4166 17.0102C10.4175 17.0088 10.4187 17.0067 10.4202 17.0041C10.4232 16.999 10.4274 16.9918 10.432 16.9839C10.4417 16.9676 10.4524 16.9497 10.4595 16.9388L10.3756 16.8843ZM12.1569 0.110903L12.156 -0.0890947L12.156 -0.0890945L12.1569 0.110903ZM13.7428 0.173403L13.7571 -0.0260854L13.7571 -0.026087L13.7428 0.173403ZM14.1881 0.212466L14.1724 0.411843L14.1835 0.412724L14.1946 0.41236L14.1881 0.212466ZM14.4459 0.235903L14.3996 0.430471L14.4143 0.433961L14.4293 0.435213L14.4459 0.235903ZM15.5631 0.329653L15.5432 0.528654L15.5432 0.528655L15.5631 0.329653ZM17.4225 0.501528L17.4396 0.302261L17.4396 0.302258L17.4225 0.501528ZM19.6725 1.30622L19.7839 1.14012L19.7838 1.14005L19.6725 1.30622ZM21.2272 2.18122L21.1434 2.36284L21.1435 2.36284L21.2272 2.18122ZM22.9303 2.82184L22.9883 2.63042L22.9883 2.63042L22.9303 2.82184ZM25.0319 4.02497L25.1678 3.87829L25.1678 3.87824L25.0319 4.02497ZM26.3444 6.14997L26.5362 6.09321L26.5361 6.09316L26.3444 6.14997ZM27.1256 7.39215L26.9904 7.53951L26.9904 7.53951L27.1256 7.39215ZM28.2663 9.81403L28.466 9.80393L28.466 9.8039L28.2663 9.81403ZM28.4694 11.689L28.2721 11.7217L28.2721 11.7218L28.4694 11.689ZM28.8131 13.6343L29.0097 13.5976L29.0097 13.5976L28.8131 13.6343ZM28.8053 16.0015L29.0018 16.0391L29.0018 16.039L28.8053 16.0015ZM28.3756 18.0328L28.181 17.9868L28.181 17.9869L28.3756 18.0328ZM28.0084 19.9859L28.2065 20.014L28.2065 20.0138L28.0084 19.9859ZM26.6178 22.3453L26.7388 22.5045L26.7389 22.5045L26.6178 22.3453ZM25.0709 23.6343L24.9364 23.4864L24.9363 23.4864L25.0709 23.6343ZM23.6256 25.0406L23.4816 24.9019L23.4815 24.9019L23.6256 25.0406ZM21.4147 26.3609L21.4682 26.5536L21.4682 26.5536L21.4147 26.3609ZM19.5241 26.9703L19.5944 27.1575L19.5944 27.1575L19.5241 26.9703ZM17.3288 27.5015L17.3513 27.7003L17.3513 27.7003L17.3288 27.5015ZM15.1569 27.5718L15.1467 27.7716L15.1468 27.7716L15.1569 27.5718ZM13.3991 27.7437L13.3517 27.5494L13.3516 27.5494L13.3991 27.7437ZM10.6959 27.314L10.8027 27.1449L10.8027 27.1449L10.6959 27.314ZM9.05532 26.4781L8.98284 26.6645L8.98288 26.6645L9.05532 26.4781ZM7.07094 25.2906L6.9408 25.4425L6.94086 25.4425L7.07094 25.2906ZM5.69594 24.5875L5.74409 24.3933L5.7439 24.3933L5.69594 24.5875ZM3.53969 22.9156L3.71612 22.8214L3.71605 22.8213L3.53969 22.9156ZM2.53969 21.5718L2.40043 21.7154L2.40049 21.7154L2.53969 21.5718ZM1.18032 19.8922L1.01139 19.9992L1.01141 19.9993L1.18032 19.8922ZM0.235003 17.9234L0.0457117 17.988L0.0457266 17.988L0.235003 17.9234ZM0.13344 15.4703L0.327375 15.5192L0.327383 15.5191L0.13344 15.4703ZM0.328753 13.8609L0.528723 13.8574L0.528721 13.8573L0.328753 13.8609ZM0.649065 11.7359L0.838722 11.7994L0.83878 11.7992L0.649065 11.7359ZM0.805315 10.3375L1.00452 10.3197L1.00451 10.3195L0.805315 10.3375ZM1.38344 7.97028L1.21604 7.86084L1.21604 7.86085L1.38344 7.97028ZM2.39907 6.46247L2.56328 6.57663L2.56329 6.57662L2.39907 6.46247ZM3.32094 5.0484L3.1497 4.94508L3.14969 4.94509L3.32094 5.0484ZM4.60219 3.47028L4.467 3.32289L4.46699 3.3229L4.60219 3.47028ZM6.31313 2.35309L6.23233 2.17014L6.23229 2.17016L6.31313 2.35309ZM7.89907 1.65778L7.97901 1.84111L7.97901 1.8411L7.89907 1.65778ZM9.47719 0.946841L9.39264 0.765593L9.39262 0.765601L9.47719 0.946841ZM10.3991 0.634341L10.4433 0.829381L10.5206 0.811846L10.5649 0.746157L10.3991 0.634341ZM11.0241 0.220278L11.0637 0.416318L11.0791 0.413205L11.0938 0.407721L11.0241 0.220278ZM11.1413 0.173403L11.0959 -0.021398L11.0955 -0.0213027L11.1413 0.173403ZM11.5944 0.126528L11.5848 -0.0732435L11.5848 -0.0732413L11.5944 0.126528ZM22.2594 4.70563L22.3183 4.51451L22.1515 4.87401L22.2594 4.70563ZM22.9147 5.12653L22.8072 5.29518L22.8852 5.34494L22.9737 5.31762L22.9147 5.12653ZM22.9928 5.10309L22.9492 4.90789L22.9488 4.90799L22.9928 5.10309ZM23.1266 5.08258L23.1446 5.28177L23.7491 5.22725L23.2306 4.91173L23.1266 5.08258ZM22.3522 4.7359L22.4102 4.54449L22.4101 4.54448L22.3522 4.7359ZM12.1569 0.110903L12.1577 0.310902C12.6103 0.308938 13.1368 0.330567 13.7285 0.372894L13.7428 0.173403L13.7571 -0.026087C13.1589 -0.0688737 12.6218 -0.0911153 12.156 -0.0890947L12.1569 0.110903ZM13.7428 0.173403L13.7285 0.372892C13.8826 0.383929 14.0063 0.398709 14.1724 0.411843L14.1881 0.212466L14.2039 0.0130888C14.0708 0.00256203 13.8978 -0.0160093 13.7571 -0.0260854L13.7428 0.173403ZM14.1881 0.212466L14.1946 0.41236C14.2702 0.409894 14.3356 0.415242 14.3996 0.430471L14.4459 0.235903L14.4922 0.0413355C14.3867 0.0162306 14.2848 0.00920471 14.1816 0.0125723L14.1881 0.212466ZM14.4459 0.235903L14.4293 0.435213C14.7984 0.465959 15.1677 0.490979 15.5432 0.528654L15.5631 0.329653L15.5831 0.130653C15.2035 0.0925635 14.8232 0.0666369 14.4625 0.0365939L14.4459 0.235903ZM15.5631 0.329653L15.5432 0.528655C16.1536 0.589892 16.7749 0.646794 17.4054 0.700799L17.4225 0.501528L17.4396 0.302258C16.8106 0.248383 16.1912 0.191658 15.5831 0.130652L15.5631 0.329653ZM17.4225 0.501528L17.4054 0.700796C18.1799 0.767261 18.9017 1.03066 19.5612 1.47238L19.6725 1.30622L19.7838 1.14005C19.0716 0.66297 18.2854 0.374851 17.4396 0.302261L17.4225 0.501528ZM19.6725 1.30622L19.5611 1.47231C20.0806 1.8208 20.611 2.11733 21.1434 2.36284L21.2272 2.18122L21.3109 1.9996C20.798 1.76306 20.2861 1.47694 19.7839 1.14012L19.6725 1.30622ZM21.2272 2.18122L21.1435 2.36284C21.6807 2.61055 22.2569 2.82698 22.8724 3.01327L22.9303 2.82184L22.9883 2.63042C22.3887 2.44895 21.8299 2.23887 21.3109 1.99959L21.2272 2.18122ZM22.9303 2.82184L22.8724 3.01327C23.6355 3.24423 24.3139 3.63256 24.896 4.1717L25.0319 4.02497L25.1678 3.87824C24.5409 3.29764 23.8092 2.87887 22.9883 2.63042L22.9303 2.82184ZM25.0319 4.02497L24.8959 4.17164C25.4961 4.72799 25.9176 5.41353 26.1526 6.20677L26.3444 6.14997L26.5361 6.09316C26.2812 5.23263 25.8219 4.48454 25.1678 3.87829L25.0319 4.02497ZM26.3444 6.14997L26.1526 6.20672C26.3062 6.7259 26.5827 7.16533 26.9904 7.53951L27.1256 7.39215L27.2609 7.2448C26.9052 6.91842 26.6687 6.54114 26.5362 6.09321L26.3444 6.14997ZM27.1256 7.39215L26.9904 7.53951C27.6549 8.14926 28.021 8.92576 28.0665 9.82416L28.2663 9.81403L28.466 9.8039C28.4151 8.80016 28.0023 7.92523 27.2609 7.2448L27.1256 7.39215ZM28.2663 9.81403L28.0665 9.82413C28.0996 10.4791 28.1709 11.1115 28.2721 11.7217L28.4694 11.689L28.6667 11.6563C28.5679 11.0602 28.4983 10.4429 28.466 9.80393L28.2663 9.81403ZM28.4694 11.689L28.2721 11.7218C28.3779 12.3593 28.4933 13.0125 28.6165 13.6711L28.8131 13.6343L29.0097 13.5976C28.887 12.9416 28.772 12.291 28.6667 11.6563L28.4694 11.689ZM28.8131 13.6343L28.6165 13.671C28.7587 14.4325 28.7549 15.1993 28.6089 15.964L28.8053 16.0015L29.0018 16.039C29.157 15.2262 29.1612 14.4091 29.0097 13.5976L28.8131 13.6343ZM28.8053 16.0015L28.6089 15.964C28.479 16.6438 28.3381 17.321 28.181 17.9868L28.3756 18.0328L28.5703 18.0787C28.729 17.406 28.8711 16.723 29.0018 16.0391L28.8053 16.0015ZM28.3756 18.0328L28.181 17.9869C28.0327 18.6154 27.9068 19.274 27.8104 19.958L28.0084 19.9859L28.2065 20.0138C28.3011 19.3424 28.4248 18.6957 28.5703 18.0787L28.3756 18.0328ZM28.0084 19.9859L27.8104 19.9579C27.681 20.8714 27.2325 21.6267 26.4968 22.1861L26.6178 22.3453L26.7389 22.5045C27.5572 21.8823 28.0621 21.0334 28.2065 20.014L28.0084 19.9859ZM26.6178 22.3453L26.4968 22.1861C25.9471 22.6039 25.4264 23.0406 24.9364 23.4864L25.0709 23.6343L25.2055 23.7823C25.6875 23.3438 26.1992 22.9147 26.7388 22.5045L26.6178 22.3453ZM25.0709 23.6343L24.9363 23.4864C24.4422 23.9361 23.9569 24.4082 23.4816 24.9019L23.6256 25.0406L23.7697 25.1793C24.2391 24.6918 24.718 24.2259 25.2055 23.7823L25.0709 23.6343ZM23.6256 25.0406L23.4815 24.9019C22.8926 25.5136 22.1807 25.9408 21.3612 26.1682L21.4147 26.3609L21.4682 26.5536C22.3573 26.3069 23.1317 25.842 23.7697 25.1793L23.6256 25.0406ZM21.4147 26.3609L21.3612 26.1682C20.701 26.3513 20.0638 26.5537 19.4537 26.7831L19.5241 26.9703L19.5944 27.1575C20.1914 26.9331 20.8171 26.7342 21.4682 26.5536L21.4147 26.3609ZM19.5241 26.9703L19.4537 26.7831C18.7591 27.0442 18.043 27.2193 17.3062 27.3028L17.3288 27.5015L17.3513 27.7003C18.1217 27.6129 18.8699 27.4298 19.5944 27.1575L19.5241 26.9703ZM17.3288 27.5015L17.3062 27.3028C16.5921 27.3837 15.878 27.408 15.167 27.3721L15.1569 27.5718L15.1468 27.7716C15.8805 27.8086 16.6164 27.7835 17.3513 27.7003L17.3288 27.5015ZM15.1569 27.5718L15.167 27.3721C14.5829 27.3424 13.9757 27.3973 13.3517 27.5494L13.3991 27.7437L13.4464 27.938C14.0336 27.7949 14.602 27.7439 15.1467 27.7716L15.1569 27.5718ZM13.3991 27.7437L13.3516 27.5494C12.4516 27.7693 11.5815 27.6364 10.8027 27.1449L10.6959 27.314L10.5892 27.4832C11.4626 28.0343 12.4444 28.1828 13.4465 27.938L13.3991 27.7437ZM10.6959 27.314L10.8027 27.1449C10.254 26.7987 9.69526 26.5122 9.12775 26.2917L9.05532 26.4781L8.98288 26.6645C9.524 26.8748 10.0599 27.1492 10.5892 27.4832L10.6959 27.314ZM9.05532 26.4781L9.12779 26.2917C8.42482 26.0183 7.78075 25.6351 7.20102 25.1387L7.07094 25.2906L6.94086 25.4425C7.55517 25.9685 8.23827 26.375 8.98284 26.6645L9.05532 26.4781ZM7.07094 25.2906L7.20108 25.1387C6.78608 24.7831 6.30331 24.532 5.74409 24.3933L5.69594 24.5875L5.64779 24.7816C6.1472 24.9054 6.57366 25.1279 6.9408 25.4425L7.07094 25.2906ZM5.69594 24.5875L5.7439 24.3933C4.84716 24.1718 4.1503 23.6347 3.71612 22.8214L3.53969 22.9156L3.36326 23.0098C3.85157 23.9245 4.64259 24.5333 5.64798 24.7816L5.69594 24.5875ZM3.53969 22.9156L3.71605 22.8213C3.42583 22.2786 3.07789 21.815 2.67889 21.4282L2.53969 21.5718L2.40049 21.7154C2.76782 22.0715 3.09132 22.5013 3.36333 23.0099L3.53969 22.9156ZM2.53969 21.5718L2.67895 21.4283C2.17154 20.9361 1.7304 20.3862 1.34922 19.785L1.18032 19.8922L1.01141 19.9993C1.40837 20.6253 1.8691 21.2 2.40043 21.7154L2.53969 21.5718ZM1.18032 19.8922L1.34924 19.7851C0.966946 19.1819 0.656323 18.5386 0.424279 17.8588L0.235003 17.9234L0.0457266 17.988C0.288166 18.6982 0.612597 19.37 1.01139 19.9992L1.18032 19.8922ZM0.235003 17.9234L0.424294 17.8588C0.16259 17.0916 0.129393 16.3046 0.327375 15.5192L0.13344 15.4703L-0.0604938 15.4214C-0.277459 16.2822 -0.240819 17.1479 0.0457117 17.988L0.235003 17.9234ZM0.13344 15.4703L0.327383 15.5191C0.470912 14.9493 0.538089 14.3958 0.528723 13.8574L0.328753 13.8609L0.128783 13.8644C0.137482 14.3644 0.0752121 14.8826 -0.0605019 15.4214L0.13344 15.4703ZM0.328753 13.8609L0.528721 13.8573C0.516122 13.1524 0.617399 12.4606 0.838722 11.7994L0.649065 11.7359L0.459408 11.6724C0.222927 12.3789 0.115411 13.1162 0.128785 13.8645L0.328753 13.8609ZM0.649065 11.7359L0.83878 11.7992C0.992808 11.3377 1.05172 10.8477 1.00452 10.3197L0.805315 10.3375L0.60611 10.3553C0.648549 10.8301 0.595463 11.2647 0.459351 11.6726L0.649065 11.7359ZM0.805315 10.3375L1.00451 10.3195C0.931733 9.51263 1.11228 8.75062 1.55085 8.07971L1.38344 7.97028L1.21604 7.86085C0.726079 8.61036 0.525618 9.46284 0.606124 10.3554L0.805315 10.3375ZM1.38344 7.97028L1.55084 8.07972C1.89078 7.55974 2.22861 7.05804 2.56328 6.57663L2.39907 6.46247L2.23485 6.3483C1.89786 6.83305 1.5579 7.33792 1.21604 7.86084L1.38344 7.97028ZM2.39907 6.46247L2.56329 6.57662C2.88292 6.1168 3.19567 5.64322 3.49219 5.15172L3.32094 5.0484L3.14969 4.94509C2.85867 5.42748 2.55088 5.89368 2.23485 6.34831L2.39907 6.46247ZM3.32094 5.0484L3.49218 5.15173C3.83693 4.58039 4.24942 4.06531 4.73739 3.61766L4.60219 3.47028L4.46699 3.3229C3.94877 3.7983 3.51259 4.34367 3.1497 4.94508L3.32094 5.0484ZM4.60219 3.47028L4.73738 3.61767C5.23176 3.16423 5.7867 2.80437 6.39396 2.53603L6.31313 2.35309L6.23229 2.17016C5.58591 2.45578 4.99411 2.83943 4.467 3.32289L4.60219 3.47028ZM6.31313 2.35309L6.39393 2.53604C6.92029 2.30357 7.45094 2.07138 7.97901 1.84111L7.89907 1.65778L7.81912 1.47445C7.29078 1.70484 6.75949 1.93731 6.23233 2.17014L6.31313 2.35309ZM7.89907 1.65778L7.97901 1.8411C8.49815 1.61471 9.02651 1.37784 9.56176 1.12808L9.47719 0.946841L9.39262 0.765601C8.86094 1.01369 8.33571 1.24916 7.81912 1.47445L7.89907 1.65778ZM9.47719 0.946841L9.56174 1.12809C9.84667 0.995173 10.1419 0.897796 10.4433 0.829381L10.3991 0.634341L10.3548 0.439301C10.0284 0.513389 9.70581 0.619497 9.39264 0.765593L9.47719 0.946841ZM10.3991 0.634341L10.5649 0.746157C10.6805 0.574662 10.855 0.458478 11.0637 0.416318L11.0241 0.220278L10.9845 0.0242384C10.6747 0.0868229 10.4087 0.262307 10.2332 0.522525L10.3991 0.634341ZM11.0241 0.220278L11.0938 0.407721C11.1094 0.401927 11.1235 0.395781 11.1348 0.390713C11.1405 0.388162 11.1461 0.385615 11.1508 0.383439C11.1558 0.381152 11.16 0.379246 11.164 0.377417C11.1722 0.373746 11.1777 0.371442 11.1819 0.369845C11.1861 0.368289 11.1875 0.367987 11.187 0.36811L11.1413 0.173403L11.0955 -0.0213027C11.0557 -0.0119434 11.0214 0.00297535 11 0.0125979C10.9729 0.0247876 10.9653 0.0287511 10.9543 0.0328361L11.0241 0.220278ZM11.1413 0.173403L11.1866 0.368204C11.3144 0.33846 11.4711 0.332683 11.604 0.326298L11.5944 0.126528L11.5848 -0.0732413C11.4658 -0.0675244 11.2672 -0.0612178 11.0959 -0.0213975L11.1413 0.173403ZM11.5944 0.126528L11.6039 0.3263C11.7542 0.319116 11.9421 0.311883 12.1578 0.310901L12.1569 0.110903L12.156 -0.0890945C11.9324 -0.088077 11.7383 -0.0805814 11.5848 -0.0732435L11.5944 0.126528ZM22.2594 4.70563L22.1515 4.87401C22.3684 5.01303 22.5885 5.15574 22.8072 5.29518L22.9147 5.12653L23.0222 4.95788C22.8033 4.81831 22.5874 4.67831 22.3673 4.53725L22.2594 4.70563ZM22.9147 5.12653L22.9737 5.31762C23.0132 5.30544 23.0197 5.30205 23.0368 5.29819L22.9928 5.10309L22.9488 4.90799C22.9119 4.91632 22.8671 4.9319 22.8557 4.93543L22.9147 5.12653ZM22.9928 5.10309L23.0364 5.29829C23.0727 5.29019 23.1087 5.28501 23.1446 5.28177L23.1266 5.08258L23.1086 4.88339C23.0585 4.88791 23.0051 4.89542 22.9492 4.90789L22.9928 5.10309ZM23.1266 5.08258L23.2306 4.91173C22.9778 4.7579 22.7056 4.63394 22.4102 4.54449L22.3522 4.7359L22.2942 4.92732C22.5563 5.00667 22.7976 5.11653 23.0226 5.25344L23.1266 5.08258ZM22.3522 4.7359L22.4101 4.54448C22.3979 4.54079 22.3853 4.53656 22.3696 4.53128C22.3548 4.52631 22.3368 4.52019 22.3183 4.51451L22.2594 4.70563L22.2005 4.89675C22.213 4.90061 22.2258 4.90493 22.2419 4.91036C22.2571 4.91547 22.2753 4.9216 22.2943 4.92733L22.3522 4.7359Z" data-figma-gradient-fill="{&#34;type&#34;:&#34;GRADIENT_DIAMOND&#34;,&#34;stops&#34;:[{&#34;color&#34;:{&#34;r&#34;:1.0,&#34;g&#34;:1.0,&#34;b&#34;:1.0,&#34;a&#34;:0.0},&#34;position&#34;:0.91359704732894897},{&#34;color&#34;:{&#34;r&#34;:0.0,&#34;g&#34;:0.0,&#34;b&#34;:0.0,&#34;a&#34;:0.750},&#34;position&#34;:0.92148810625076294}],&#34;stopsVar&#34;:[{&#34;color&#34;:{&#34;r&#34;:1.0,&#34;g&#34;:1.0,&#34;b&#34;:1.0,&#34;a&#34;:0.0},&#34;position&#34;:0.91359704732894897},{&#34;color&#34;:{&#34;r&#34;:0.0,&#34;g&#34;:0.0,&#34;b&#34;:0.0,&#34;a&#34;:0.750},&#34;position&#34;:0.92148810625076294}],&#34;transform&#34;:{&#34;m00&#34;:1.7708887123301319e-15,&#34;m01&#34;:-28.920806884765625,&#34;m02&#34;:28.920806884765625,&#34;m10&#34;:27.741254806518555,&#34;m11&#34;:1.6986620011595209e-15,&#34;m12&#34;:0.110778808593750},&#34;opacity&#34;:0.50,&#34;blendMode&#34;:&#34;NORMAL&#34;,&#34;visible&#34;:true}" mask="url(#path-1-inside-1_2020_1209)"/>
<path d="M8.41437 14.1784C8.68728 14.2458 8.90049 14.3997 9.02374 14.4987C9.16597 14.6132 9.31163 14.7504 9.44562 14.8972C9.59591 15.0618 9.7447 15.2582 9.85187 15.4753C9.95709 15.6891 10.0579 16.0042 9.99249 16.3659C9.94313 16.636 9.80273 16.825 9.65656 16.9831C9.67718 17.0841 9.69922 17.1838 9.68781 17.2878L9.59406 17.6159L9.57843 17.6315C9.57298 17.6421 9.57648 17.6601 9.57062 17.6706C9.5515 17.7045 9.51482 17.7257 9.49249 17.7565C9.45312 17.8116 9.40759 17.8622 9.35187 17.9128C9.30753 17.9523 9.26117 17.9837 9.21124 18.0143C9.1641 18.0437 9.12641 18.0933 9.07062 18.1159C9.04126 18.1277 9.00539 18.123 8.97687 18.1315C8.96405 18.1353 8.95076 18.1361 8.93781 18.1393C8.80223 18.1742 8.6848 18.1736 8.58624 18.1628H8.57843C8.53414 18.1576 8.49396 18.1628 8.46124 18.155C8.40703 18.1418 8.36475 18.103 8.32062 18.0847C8.2862 18.0703 8.2446 18.0719 8.21124 18.0534L8.13312 18.0065V18.0143L8.05499 17.9597C7.85239 17.8234 7.71951 17.6233 7.65656 17.405C7.64263 17.3821 7.62503 17.3599 7.60968 17.3347C7.40156 17.2199 7.21499 17.0724 7.08624 16.8659C6.77105 16.3584 6.81023 15.7412 6.88312 15.2956L6.92218 15.1315L6.96124 15.0378C7.01416 14.8839 7.1097 14.7609 7.21906 14.655C7.23562 14.6303 7.2389 14.5933 7.25812 14.569C7.39289 14.3996 7.58599 14.2546 7.82843 14.1862C8.05724 14.1222 8.26416 14.1417 8.41437 14.1784Z" fill="#473422"/>
<path d="M22.6999 3.68549C22.8323 3.70227 22.9782 3.72918 23.1217 3.81049C23.3363 3.93245 23.4652 4.09964 23.5514 4.26361L23.8405 4.38861L24.1686 4.70892C24.2779 4.86835 24.3608 5.08461 24.3483 5.35736C24.3262 5.81435 24.0313 6.08722 23.9342 6.16986C23.8941 6.20399 23.8683 6.22944 23.8561 6.24017L23.8483 6.24799C23.7747 6.31461 23.6835 6.34785 23.5983 6.38861C23.5725 6.4012 23.555 6.43289 23.528 6.4433H23.5124C23.378 6.49132 23.2383 6.5091 23.0983 6.49799C23.0857 6.4971 23.0721 6.50722 23.0592 6.5058C22.9405 6.49223 22.7625 6.42261 22.5827 6.28705C22.5347 6.25039 22.4762 6.22407 22.4342 6.17767L22.3795 6.11517V6.12299L22.317 6.04486C22.2688 5.98222 22.2546 5.90307 22.2233 5.83392C22.1588 5.78539 22.0786 5.75182 22.0202 5.68549C21.9838 5.64418 21.971 5.58785 21.942 5.54486C21.8503 5.493 21.7652 5.43035 21.692 5.34955L21.6217 5.27924C21.2512 4.86968 21.2825 4.23569 21.692 3.86517C21.9766 3.6078 22.3628 3.56274 22.6999 3.68549ZM23.9499 6.09174C23.9226 6.12832 23.9037 6.16861 23.8717 6.20111L23.8639 6.21674C23.8679 6.21284 23.8811 6.21535 23.8874 6.20892C23.8938 6.20233 23.9161 6.17778 23.942 6.14642C23.9544 6.1315 23.9828 6.09861 24.0124 6.05267C24.014 6.0502 24.0102 6.02211 24.028 5.99017C24.0065 6.02795 23.9766 6.05652 23.9499 6.09174ZM24.1452 5.68549C24.1476 5.6722 24.1589 5.66025 24.1608 5.64642L24.153 5.62299C24.1505 5.64417 24.149 5.66448 24.1452 5.68549ZM24.1452 5.37299L24.153 5.3808C24.1507 5.3629 24.1486 5.34483 24.1452 5.32611C24.1481 5.34143 24.143 5.35754 24.1452 5.37299ZM23.653 4.61517L23.6608 4.62299C23.6572 4.61216 23.6495 4.60305 23.6452 4.59174C23.6469 4.60002 23.6514 4.60708 23.653 4.61517Z" fill="#473422"/>
<path d="M7.05499 15.3034C7.2663 15.1256 7.58425 15.1546 7.76202 15.3659L7.82452 15.4401C7.91381 15.5463 7.95455 15.6853 7.93781 15.8229C7.87517 16.3373 7.86312 16.6888 7.88702 16.9011C7.89693 16.903 7.90931 16.9076 7.92609 16.9089C8.24374 16.9329 8.55074 16.9769 8.84406 17.0378C8.98584 17.0672 9.12041 17.1011 9.22687 17.1432C9.27525 17.1624 9.35498 17.1989 9.42999 17.2604C9.49426 17.3133 9.68656 17.4998 9.6214 17.7917C9.61795 17.8071 9.60665 17.8199 9.60187 17.8347C9.58278 17.9474 9.53215 18.0561 9.43781 18.1354C9.2265 18.3125 8.91225 18.284 8.73468 18.0729L8.69562 18.03C8.67882 18.0262 8.66061 18.0223 8.64093 18.0182C8.3931 17.9668 8.12989 17.9299 7.85187 17.9089C7.63126 17.8922 7.39632 17.8239 7.20734 17.655C7.01428 17.482 6.92567 17.2527 6.89874 17.0261C6.86375 16.7299 6.88439 16.3425 6.9339 15.8815C6.84697 15.6839 6.88183 15.4498 7.05499 15.3034Z" fill="#473422"/>
<path d="M8.38702 16.1979C8.39279 16.1987 8.4008 16.1931 8.40656 16.194C8.42857 16.1978 8.48813 16.2141 8.5589 16.2526C8.56245 16.2546 8.56713 16.2545 8.57062 16.2565C8.62518 16.288 8.68555 16.333 8.73468 16.405C8.81579 16.5242 8.81924 16.6429 8.8089 16.737L8.81281 16.7448L8.8089 16.7643L8.81671 16.7682L8.79718 16.8659C8.79606 16.8728 8.79076 16.8787 8.78937 16.8854C8.82238 16.9718 8.83855 17.0792 8.81281 17.2018C8.79764 17.2732 8.76684 17.3305 8.73468 17.3815L8.73077 17.4362C8.69707 17.7092 8.44927 17.902 8.17609 17.8698C7.94081 17.8415 7.77507 17.6543 7.75031 17.4284C7.71784 17.3518 7.68945 17.2607 7.70343 17.155C7.70815 17.1198 7.72863 17.0911 7.73859 17.0612C7.73025 17.0414 7.71421 17.0236 7.70734 17.0026C7.67003 16.8884 7.65561 16.7265 7.73468 16.5612C7.81003 16.4038 7.93606 16.3194 8.02765 16.2761L8.07843 16.2487C8.08269 16.2466 8.07678 16.2507 8.06671 16.2565C8.06338 16.2585 8.05845 16.2635 8.05109 16.2682C8.04872 16.2698 8.04456 16.2725 8.03937 16.2761C8.08701 16.2438 8.13884 16.2201 8.19562 16.2057C8.22884 16.1971 8.26276 16.1996 8.29718 16.1979C8.32304 16.1969 8.3488 16.187 8.37531 16.1901L8.38702 16.1979ZM8.49249 17.6081C8.49548 17.6065 8.52657 17.5916 8.56281 17.5573V17.5495C8.53286 17.5704 8.51302 17.5974 8.49249 17.6081ZM7.86749 16.4753C7.86327 16.4843 7.86446 16.4976 7.85968 16.5104C7.86525 16.4959 7.86847 16.4813 7.87531 16.4675L7.86749 16.4753ZM7.96124 16.3386C7.95562 16.3444 7.95004 16.3587 7.93781 16.3737C7.95569 16.3521 7.97134 16.3295 7.99249 16.3112C7.98397 16.3187 7.97213 16.3274 7.96124 16.3386Z" fill="#473422"/>
<path d="M26.6335 19.6396C26.7865 19.5856 27.0351 19.5259 27.278 19.6357C27.4913 19.7325 27.5991 19.9076 27.6491 20.0693L27.6804 20.2217L27.7038 20.6201C27.7048 20.7639 27.6989 20.92 27.6882 21.085C27.6583 21.5394 27.4576 21.9267 27.11 22.2217C26.8841 22.4132 26.5824 22.688 26.2038 23.0459C26.0939 23.2778 25.8314 23.3946 25.5866 23.3037C25.5113 23.2755 25.4503 23.2261 25.3991 23.1709C25.3874 23.1615 25.3787 23.15 25.3679 23.1396C25.3523 23.1247 25.3383 23.1094 25.3249 23.0928C25.3079 23.0717 25.2953 23.0499 25.2819 23.0264L25.2585 22.999C25.2561 22.9944 25.251 22.9812 25.239 22.96C25.2144 22.9167 25.1721 22.849 25.1179 22.7568C25.0756 22.6851 25.0242 22.5755 25.0085 22.4443C24.9918 22.3026 25.0239 22.1246 25.1569 21.9795C25.1316 21.6896 25.1557 21.3972 25.2468 21.1045C25.3555 20.7558 25.5401 20.4466 25.7975 20.1865C26.0427 19.9389 26.3214 19.7503 26.6335 19.6396ZM25.235 22.9287C25.2438 22.957 25.2489 22.9794 25.2507 22.9834L25.2546 22.9912C25.2496 22.9804 25.2509 22.9672 25.2468 22.9561C25.2432 22.9466 25.238 22.9384 25.235 22.9287ZM25.2116 22.8193C25.212 22.8242 25.215 22.8303 25.2155 22.835C25.2142 22.822 25.2159 22.8091 25.2155 22.7959C25.2158 22.8052 25.2112 22.8132 25.2116 22.8193Z" fill="#473422"/>
<path d="M3.02701 6.80725C3.29927 6.86475 3.49874 7.03519 3.63638 7.23303C3.86694 7.56553 3.99024 7.94334 3.99966 8.35022C4.00727 8.67875 3.99785 9.01229 3.97232 9.35022C3.95626 9.56267 3.9001 9.7915 3.75748 9.98303C3.64478 10.1341 3.49613 10.2332 3.3317 10.2877C3.26331 10.3707 3.17496 10.4179 3.07779 10.444C3.05232 10.4571 3.02756 10.4743 2.99966 10.483C2.84555 10.5309 2.71267 10.5012 2.60513 10.4557C2.48437 10.5338 2.33503 10.5648 2.18716 10.5182C1.99626 10.458 1.86847 10.2941 1.84341 10.108C1.49609 9.71298 1.23975 9.29865 1.2067 8.87366C1.17601 8.47505 1.25363 8.09504 1.44498 7.74866C1.63999 7.39654 1.93484 7.12524 2.30045 6.93225C2.50889 6.82233 2.76037 6.75126 3.02701 6.80725ZM2.76529 7.81506C2.75169 7.82225 2.73924 7.8311 2.72623 7.8385C2.75006 7.83545 2.77441 7.83051 2.80045 7.83069C2.81097 7.83077 2.82155 7.83398 2.8317 7.83459C2.82557 7.82516 2.82254 7.81267 2.81607 7.80334L2.80826 7.79553C2.79714 7.7999 2.78243 7.80601 2.76529 7.81506Z" fill="#473422"/>
<path d="M3.2261 9.16687C3.47541 9.04874 3.77563 9.15591 3.89407 9.40515C3.99554 9.61922 3.92351 9.86143 3.74564 10.0028C3.73061 10.194 3.68735 10.3972 3.62064 10.6044C3.57256 10.7527 3.46326 10.9831 3.20657 11.0887C2.94155 11.1973 2.69781 11.1032 2.55814 11.0223C2.29627 10.8707 2.18677 10.6102 2.18314 10.3583C2.18171 10.2559 2.20418 10.1544 2.23001 10.0536C2.19097 9.83699 2.2873 9.61353 2.49564 9.51453L2.58548 9.47156C2.68535 9.42425 2.79452 9.41938 2.89798 9.44031C2.90656 9.42758 2.91943 9.41775 2.92923 9.40515C2.97853 9.32453 3.04604 9.25271 3.13626 9.20984L3.2261 9.16687Z" fill="#473422"/>
<path d="M8.77765 14.3503C9.05885 14.4458 9.30297 14.6075 9.50421 14.8268C9.64079 14.9757 9.78167 15.1174 9.92609 15.2526C10.0777 15.3945 10.2397 15.5442 10.4105 15.6979C10.6919 15.9512 10.8365 16.2859 10.8597 16.6589C10.8724 16.8655 10.8367 17.0786 10.7269 17.2722C10.617 17.4651 10.4534 17.6032 10.2698 17.6979C10.049 17.8119 9.8612 17.9183 9.70343 18.0143C9.61469 18.0684 9.49858 18.1302 9.38702 18.1628C9.34352 18.1755 9.20797 18.2154 9.05109 18.1667C8.95569 18.1367 8.85222 18.0736 8.77765 17.9675C8.71232 17.8741 8.68978 17.7775 8.6839 17.7057V17.7097L8.67999 17.6432L8.67609 17.6393L8.66827 17.53C8.64397 17.2581 8.84218 17.0158 9.11359 16.987C9.21137 16.9767 9.30101 17.0048 9.38312 17.0456C9.5152 16.9702 9.65794 16.8911 9.81281 16.8112C9.85142 16.7913 9.85989 16.7761 9.85968 16.7761C9.86161 16.7698 9.86553 16.7534 9.86359 16.7214C9.85479 16.5791 9.80755 16.4987 9.74249 16.4401C9.56734 16.2825 9.39928 16.1299 9.24249 15.9831C9.07907 15.8301 8.91951 15.67 8.76593 15.5026C8.67621 15.405 8.57633 15.3361 8.45734 15.2956C8.33161 15.2529 8.2148 15.2455 8.10187 15.2643C7.99144 15.2829 7.89341 15.316 7.80499 15.3581C7.79749 15.4182 7.79084 15.5239 7.81281 15.6862C7.83277 15.8377 7.78256 15.9906 7.67609 16.1003C7.56926 16.2098 7.4181 16.2647 7.26593 16.2487L7.16827 16.237C6.89407 16.2082 6.69488 15.9642 6.72296 15.6901C6.73132 15.6105 6.76085 15.5385 6.80109 15.4753C6.7996 15.3569 6.80306 15.2428 6.82452 15.1354C6.86679 14.9244 6.97429 14.6797 7.22296 14.5339C7.44121 14.406 7.68002 14.3229 7.9339 14.28C8.21823 14.2322 8.50314 14.2571 8.77765 14.3503Z" fill="#473422"/>
<path d="M17.0764 7.22955C17.5154 7.04891 17.9441 7.16728 18.299 7.42877C18.585 7.63954 18.8479 7.87808 19.0842 8.14362C19.3789 8.47519 19.5348 8.89562 19.3928 9.35065C19.3246 9.56841 19.1903 9.76943 18.9709 9.89752C18.9236 9.92507 18.8716 9.94177 18.8224 9.96002C18.793 10.0112 18.7576 10.0611 18.7092 10.1006C18.5249 10.2504 18.2717 10.241 18.092 10.1006C18.0398 10.0971 17.9729 10.091 17.8889 10.0889C17.7152 10.0847 17.5456 10.0582 17.381 10.0186C17.3409 10.0209 17.3011 10.0374 17.2599 10.0342C17.0211 10.0157 16.8262 9.89863 16.6857 9.72565C16.4471 9.57841 16.2384 9.40145 16.0724 9.18268C16.0422 9.16683 16.0073 9.15828 15.9787 9.13971C15.8822 9.07706 15.764 8.97199 15.6935 8.81158C15.5455 8.4731 15.7212 8.2 15.8615 8.04987C15.9569 7.86115 16.1101 7.72333 16.2678 7.6319C16.5478 7.46954 16.8189 7.33577 17.0764 7.22955Z" fill="#473422"/>
<path d="M14.6096 20.4424C14.8452 20.3558 15.1093 20.3184 15.3713 20.3916C15.6428 20.4675 15.8431 20.6449 15.9807 20.8643C16.2167 21.2406 16.2701 21.6548 16.1604 22.0791C16.1784 22.1009 16.1996 22.1227 16.2151 22.1494C16.2201 22.1581 16.2224 22.1679 16.2268 22.1768C16.2689 22.2411 16.3002 22.3139 16.3088 22.3955C16.337 22.6699 16.1377 22.9176 15.8635 22.9463L15.762 22.9541C15.7395 22.9564 15.7176 22.9509 15.6956 22.9502C15.6089 23.0061 15.4861 23.0961 15.3284 23.2393C14.9997 23.5376 14.5924 23.6636 14.1487 23.6377C13.96 23.6267 13.7068 23.588 13.512 23.4229C13.4549 23.3743 13.4029 23.3164 13.3635 23.251C13.3346 23.2493 13.306 23.2481 13.2776 23.2471C13.0999 23.2406 12.7192 23.1855 12.5706 22.8096C12.5052 22.6435 12.518 22.4845 12.5471 22.3682C12.5767 22.2507 12.6315 22.1397 12.6877 22.0439C12.7489 21.94 12.8174 21.8445 12.8948 21.7588C12.8893 21.7456 12.8799 21.7337 12.8752 21.7197C12.8071 21.5148 12.857 21.314 12.9612 21.1689C13.0487 21.0472 13.1675 20.973 13.2542 20.9268C13.348 20.8768 13.4543 20.8361 13.5627 20.8018C13.9225 20.6879 14.271 20.5669 14.6096 20.4424ZM14.4612 22.2236C14.4847 22.2337 14.5098 22.2407 14.5315 22.251C14.5375 22.2538 14.5452 22.2523 14.551 22.2549C14.5634 22.2343 14.5744 22.2133 14.5862 22.1924C14.5449 22.203 14.5035 22.2139 14.4612 22.2236Z" fill="#473422"/>
<path d="M12.7243 0.00311279C13.0729 0.0204769 13.4324 0.084305 13.693 0.27655C13.9273 0.449741 14.0042 0.709866 13.9899 0.940613C13.977 1.1455 13.896 1.34807 13.8024 1.52655C13.6876 1.7453 13.5257 1.93654 13.3063 2.06561C13.0855 2.19536 12.8391 2.2423 12.5915 2.22968C12.1783 2.20824 11.727 2.01568 11.2555 1.72968C11.2166 1.73064 11.1798 1.72194 11.1422 1.71405C11.1206 1.71084 11.0993 1.71014 11.0797 1.70624C11.0516 1.70059 10.9877 1.6889 10.9235 1.65936C10.8949 1.6462 10.82 1.60603 10.7516 1.53046C10.6685 1.4376 10.5829 1.26378 10.6422 1.05389C10.689 0.889176 10.8012 0.802564 10.8376 0.77655C10.8841 0.743324 10.9271 0.723805 10.9508 0.71405C10.9996 0.694092 11.0485 0.682177 11.0797 0.674988V0.671082C11.1042 0.605412 11.1321 0.552398 11.1579 0.518738C11.2047 0.45757 11.2599 0.41506 11.2985 0.385925C11.3758 0.32753 11.4671 0.277886 11.5524 0.237488C11.922 0.0625301 12.315 -0.0171819 12.7243 0.00311279ZM12.5797 1.00702L12.5836 1.01483C12.5834 1.02988 12.5734 1.04359 12.5719 1.0578C12.5908 1.11305 12.595 1.1686 12.5954 1.22186C12.6118 1.2239 12.6273 1.2289 12.6422 1.22968C12.7272 1.23404 12.7722 1.21777 12.7985 1.20233C12.8261 1.18609 12.8692 1.15016 12.9157 1.06171C12.92 1.05339 12.9196 1.04215 12.9235 1.03436C12.8574 1.02264 12.7744 1.00814 12.6735 1.00311C12.642 1.00157 12.6107 1.00665 12.5797 1.00702Z" fill="#473422"/>
<path d="M11.9435 0.718689C12.0809 0.560505 12.2958 0.51436 12.4826 0.578064C12.5377 0.568835 12.5894 0.550046 12.6389 0.55072L12.8381 0.58197C12.9032 0.603883 13.1999 0.731145 13.1935 1.08197C13.1921 1.1519 13.1731 1.2101 13.1545 1.25775C13.1831 1.40346 13.1574 1.55861 13.0529 1.67963C12.8718 1.88811 12.5544 1.91148 12.3459 1.73041L12.2717 1.664L12.2756 1.6601C12.2629 1.64931 12.2548 1.6317 12.2404 1.61713C12.0174 1.55475 11.9142 1.37057 11.8849 1.29681C11.8822 1.2899 11.8874 1.28037 11.8849 1.27338C11.7938 1.09693 11.8056 0.877881 11.9435 0.718689Z" fill="#473422"/>
<path d="M19.8553 14.1377L19.949 14.1768L20.0271 14.2354C20.0461 14.2262 20.0616 14.2136 20.0779 14.208C20.2077 14.1635 20.3207 14.1866 20.3318 14.1885C20.3666 14.1945 20.3947 14.2032 20.4099 14.208C20.4656 14.2256 20.5277 14.2525 20.574 14.2744C20.8875 14.4224 21.1148 14.6769 21.2693 14.9854C21.3107 15.068 21.3539 15.1804 21.367 15.3057C21.3808 15.4396 21.3592 15.6339 21.2068 15.7939C21.0675 15.9397 20.8951 15.9766 20.7888 15.9854C20.7685 15.987 20.7465 15.9774 20.7263 15.9775C20.677 16.0204 20.624 16.0617 20.5584 16.083L20.242 16.1846L20.2381 16.1768C20.0208 16.2552 19.8096 16.2279 19.6404 16.1533C19.4684 16.0775 19.3166 15.9512 19.1834 15.8174C19.0681 15.7015 18.9672 15.5911 18.8982 15.4971C18.8686 15.4566 18.8128 15.381 18.781 15.2861C18.7653 15.2391 18.7409 15.1411 18.7615 15.0205C18.7868 14.8733 18.8752 14.7373 19.0154 14.6572L19.1599 14.6064C19.1587 14.5388 19.1711 14.4696 19.199 14.4033C19.3069 14.1493 19.6012 14.03 19.8553 14.1377ZM20.5974 14.3408C20.593 14.3365 20.5912 14.3306 20.5896 14.3291L20.5818 14.3252L20.5974 14.3408Z" fill="#473422"/>
<path d="M9.62503 6.21259C9.81194 6.24349 9.96166 6.33748 10.0742 6.45868L10.1758 6.58759L10.2578 6.75165C10.3201 6.924 10.3188 7.11539 10.2422 7.30243C10.1545 7.51614 9.98618 7.67061 9.82816 7.7829C9.59574 7.94805 9.32492 8.09678 9.04691 8.13055L8.85159 8.17743C8.64068 8.33064 8.34931 8.30182 8.17972 8.0993C8.01148 7.8967 8.03241 7.60353 8.21878 7.42352C8.30043 7.19789 8.3872 6.99254 8.49612 6.82196C8.62526 6.61991 8.79581 6.43285 9.02347 6.32196C9.18884 6.24143 9.39859 6.17535 9.62503 6.21259Z" fill="#473422"/>
<path d="M24.8149 8.70789C25.0908 8.70175 25.3202 8.92038 25.3266 9.19617L25.3305 9.29773C25.3317 9.35529 25.3176 9.41123 25.2993 9.4657C25.3215 9.52041 25.3369 9.57939 25.3383 9.64148V9.74304C25.3404 9.84043 25.3068 9.92689 25.2602 10.0048C25.2581 10.0115 25.2548 10.0177 25.2524 10.0243V10.0594C25.2532 10.0777 25.2568 10.1016 25.2602 10.1298C25.2834 10.3203 25.2423 10.5232 25.1079 10.6962C24.9838 10.8557 24.8156 10.9429 24.6665 10.993C24.5966 11.0165 24.4783 11.0484 24.3462 11.036C24.1834 11.0205 23.9688 10.9274 23.8735 10.6884C23.8035 10.5115 23.8422 10.3482 23.8618 10.2782C23.8863 10.1905 23.9247 10.1056 23.9633 10.0321C24.0662 9.83648 24.1882 9.56354 24.3305 9.20789C24.3304 8.93717 24.5431 8.71451 24.8149 8.70789Z" fill="#473422"/>
<path d="M20.946 20.9176C21.1995 20.8896 21.3792 21.0355 21.4656 21.1637C21.4777 21.1818 21.4834 21.2031 21.4929 21.2223C21.5028 21.2364 21.5195 21.2459 21.5281 21.2614C21.662 21.5028 21.5742 21.8071 21.3328 21.941L21.2468 21.9879C21.1194 22.0586 20.9724 22.0653 20.8406 22.0192C20.821 22.0215 20.8022 22.034 20.782 22.0348C20.698 22.0379 20.6183 22.0221 20.5437 22.0035C20.4988 22.0864 20.4408 22.1548 20.3718 22.2145C20.3587 22.3768 20.2724 22.5294 20.1218 22.6129L20.0359 22.6598C19.7944 22.7938 19.4902 22.7059 19.3562 22.4645C19.2691 22.3063 19.2845 22.1264 19.3679 21.9801C19.3705 21.9486 19.3603 21.9151 19.3679 21.8824C19.4153 21.6801 19.5513 21.5453 19.7078 21.4684C19.7763 21.3081 19.8747 21.164 20.032 21.066C20.2387 20.9377 20.4768 20.9205 20.7 21.0074C20.762 20.9682 20.8452 20.9291 20.946 20.9176ZM21.2195 21.8551H21.2273C21.2448 21.8446 21.2567 21.8318 21.2664 21.8239C21.2526 21.8367 21.2341 21.8432 21.2195 21.8551Z" fill="#473422"/>
<path d="M20.8145 21.1792C21.0239 20.9993 21.3376 21.0244 21.5176 21.2339C21.6972 21.4431 21.6756 21.757 21.4668 21.937L21.4473 21.9526C21.396 22.0366 21.3356 22.1225 21.248 22.1909C21.148 22.269 21.0316 22.3063 20.9121 22.3276C20.8802 22.3972 20.8529 22.4661 20.8184 22.5269C20.7093 22.7185 20.5403 22.845 20.3457 22.9097C20.302 22.9241 20.2716 22.9353 20.2559 22.9409C20.2559 22.9409 20.2779 22.9313 20.3027 22.9175C20.3077 22.9147 20.3192 22.9031 20.3379 22.8901C20.3088 22.9102 20.2798 22.9277 20.248 22.9409C20.2186 22.953 20.1889 22.9581 20.1582 22.9644C20.1203 22.9723 20.0835 22.9809 20.0449 22.98C20.0154 22.979 19.9879 22.9705 19.959 22.9644C19.9308 22.9586 19.9041 22.9516 19.877 22.9409C19.8523 22.931 19.8297 22.9197 19.8066 22.9058C19.7908 22.8964 19.7708 22.8936 19.7559 22.8823C19.7371 22.868 19.7207 22.8441 19.7012 22.8237C19.6962 22.8184 19.6864 22.8176 19.6816 22.812L19.6777 22.8003C19.6441 22.7602 19.6099 22.7131 19.5879 22.6519C19.5633 22.5831 19.5612 22.5162 19.5645 22.4565C19.5649 22.4486 19.5675 22.441 19.5684 22.4331C19.5713 22.4047 19.5696 22.3754 19.5762 22.3511C19.5834 22.3246 19.5975 22.3028 19.6074 22.2808C19.6134 22.2675 19.6197 22.2545 19.627 22.2417C19.6639 22.1757 19.7012 22.1318 19.7129 22.1206C19.7259 22.1082 19.7399 22.0988 19.752 22.0894H19.748L19.8262 22.0269C19.8772 21.9866 19.9354 21.9624 19.9941 21.9448C20.0116 21.9084 20.0331 21.8677 20.0527 21.8198L20.166 21.6206C20.2155 21.5599 20.28 21.5051 20.3535 21.4604C20.4496 21.4025 20.5509 21.3795 20.6465 21.3667C20.6735 21.3227 20.7008 21.2795 20.7402 21.2456L20.8145 21.1792Z" fill="#473422"/>
<path d="M5.51566 21.4009C5.59429 21.4049 5.66596 21.4316 5.7305 21.4673C5.88628 21.4553 6.03829 21.4548 6.17972 21.483C6.37277 21.5217 6.56313 21.6097 6.70706 21.7681L6.83597 21.9517L6.99612 22.3502C7.03373 22.4889 7.05044 22.6328 7.03909 22.7759C7.02988 22.8903 6.99259 23.0167 6.90628 23.1314C6.81954 23.2466 6.70648 23.3177 6.59769 23.358C6.40088 23.4307 6.18964 23.4132 6.02737 23.3853C5.68809 23.3268 5.3153 23.1734 5.13675 22.7994C5.09912 22.7206 5.07248 22.6633 5.05472 22.6275C5.04552 22.609 5.04051 22.5989 5.03909 22.5963C5.03908 22.5963 5.04488 22.6022 5.05081 22.6119C5.0524 22.6145 5.0621 22.6378 5.08206 22.6627C5.07293 22.6514 5.07066 22.6357 5.06253 22.6236C5.05031 22.6055 5.03713 22.5885 5.02737 22.5689C5.01533 22.5447 5.00414 22.5209 4.99612 22.4947C4.98369 22.4545 4.97849 22.4128 4.97659 22.3697C4.97605 22.3554 4.96809 22.3413 4.96878 22.3267L4.97269 22.2252C4.97517 22.1761 4.99629 22.1326 5.01175 22.0884C5.00464 22.0504 4.98637 22.0146 4.98831 21.9752L4.99222 21.8736C5.00663 21.5986 5.24066 21.3876 5.51566 21.4009ZM5.58987 22.8228C5.57522 22.8265 5.56181 22.8322 5.54691 22.8345C5.56519 22.8318 5.58287 22.8279 5.60159 22.8228H5.58987ZM5.3555 22.8345H5.36722C5.35635 22.8322 5.34671 22.8259 5.33597 22.8228C5.34279 22.8248 5.34832 22.8328 5.3555 22.8345ZM5.17191 22.7486C5.17749 22.7528 5.18935 22.7538 5.19925 22.7603C5.19525 22.7577 5.19145 22.7552 5.18753 22.7525C5.17366 22.7428 5.16117 22.7323 5.14847 22.7213C5.15691 22.7286 5.16191 22.7411 5.17191 22.7486Z" fill="#473422"/>
<path d="M1.65546 14.0809C1.79414 14.0073 1.94712 14.0161 2.08124 14.0731C2.13328 14.0776 2.21024 14.0839 2.28827 14.1239C2.35654 14.159 2.44245 14.2259 2.50311 14.3348C2.56508 14.4466 2.57318 14.5617 2.56171 14.6512C2.55832 14.6771 2.54463 14.6988 2.53827 14.7216C2.59818 14.9416 2.50974 15.18 2.29999 15.2919C2.05643 15.4215 1.75413 15.3283 1.62421 15.0848V15.077C1.56644 15.0162 1.51938 14.9427 1.4953 14.8466L1.44843 14.7567C1.31905 14.5132 1.41209 14.2108 1.65546 14.0809Z" fill="#473422"/>
<path d="M25.2042 16.2905C25.2164 16.2926 25.2274 16.3032 25.2393 16.3062C25.3413 16.321 25.4417 16.3571 25.5206 16.4351C25.7165 16.6292 25.7183 16.9458 25.5245 17.1421L25.4073 17.2593C25.2132 17.4557 24.8967 17.4573 24.7003 17.2632C24.5454 17.1096 24.5178 16.8833 24.6065 16.6968C24.6165 16.6437 24.6336 16.5833 24.669 16.5249C24.7351 16.4164 24.8316 16.3517 24.9151 16.3179C25.0523 16.2627 25.1737 16.2852 25.2042 16.2905Z" fill="#473422"/>
<path d="M12.1073 10.8873C12.2843 10.7271 12.5375 10.7273 12.7245 10.86C12.8007 10.8846 12.8832 10.9196 12.9549 10.9967C12.9922 11.0369 13.0121 11.0845 13.0331 11.1256L13.1307 11.153L13.2909 11.2623C13.3434 11.3113 13.3922 11.3743 13.4276 11.4537C13.4974 11.6112 13.4847 11.7652 13.4549 11.8717C13.4469 11.9005 13.4413 11.9186 13.4393 11.9264C13.4397 11.9245 13.4419 11.9179 13.4432 11.9108V11.8678C13.4439 11.8602 13.4506 11.8503 13.451 11.8405C13.4515 11.8281 13.4495 11.8048 13.4471 11.778C13.446 11.7654 13.4395 11.7407 13.4315 11.7076C13.4441 11.7611 13.4484 11.8135 13.4432 11.8678L13.4471 11.8756C13.4464 11.8824 13.4403 11.8884 13.4393 11.8951C13.431 11.9501 13.415 12.0014 13.3885 12.0514C13.378 12.0716 13.3626 12.0875 13.3495 12.1061C13.3292 12.1342 13.3137 12.1678 13.287 12.192C13.2827 12.1958 13.2757 12.1962 13.2713 12.1998C13.2665 12.204 13.2646 12.2115 13.2596 12.2155C13.2419 12.2294 13.192 12.263 13.119 12.2897L13.1112 12.2936C13.063 12.3103 13.0059 12.3187 12.9393 12.317C12.9314 12.3168 12.9237 12.3176 12.9159 12.317C12.902 12.316 12.8874 12.3193 12.8729 12.317C12.7358 12.2953 12.6447 12.2246 12.5838 12.1569L12.5682 12.1373L12.5643 12.1451L12.5018 12.067C12.4894 12.0521 12.4849 12.0321 12.4745 12.0162C12.3884 11.9837 12.2955 11.9322 12.2206 11.8365C12.1762 11.7799 12.1538 11.7179 12.1346 11.6608L12.0721 11.5944C11.887 11.3898 11.9031 11.0727 12.1073 10.8873ZM13.4081 11.6334V11.6217C13.401 11.6057 13.3843 11.5876 13.369 11.5631C13.3836 11.5866 13.3977 11.6084 13.4081 11.6334Z" fill="#473422"/>
<defs>
<clipPath id="paint1_diamond_2020_1209_clip_path"><path d="M10.4595 16.9388C10.4896 16.8925 10.4764 16.8305 10.4301 16.8005C10.3838 16.7704 10.3218 16.7836 10.2918 16.8299L10.3756 16.8843L10.4595 16.9388ZM10.2421 16.9126C10.2145 16.9604 10.231 17.0216 10.2789 17.0491C10.3267 17.0767 10.3879 17.0602 10.4154 17.0124L10.3288 16.9625L10.2421 16.9126ZM10.3756 16.8843L10.2918 16.8299C10.2821 16.8448 10.2694 16.866 10.2598 16.8822C10.2548 16.8906 10.2504 16.8982 10.2473 16.9036C10.2457 16.9064 10.2444 16.9086 10.2435 16.9101C10.2431 16.9109 10.2427 16.9115 10.2425 16.9119C10.2424 16.9121 10.2423 16.9123 10.2422 16.9124C10.2422 16.9124 10.2421 16.9125 10.2421 16.9125C10.2421 16.9125 10.2421 16.9125 10.2421 16.9126C10.2421 16.9126 10.2421 16.9126 10.2421 16.9126C10.2421 16.9126 10.2421 16.9126 10.2421 16.9126C10.2421 16.9126 10.2421 16.9126 10.3288 16.9625C10.4154 17.0124 10.4154 17.0124 10.4154 17.0124C10.4154 17.0124 10.4154 17.0124 10.4154 17.0124C10.4154 17.0124 10.4154 17.0124 10.4154 17.0124C10.4154 17.0124 10.4154 17.0123 10.4154 17.0123C10.4154 17.0123 10.4155 17.0123 10.4155 17.0122C10.4155 17.0122 10.4156 17.012 10.4157 17.0118C10.4159 17.0115 10.4162 17.0109 10.4166 17.0102C10.4175 17.0088 10.4187 17.0067 10.4202 17.0041C10.4232 16.999 10.4274 16.9918 10.432 16.9839C10.4417 16.9676 10.4524 16.9497 10.4595 16.9388L10.3756 16.8843ZM12.1569 0.110903L12.156 -0.0890947L12.156 -0.0890945L12.1569 0.110903ZM13.7428 0.173403L13.7571 -0.0260854L13.7571 -0.026087L13.7428 0.173403ZM14.1881 0.212466L14.1724 0.411843L14.1835 0.412724L14.1946 0.41236L14.1881 0.212466ZM14.4459 0.235903L14.3996 0.430471L14.4143 0.433961L14.4293 0.435213L14.4459 0.235903ZM15.5631 0.329653L15.5432 0.528654L15.5432 0.528655L15.5631 0.329653ZM17.4225 0.501528L17.4396 0.302261L17.4396 0.302258L17.4225 0.501528ZM19.6725 1.30622L19.7839 1.14012L19.7838 1.14005L19.6725 1.30622ZM21.2272 2.18122L21.1434 2.36284L21.1435 2.36284L21.2272 2.18122ZM22.9303 2.82184L22.9883 2.63042L22.9883 2.63042L22.9303 2.82184ZM25.0319 4.02497L25.1678 3.87829L25.1678 3.87824L25.0319 4.02497ZM26.3444 6.14997L26.5362 6.09321L26.5361 6.09316L26.3444 6.14997ZM27.1256 7.39215L26.9904 7.53951L26.9904 7.53951L27.1256 7.39215ZM28.2663 9.81403L28.466 9.80393L28.466 9.8039L28.2663 9.81403ZM28.4694 11.689L28.2721 11.7217L28.2721 11.7218L28.4694 11.689ZM28.8131 13.6343L29.0097 13.5976L29.0097 13.5976L28.8131 13.6343ZM28.8053 16.0015L29.0018 16.0391L29.0018 16.039L28.8053 16.0015ZM28.3756 18.0328L28.181 17.9868L28.181 17.9869L28.3756 18.0328ZM28.0084 19.9859L28.2065 20.014L28.2065 20.0138L28.0084 19.9859ZM26.6178 22.3453L26.7388 22.5045L26.7389 22.5045L26.6178 22.3453ZM25.0709 23.6343L24.9364 23.4864L24.9363 23.4864L25.0709 23.6343ZM23.6256 25.0406L23.4816 24.9019L23.4815 24.9019L23.6256 25.0406ZM21.4147 26.3609L21.4682 26.5536L21.4682 26.5536L21.4147 26.3609ZM19.5241 26.9703L19.5944 27.1575L19.5944 27.1575L19.5241 26.9703ZM17.3288 27.5015L17.3513 27.7003L17.3513 27.7003L17.3288 27.5015ZM15.1569 27.5718L15.1467 27.7716L15.1468 27.7716L15.1569 27.5718ZM13.3991 27.7437L13.3517 27.5494L13.3516 27.5494L13.3991 27.7437ZM10.6959 27.314L10.8027 27.1449L10.8027 27.1449L10.6959 27.314ZM9.05532 26.4781L8.98284 26.6645L8.98288 26.6645L9.05532 26.4781ZM7.07094 25.2906L6.9408 25.4425L6.94086 25.4425L7.07094 25.2906ZM5.69594 24.5875L5.74409 24.3933L5.7439 24.3933L5.69594 24.5875ZM3.53969 22.9156L3.71612 22.8214L3.71605 22.8213L3.53969 22.9156ZM2.53969 21.5718L2.40043 21.7154L2.40049 21.7154L2.53969 21.5718ZM1.18032 19.8922L1.01139 19.9992L1.01141 19.9993L1.18032 19.8922ZM0.235003 17.9234L0.0457117 17.988L0.0457266 17.988L0.235003 17.9234ZM0.13344 15.4703L0.327375 15.5192L0.327383 15.5191L0.13344 15.4703ZM0.328753 13.8609L0.528723 13.8574L0.528721 13.8573L0.328753 13.8609ZM0.649065 11.7359L0.838722 11.7994L0.83878 11.7992L0.649065 11.7359ZM0.805315 10.3375L1.00452 10.3197L1.00451 10.3195L0.805315 10.3375ZM1.38344 7.97028L1.21604 7.86084L1.21604 7.86085L1.38344 7.97028ZM2.39907 6.46247L2.56328 6.57663L2.56329 6.57662L2.39907 6.46247ZM3.32094 5.0484L3.1497 4.94508L3.14969 4.94509L3.32094 5.0484ZM4.60219 3.47028L4.467 3.32289L4.46699 3.3229L4.60219 3.47028ZM6.31313 2.35309L6.23233 2.17014L6.23229 2.17016L6.31313 2.35309ZM7.89907 1.65778L7.97901 1.84111L7.97901 1.8411L7.89907 1.65778ZM9.47719 0.946841L9.39264 0.765593L9.39262 0.765601L9.47719 0.946841ZM10.3991 0.634341L10.4433 0.829381L10.5206 0.811846L10.5649 0.746157L10.3991 0.634341ZM11.0241 0.220278L11.0637 0.416318L11.0791 0.413205L11.0938 0.407721L11.0241 0.220278ZM11.1413 0.173403L11.0959 -0.021398L11.0955 -0.0213027L11.1413 0.173403ZM11.5944 0.126528L11.5848 -0.0732435L11.5848 -0.0732413L11.5944 0.126528ZM22.2594 4.70563L22.3183 4.51451L22.1515 4.87401L22.2594 4.70563ZM22.9147 5.12653L22.8072 5.29518L22.8852 5.34494L22.9737 5.31762L22.9147 5.12653ZM22.9928 5.10309L22.9492 4.90789L22.9488 4.90799L22.9928 5.10309ZM23.1266 5.08258L23.1446 5.28177L23.7491 5.22725L23.2306 4.91173L23.1266 5.08258ZM22.3522 4.7359L22.4102 4.54449L22.4101 4.54448L22.3522 4.7359ZM12.1569 0.110903L12.1577 0.310902C12.6103 0.308938 13.1368 0.330567 13.7285 0.372894L13.7428 0.173403L13.7571 -0.026087C13.1589 -0.0688737 12.6218 -0.0911153 12.156 -0.0890947L12.1569 0.110903ZM13.7428 0.173403L13.7285 0.372892C13.8826 0.383929 14.0063 0.398709 14.1724 0.411843L14.1881 0.212466L14.2039 0.0130888C14.0708 0.00256203 13.8978 -0.0160093 13.7571 -0.0260854L13.7428 0.173403ZM14.1881 0.212466L14.1946 0.41236C14.2702 0.409894 14.3356 0.415242 14.3996 0.430471L14.4459 0.235903L14.4922 0.0413355C14.3867 0.0162306 14.2848 0.00920471 14.1816 0.0125723L14.1881 0.212466ZM14.4459 0.235903L14.4293 0.435213C14.7984 0.465959 15.1677 0.490979 15.5432 0.528654L15.5631 0.329653L15.5831 0.130653C15.2035 0.0925635 14.8232 0.0666369 14.4625 0.0365939L14.4459 0.235903ZM15.5631 0.329653L15.5432 0.528655C16.1536 0.589892 16.7749 0.646794 17.4054 0.700799L17.4225 0.501528L17.4396 0.302258C16.8106 0.248383 16.1912 0.191658 15.5831 0.130652L15.5631 0.329653ZM17.4225 0.501528L17.4054 0.700796C18.1799 0.767261 18.9017 1.03066 19.5612 1.47238L19.6725 1.30622L19.7838 1.14005C19.0716 0.66297 18.2854 0.374851 17.4396 0.302261L17.4225 0.501528ZM19.6725 1.30622L19.5611 1.47231C20.0806 1.8208 20.611 2.11733 21.1434 2.36284L21.2272 2.18122L21.3109 1.9996C20.798 1.76306 20.2861 1.47694 19.7839 1.14012L19.6725 1.30622ZM21.2272 2.18122L21.1435 2.36284C21.6807 2.61055 22.2569 2.82698 22.8724 3.01327L22.9303 2.82184L22.9883 2.63042C22.3887 2.44895 21.8299 2.23887 21.3109 1.99959L21.2272 2.18122ZM22.9303 2.82184L22.8724 3.01327C23.6355 3.24423 24.3139 3.63256 24.896 4.1717L25.0319 4.02497L25.1678 3.87824C24.5409 3.29764 23.8092 2.87887 22.9883 2.63042L22.9303 2.82184ZM25.0319 4.02497L24.8959 4.17164C25.4961 4.72799 25.9176 5.41353 26.1526 6.20677L26.3444 6.14997L26.5361 6.09316C26.2812 5.23263 25.8219 4.48454 25.1678 3.87829L25.0319 4.02497ZM26.3444 6.14997L26.1526 6.20672C26.3062 6.7259 26.5827 7.16533 26.9904 7.53951L27.1256 7.39215L27.2609 7.2448C26.9052 6.91842 26.6687 6.54114 26.5362 6.09321L26.3444 6.14997ZM27.1256 7.39215L26.9904 7.53951C27.6549 8.14926 28.021 8.92576 28.0665 9.82416L28.2663 9.81403L28.466 9.8039C28.4151 8.80016 28.0023 7.92523 27.2609 7.2448L27.1256 7.39215ZM28.2663 9.81403L28.0665 9.82413C28.0996 10.4791 28.1709 11.1115 28.2721 11.7217L28.4694 11.689L28.6667 11.6563C28.5679 11.0602 28.4983 10.4429 28.466 9.80393L28.2663 9.81403ZM28.4694 11.689L28.2721 11.7218C28.3779 12.3593 28.4933 13.0125 28.6165 13.6711L28.8131 13.6343L29.0097 13.5976C28.887 12.9416 28.772 12.291 28.6667 11.6563L28.4694 11.689ZM28.8131 13.6343L28.6165 13.671C28.7587 14.4325 28.7549 15.1993 28.6089 15.964L28.8053 16.0015L29.0018 16.039C29.157 15.2262 29.1612 14.4091 29.0097 13.5976L28.8131 13.6343ZM28.8053 16.0015L28.6089 15.964C28.479 16.6438 28.3381 17.321 28.181 17.9868L28.3756 18.0328L28.5703 18.0787C28.729 17.406 28.8711 16.723 29.0018 16.0391L28.8053 16.0015ZM28.3756 18.0328L28.181 17.9869C28.0327 18.6154 27.9068 19.274 27.8104 19.958L28.0084 19.9859L28.2065 20.0138C28.3011 19.3424 28.4248 18.6957 28.5703 18.0787L28.3756 18.0328ZM28.0084 19.9859L27.8104 19.9579C27.681 20.8714 27.2325 21.6267 26.4968 22.1861L26.6178 22.3453L26.7389 22.5045C27.5572 21.8823 28.0621 21.0334 28.2065 20.014L28.0084 19.9859ZM26.6178 22.3453L26.4968 22.1861C25.9471 22.6039 25.4264 23.0406 24.9364 23.4864L25.0709 23.6343L25.2055 23.7823C25.6875 23.3438 26.1992 22.9147 26.7388 22.5045L26.6178 22.3453ZM25.0709 23.6343L24.9363 23.4864C24.4422 23.9361 23.9569 24.4082 23.4816 24.9019L23.6256 25.0406L23.7697 25.1793C24.2391 24.6918 24.718 24.2259 25.2055 23.7823L25.0709 23.6343ZM23.6256 25.0406L23.4815 24.9019C22.8926 25.5136 22.1807 25.9408 21.3612 26.1682L21.4147 26.3609L21.4682 26.5536C22.3573 26.3069 23.1317 25.842 23.7697 25.1793L23.6256 25.0406ZM21.4147 26.3609L21.3612 26.1682C20.701 26.3513 20.0638 26.5537 19.4537 26.7831L19.5241 26.9703L19.5944 27.1575C20.1914 26.9331 20.8171 26.7342 21.4682 26.5536L21.4147 26.3609ZM19.5241 26.9703L19.4537 26.7831C18.7591 27.0442 18.043 27.2193 17.3062 27.3028L17.3288 27.5015L17.3513 27.7003C18.1217 27.6129 18.8699 27.4298 19.5944 27.1575L19.5241 26.9703ZM17.3288 27.5015L17.3062 27.3028C16.5921 27.3837 15.878 27.408 15.167 27.3721L15.1569 27.5718L15.1468 27.7716C15.8805 27.8086 16.6164 27.7835 17.3513 27.7003L17.3288 27.5015ZM15.1569 27.5718L15.167 27.3721C14.5829 27.3424 13.9757 27.3973 13.3517 27.5494L13.3991 27.7437L13.4464 27.938C14.0336 27.7949 14.602 27.7439 15.1467 27.7716L15.1569 27.5718ZM13.3991 27.7437L13.3516 27.5494C12.4516 27.7693 11.5815 27.6364 10.8027 27.1449L10.6959 27.314L10.5892 27.4832C11.4626 28.0343 12.4444 28.1828 13.4465 27.938L13.3991 27.7437ZM10.6959 27.314L10.8027 27.1449C10.254 26.7987 9.69526 26.5122 9.12775 26.2917L9.05532 26.4781L8.98288 26.6645C9.524 26.8748 10.0599 27.1492 10.5892 27.4832L10.6959 27.314ZM9.05532 26.4781L9.12779 26.2917C8.42482 26.0183 7.78075 25.6351 7.20102 25.1387L7.07094 25.2906L6.94086 25.4425C7.55517 25.9685 8.23827 26.375 8.98284 26.6645L9.05532 26.4781ZM7.07094 25.2906L7.20108 25.1387C6.78608 24.7831 6.30331 24.532 5.74409 24.3933L5.69594 24.5875L5.64779 24.7816C6.1472 24.9054 6.57366 25.1279 6.9408 25.4425L7.07094 25.2906ZM5.69594 24.5875L5.7439 24.3933C4.84716 24.1718 4.1503 23.6347 3.71612 22.8214L3.53969 22.9156L3.36326 23.0098C3.85157 23.9245 4.64259 24.5333 5.64798 24.7816L5.69594 24.5875ZM3.53969 22.9156L3.71605 22.8213C3.42583 22.2786 3.07789 21.815 2.67889 21.4282L2.53969 21.5718L2.40049 21.7154C2.76782 22.0715 3.09132 22.5013 3.36333 23.0099L3.53969 22.9156ZM2.53969 21.5718L2.67895 21.4283C2.17154 20.9361 1.7304 20.3862 1.34922 19.785L1.18032 19.8922L1.01141 19.9993C1.40837 20.6253 1.8691 21.2 2.40043 21.7154L2.53969 21.5718ZM1.18032 19.8922L1.34924 19.7851C0.966946 19.1819 0.656323 18.5386 0.424279 17.8588L0.235003 17.9234L0.0457266 17.988C0.288166 18.6982 0.612597 19.37 1.01139 19.9992L1.18032 19.8922ZM0.235003 17.9234L0.424294 17.8588C0.16259 17.0916 0.129393 16.3046 0.327375 15.5192L0.13344 15.4703L-0.0604938 15.4214C-0.277459 16.2822 -0.240819 17.1479 0.0457117 17.988L0.235003 17.9234ZM0.13344 15.4703L0.327383 15.5191C0.470912 14.9493 0.538089 14.3958 0.528723 13.8574L0.328753 13.8609L0.128783 13.8644C0.137482 14.3644 0.0752121 14.8826 -0.0605019 15.4214L0.13344 15.4703ZM0.328753 13.8609L0.528721 13.8573C0.516122 13.1524 0.617399 12.4606 0.838722 11.7994L0.649065 11.7359L0.459408 11.6724C0.222927 12.3789 0.115411 13.1162 0.128785 13.8645L0.328753 13.8609ZM0.649065 11.7359L0.83878 11.7992C0.992808 11.3377 1.05172 10.8477 1.00452 10.3197L0.805315 10.3375L0.60611 10.3553C0.648549 10.8301 0.595463 11.2647 0.459351 11.6726L0.649065 11.7359ZM0.805315 10.3375L1.00451 10.3195C0.931733 9.51263 1.11228 8.75062 1.55085 8.07971L1.38344 7.97028L1.21604 7.86085C0.726079 8.61036 0.525618 9.46284 0.606124 10.3554L0.805315 10.3375ZM1.38344 7.97028L1.55084 8.07972C1.89078 7.55974 2.22861 7.05804 2.56328 6.57663L2.39907 6.46247L2.23485 6.3483C1.89786 6.83305 1.5579 7.33792 1.21604 7.86084L1.38344 7.97028ZM2.39907 6.46247L2.56329 6.57662C2.88292 6.1168 3.19567 5.64322 3.49219 5.15172L3.32094 5.0484L3.14969 4.94509C2.85867 5.42748 2.55088 5.89368 2.23485 6.34831L2.39907 6.46247ZM3.32094 5.0484L3.49218 5.15173C3.83693 4.58039 4.24942 4.06531 4.73739 3.61766L4.60219 3.47028L4.46699 3.3229C3.94877 3.7983 3.51259 4.34367 3.1497 4.94508L3.32094 5.0484ZM4.60219 3.47028L4.73738 3.61767C5.23176 3.16423 5.7867 2.80437 6.39396 2.53603L6.31313 2.35309L6.23229 2.17016C5.58591 2.45578 4.99411 2.83943 4.467 3.32289L4.60219 3.47028ZM6.31313 2.35309L6.39393 2.53604C6.92029 2.30357 7.45094 2.07138 7.97901 1.84111L7.89907 1.65778L7.81912 1.47445C7.29078 1.70484 6.75949 1.93731 6.23233 2.17014L6.31313 2.35309ZM7.89907 1.65778L7.97901 1.8411C8.49815 1.61471 9.02651 1.37784 9.56176 1.12808L9.47719 0.946841L9.39262 0.765601C8.86094 1.01369 8.33571 1.24916 7.81912 1.47445L7.89907 1.65778ZM9.47719 0.946841L9.56174 1.12809C9.84667 0.995173 10.1419 0.897796 10.4433 0.829381L10.3991 0.634341L10.3548 0.439301C10.0284 0.513389 9.70581 0.619497 9.39264 0.765593L9.47719 0.946841ZM10.3991 0.634341L10.5649 0.746157C10.6805 0.574662 10.855 0.458478 11.0637 0.416318L11.0241 0.220278L10.9845 0.0242384C10.6747 0.0868229 10.4087 0.262307 10.2332 0.522525L10.3991 0.634341ZM11.0241 0.220278L11.0938 0.407721C11.1094 0.401927 11.1235 0.395781 11.1348 0.390713C11.1405 0.388162 11.1461 0.385615 11.1508 0.383439C11.1558 0.381152 11.16 0.379246 11.164 0.377417C11.1722 0.373746 11.1777 0.371442 11.1819 0.369845C11.1861 0.368289 11.1875 0.367987 11.187 0.36811L11.1413 0.173403L11.0955 -0.0213027C11.0557 -0.0119434 11.0214 0.00297535 11 0.0125979C10.9729 0.0247876 10.9653 0.0287511 10.9543 0.0328361L11.0241 0.220278ZM11.1413 0.173403L11.1866 0.368204C11.3144 0.33846 11.4711 0.332683 11.604 0.326298L11.5944 0.126528L11.5848 -0.0732413C11.4658 -0.0675244 11.2672 -0.0612178 11.0959 -0.0213975L11.1413 0.173403ZM11.5944 0.126528L11.6039 0.3263C11.7542 0.319116 11.9421 0.311883 12.1578 0.310901L12.1569 0.110903L12.156 -0.0890945C11.9324 -0.088077 11.7383 -0.0805814 11.5848 -0.0732435L11.5944 0.126528ZM22.2594 4.70563L22.1515 4.87401C22.3684 5.01303 22.5885 5.15574 22.8072 5.29518L22.9147 5.12653L23.0222 4.95788C22.8033 4.81831 22.5874 4.67831 22.3673 4.53725L22.2594 4.70563ZM22.9147 5.12653L22.9737 5.31762C23.0132 5.30544 23.0197 5.30205 23.0368 5.29819L22.9928 5.10309L22.9488 4.90799C22.9119 4.91632 22.8671 4.9319 22.8557 4.93543L22.9147 5.12653ZM22.9928 5.10309L23.0364 5.29829C23.0727 5.29019 23.1087 5.28501 23.1446 5.28177L23.1266 5.08258L23.1086 4.88339C23.0585 4.88791 23.0051 4.89542 22.9492 4.90789L22.9928 5.10309ZM23.1266 5.08258L23.2306 4.91173C22.9778 4.7579 22.7056 4.63394 22.4102 4.54449L22.3522 4.7359L22.2942 4.92732C22.5563 5.00667 22.7976 5.11653 23.0226 5.25344L23.1266 5.08258ZM22.3522 4.7359L22.4101 4.54448C22.3979 4.54079 22.3853 4.53656 22.3696 4.53128C22.3548 4.52631 22.3368 4.52019 22.3183 4.51451L22.2594 4.70563L22.2005 4.89675C22.213 4.90061 22.2258 4.90493 22.2419 4.91036C22.2571 4.91547 22.2753 4.9216 22.2943 4.92733L22.3522 4.7359Z" mask="url(#path-1-inside-1_2020_1209)"/></clipPath><radialGradient id="paint0_radial_2020_1209" cx="0" cy="0" r="1" gradientUnits="userSpaceOnUse" gradientTransform="translate(14.4604 13.9814) rotate(90) scale(13.8706 14.4604)">
<stop stop-color="#DAAD60"/>
<stop offset="1" stop-color="#C69D57"/>
</radialGradient>
<linearGradient id="paint1_diamond_2020_1209" x1="0" y1="0" x2="500" y2="500" gradientUnits="userSpaceOnUse">
<stop offset="0.913597" stop-color="white" stop-opacity="0"/>
<stop offset="0.921488" stop-opacity="0.75"/>
</linearGradient>
</defs>
</svg>
