<svg width="20" height="25" viewBox="0 0 25 29" fill="none" xmlns="http://www.w3.org/2000/svg">
    <path fill-rule="evenodd" clip-rule="evenodd" d="M2.875 0.500002C2.17881 0.500002 1.51113 0.776563 1.01884 1.26885C0.526562 1.76113 0.25 2.42881 0.25 3.125V25.875C0.25 26.5712 0.526562 27.2389 1.01884 27.7312C1.51113 28.2234 2.17881 28.5 2.875 28.5H22.125C22.8212 28.5 23.4889 28.2234 23.9812 27.7312C24.4734 27.2389 24.75 26.5712 24.75 25.875V10.3368C24.7494 9.64079 24.4724 8.97356 23.98 8.48175L16.77 1.26825C16.5259 1.02433 16.2361 0.830919 15.9172 0.699094C15.5983 0.56727 15.2566 0.499615 14.9115 0.500002H2.875ZM6.8125 15.375C6.4644 15.375 6.13056 15.5133 5.88442 15.7594C5.63828 16.0056 5.5 16.3394 5.5 16.6875C5.5 17.0356 5.63828 17.3694 5.88442 17.6156C6.13056 17.8617 6.4644 18 6.8125 18H18.1875C18.5356 18 18.8694 17.8617 19.1156 17.6156C19.3617 17.3694 19.5 17.0356 19.5 16.6875C19.5 16.3394 19.3617 16.0056 19.1156 15.7594C18.8694 15.5133 18.5356 15.375 18.1875 15.375H6.8125ZM6.8125 20.625C6.4644 20.625 6.13056 20.7633 5.88442 21.0094C5.63828 21.2556 5.5 21.5894 5.5 21.9375C5.5 22.2856 5.63828 22.6194 5.88442 22.8656C6.13056 23.1117 6.4644 23.25 6.8125 23.25H18.1875C18.5356 23.25 18.8694 23.1117 19.1156 22.8656C19.3617 22.6194 19.5 22.2856 19.5 21.9375C19.5 21.5894 19.3617 21.2556 19.1156 21.0094C18.8694 20.7633 18.5356 20.625 18.1875 20.625H6.8125Z" fill="#AD7757"/>
</svg>