<svg preserveAspectRatio="none" width="100%" height="100%" overflow="visible" style="display: block;" viewBox="0 0 195.373 68.5882" fill="none" xmlns="http://www.w3.org/2000/svg">
<g id="flag-standalone-wtransparent 1" clip-path="url(#clip0_116_21)">
<path id="path1" d="M41.9818 0.0342184C28.1604 -0.41513 21.6335 3.72387 20.8756 4.24017C20.8213 4.27715 20.7865 4.32474 20.7602 4.38505L11.3286 26.0555L6.47682 43.1545C6.40179 43.4188 6.6302 43.6706 6.90049 43.6255C19.4324 41.5373 29.2899 43.4422 49.7717 49.1201C70.5718 54.8864 88.1873 62.5112 120.715 62.5112C150.87 62.5112 189.278 27.1831 194.72 22.0294C194.965 21.7978 194.774 21.4141 194.437 21.4185C186.335 21.5265 179.099 21.4431 177.024 21.4142C176.749 21.4104 176.576 21.1181 176.702 20.8725L184.682 5.28492C184.823 5.00874 184.382 4.58853 184.119 4.75199C176.18 9.68482 132 34.3575 88.1872 13.2738C67.8943 3.50866 52.7318 0.383712 41.9818 0.0342184ZM33.8118 9.69473C35.4333 9.7814 37.1909 11.7454 37.3701 16.7663C37.3419 18.0566 36.7008 19.4357 36.9051 19.9704C36.9674 20.181 42.2002 22.1211 42.2002 22.1211C42.2002 22.1211 44.0617 17.7731 45.2079 15.7878C47.3522 10.3948 52.0915 13.4419 50.7068 16.7794C49.7883 21.9948 46.4579 31.8578 45.7433 34.2199C44.1376 38.8129 38.3318 39.5594 40.3234 33.3418C40.8453 30.9448 41.3558 28.0474 41.3558 28.0474L35.016 25.6085C35.016 25.6085 33.7845 28.0767 32.5872 30.3517C30.5673 34.4717 23.5129 36.0899 27.6491 26.1734C29.6405 19.9559 30.5884 15.1442 31.0819 12.3434C31.3722 10.6954 32.5506 9.62731 33.8118 9.69473ZM63.5944 15.6582C63.6841 15.6615 63.7717 15.6687 63.8578 15.6778C64.4521 15.7272 65.2601 16.9399 65.8782 18.1052C67.9017 25.7795 64.2754 39.8943 63.6343 40.8422C61.4273 44.42 57.5547 43.7434 59.0256 39.8783C59.7127 37.5302 60.4489 35.3957 60.4489 35.3957L55.436 34.8336C51.497 42.5133 47.9556 39.2979 49.9966 35.9803C52.1799 32.0938 56.8311 23.585 59.014 19.2948C60.5266 16.2726 62.2499 15.6083 63.5944 15.6582ZM79.9272 21.6224C83.9886 21.5139 85.1456 25.2986 84.5324 27.0325C84.1818 28.0524 82.8019 29.2109 80.8348 26.6882C77.5569 25.0401 75.501 31.7753 74.5669 35.167C74.1702 37.1838 73.8447 40.9339 75.671 42.4112C76.7482 43.2927 78.0815 43.1311 79.0647 43.1814C79.8369 43.2787 81.3835 46.2983 76.8673 47.6611C76.0947 47.5635 72.1163 47.5512 70.4761 43.7005C68.6713 39.7068 69.8152 33.8471 69.8152 33.8471C69.8152 33.8471 72.1955 21.7479 79.0763 21.6981C79.3732 21.6545 79.6565 21.6296 79.9272 21.6224ZM161.108 21.993C161.662 21.9958 162.178 22.0839 162.661 22.2587C163.79 22.9549 164.52 24.8683 164.215 26.5156C163.863 27.9478 163.276 29.1169 163.276 29.1169C165.229 29.3144 166.658 31.2695 167.029 33.8289C167.401 36.3883 164.998 38.7971 160.531 40.2882C159.026 40.7135 157.427 40.7089 157.356 40.1833C157.308 39.1556 153.515 26.9124 153.515 26.9124C153.396 26.1713 152.997 25.3584 154.971 24.2419C157.44 22.7444 159.446 21.9843 161.108 21.993ZM62.3837 22.1371C62.3089 22.1238 62.224 22.1436 62.1276 22.2012L57.357 29.1657L62.2988 30.0124C62.2988 30.0124 63.5045 22.3374 62.3837 22.1371ZM90.6458 25.3478C92.0988 25.3248 93.842 27.2403 93.6027 29.596C93.6978 32.8349 92.7452 37.1109 92.7452 37.1109C92.7452 37.1109 93.2103 36.0246 97.2162 32.6327C101.222 29.2412 102.156 30.6867 101.644 32.7652C101.156 34.7498 96.0322 39.863 96.0322 39.863C96.7547 40.1489 97.502 42.35 97.502 42.35C98.6453 45.3556 99.2527 47.7217 99.4165 49.4718C99.3496 54.5775 94.7579 53.0977 94.4072 50.4962C94.0793 47.8003 92.6545 41.5076 92.6545 41.5076L91.0237 41.6918C91.0237 41.6918 90.0232 44.9506 89.1151 46.2247C85.3666 51.7919 81.9635 49.9141 83.6394 46.7278C83.8489 46.279 85.6182 43.1174 86.3395 41.3933C89.3648 34.3349 87.848 30.4295 89.0578 26.7217C89.3849 25.7697 89.9853 25.3583 90.6458 25.3478ZM159.917 25.3478C158.901 25.4015 157.566 25.9932 156.336 26.4195L157.985 30.2949C157.985 30.2949 161.982 28.6826 161.511 26.5309C161.304 25.5897 160.707 25.3061 159.917 25.3478ZM148.097 26.8389C148.962 26.8327 150.019 27.8363 150.662 29.604C151.615 33.1059 152.608 38.7631 152.11 40.7745C151.636 42.6897 151.137 45.1089 148.664 45.7005C148.021 45.8425 142.669 46.6158 140.787 40.7388C138.975 34.5745 138.404 32.8001 138.188 30.8104C137.973 28.8207 139.994 27.6045 141.185 29.7409C142.089 31.397 143.14 38.5897 144.617 41.6139C145.427 42.8385 147.092 43.0592 147.877 41.9357C148.804 40.2371 148.135 35.9937 147.562 32.589C147.157 30.9582 146.69 29.7116 146.713 28.801C146.868 27.4595 147.424 26.8437 148.097 26.8389ZM127.962 30.5672C128.752 30.6026 129.622 31.6692 130.089 34.554C131.318 38.5306 131.005 46.2197 131.595 46.9316C132.185 47.6436 136.576 46.6502 137.765 46.2487C138.953 45.8472 141.144 46.3743 140.649 47.5694C140.248 48.7887 139.115 48.9042 138.879 49.0473C138.643 49.1901 128.718 52.1428 128.35 50.1773C127.981 48.2113 127.958 47.3068 127.586 43.959C127.215 40.6108 126.312 36.026 126.286 33.2734C126.273 31.8113 127.066 30.5271 127.962 30.5672ZM118.384 31.6848C119.781 31.7027 121.021 32.5231 122.069 34.008C123.012 35.8961 122.495 38.0213 119.856 36.104C119.691 35.9586 118.725 35.3992 117.783 35.9759C117.548 36.1202 117.101 36.3125 116.63 37.0119C115.053 39.3749 115.526 43.6051 116.399 45.7828C117.72 49.0008 119.298 49.9246 121.395 49.134C123.49 48.343 123.585 48.7775 123.961 48.8755C124.432 48.9982 125.636 52.6994 120.525 53.5292C115.414 54.3586 112.421 50.1925 112.181 42.9419C112.061 38.0844 113.142 34.8743 114.861 33.1642C116.118 32.1426 117.298 31.6708 118.384 31.6848ZM162.113 31.9229C160.453 31.9641 158.551 33.2829 158.551 33.2829C158.551 33.2829 159.682 38.0402 159.635 37.8252C159.611 37.5146 165.463 36.3447 164.215 33.2829C163.786 32.2305 162.982 31.9013 162.113 31.9229Z" fill="var(--fill-0, white)"/>
<path id="path10" d="M20.9019 2.59669C20.9019 2.59669 21.287 2.15213 22.0146 2.24477C22.7423 2.3374 22.5628 3.18005 22.2887 3.72907C22.0146 4.27812 15.1109 18.4845 10.1145 34.509C5.11817 50.5335 5.50018 67.6563 5.50018 68.5882H0.00365375C-0.0712642 66.9108 0.970051 50.7892 6.47084 34.509C11.9717 18.2286 20.1729 3.16252 20.9019 2.59669Z" fill="var(--fill-0, white)"/>
</g>
<defs>
<clipPath id="clip0_116_21">
<rect width="195.373" height="68.5882" fill="white"/>
</clipPath>
</defs>
</svg>
