<svg preserveAspectRatio="xMinYMin meet" overflow="visible" style="display: block;" viewBox="0 0 2338 1418.09" fill="none" xmlns="http://www.w3.org/2000/svg">
<g id="ISS">
<path id="Polygon 132" d="M490 901.092L771.5 905.092L767.5 987.592L483.5 979.592L490 901.092Z" fill="var(--fill-0, #A7B6CC)"/>
<path id="Ellipse 12" d="M495 647.592C502.178 712.194 477.161 793.592 420 793.592C373.5 817.092 315.5 815.335 315.5 762.592C315.5 709.848 263.339 513.592 320.5 513.592C377.661 513.592 489 593.592 495 647.592Z" fill="var(--fill-0, #AB3124)"/>
<path id="Polygon 134" d="M0 516.092L351.5 521.592L415.5 794.092L0 789.592V516.092Z" fill="var(--fill-0, #AB3124)"/>
<path id="Polygon 131" d="M0 790.092H416.5L506 945.092L497 1418.09H0V790.092Z" fill="var(--fill-0, #D9E3EF)"/>
<ellipse id="Ellipse 11" cx="414" cy="927.092" rx="93" ry="137" fill="var(--fill-0, #D9E3EF)"/>
<path id="Polygon 136" d="M524 347.592L770 351.092L758.134 430.592L491.134 427.092L524 347.592Z" fill="var(--fill-0, #A7B6CC)"/>
<path id="Polygon 133" d="M749.587 231.092L2338 265.592L2326.45 1136.09L731 1097.59L749.587 231.092Z" fill="var(--fill-0, #B9C6D9)"/>
<path id="Ellipse 13" d="M539.5 435.092C537.52 488.555 502 541.592 429 537.092C378.19 537.092 358 493.26 358 446.592C358 399.923 399.19 362.092 450 362.092C500.81 362.092 541.5 381.092 539.5 435.092Z" fill="var(--fill-0, #D9E3EF)"/>
<path id="Polygon 135" d="M0 0H558L539.5 432.092L428.5 537.092L0 528.592V0Z" fill="var(--fill-0, #D9E3EF)"/>
</g>
</svg>
