<?xml version="1.0" encoding="UTF-8"?>
<svg version="1.1" xmlns="http://www.w3.org/2000/svg" width="86" height="91" viewBox="0 0 486 491" preserveAspectRatio="xMidYMid meet">
    <path d="M0 0 C8.70082409 6.34174898 16.21655896 14.97586021 18.44921875 25.78515625 C18.72167856 29.489858 18.72646243 33.19649097 18.76171875 36.91015625 C18.79072266 37.9053125 18.81972656 38.90046875 18.84960938 39.92578125 C18.9398961 50.56572483 15.50726579 58.86528451 8.44921875 66.78515625 C8.0318042 67.27975342 7.61438965 67.77435059 7.18432617 68.28393555 C1.59763407 74.43359364 -5.47542454 78.17237568 -12.61328125 82.22265625 C-13.86060695 82.94104962 -15.10735552 83.66044601 -16.35351562 84.38085938 C-19.45766937 86.17189592 -22.56946858 87.94911536 -25.68423462 89.72161865 C-27.56370482 90.79251996 -29.44076458 91.8675319 -31.31713867 92.94384766 C-36.79048228 96.08217131 -42.26956169 99.20538022 -47.80712891 102.22949219 C-55.61445944 106.49736794 -63.29686109 110.96087302 -70.94488525 115.50756836 C-72.67742966 116.53613487 -74.41240549 117.56048827 -76.14794922 118.58398438 C-81.85714357 121.9570445 -87.5203769 125.37998207 -93.125 128.92578125 C-111.61205698 140.4673457 -111.61205698 140.4673457 -121.74609375 139.66796875 C-125.15818784 138.59396699 -127.67806994 136.89067463 -130.55078125 134.78515625 C-138.44296814 149.71116529 -144.92526219 165.27042787 -151.55078125 180.78515625 C-151.82998917 181.40809067 -152.10919708 182.03102509 -152.39686584 182.6728363 C-154.6204758 187.63387985 -154.6204758 187.63387985 -153.55078125 192.78515625 C-152.22471701 195.70218865 -150.75270432 198.52445465 -149.23828125 201.34765625 C-148.79967773 202.17467041 -148.36107422 203.00168457 -147.90917969 203.85375977 C-144.55931848 210.09278823 -140.977117 216.17157678 -137.30078125 222.22265625 C-123.95264468 244.26421615 -117.11852547 265.06069358 -123.296875 290.90625 C-131.54017049 318.49381224 -153.53330306 333.42791808 -177.55078125 346.78515625 C-180.49226702 348.29995365 -183.45616933 349.74204373 -186.4375 351.17578125 C-191.43024571 353.75672382 -196.19502635 356.70685201 -200.99902344 359.62036133 C-208.7669965 364.3296771 -216.58773316 368.94385273 -224.42578125 373.53515625 C-225.32500809 374.06274033 -225.32500809 374.06274033 -226.24240112 374.60098267 C-238.13043145 381.57554641 -250.05585448 388.46960703 -262.17578125 395.03515625 C-269.7005395 399.1455653 -277.08539714 403.44401961 -284.42089844 407.88183594 C-303.1563776 419.21244291 -322.01542738 430.34397176 -341.35644531 440.61474609 C-343.26076113 441.63046595 -345.15302474 442.66872005 -347.04296875 443.7109375 C-363.94767386 452.74621092 -383.41698259 454.74380443 -401.93188477 449.69238281 C-413.1506861 446.25726323 -422.82985059 440.63399384 -431.55078125 432.78515625 C-432.22367187 432.21667969 -432.8965625 431.64820313 -433.58984375 431.0625 C-444.16711849 421.47552787 -450.58970238 407.11389902 -457.60546875 394.87890625 C-459.70203199 391.23320777 -461.83747431 387.61320434 -463.99609375 384.00390625 C-464.86754028 382.54428467 -464.86754028 382.54428467 -465.7565918 381.05517578 C-466.8790115 379.17872677 -468.00524435 377.30455129 -469.13598633 375.43310547 C-478.02097956 360.55326792 -478.02097956 360.55326792 -477.55078125 354.59765625 C-476.20884416 349.4815211 -474.2435245 346.01677127 -469.9230957 342.87329102 C-468.93011475 342.32987061 -467.93713379 341.7864502 -466.9140625 341.2265625 C-465.79161133 340.60080322 -464.66916016 339.97504395 -463.51269531 339.33032227 C-462.62088562 338.84585129 -462.62088562 338.84585129 -461.71105957 338.35159302 C-458.53922776 336.62827018 -455.39311202 334.85881815 -452.2421875 333.09765625 C-451.27676529 332.56084984 -451.27676529 332.56084984 -450.2918396 332.01319885 C-443.87323875 328.43515464 -437.58364968 324.65913362 -431.30078125 320.84765625 C-421.47091878 314.90846252 -411.55434014 309.18436295 -401.49072266 303.65283203 C-386.96737393 295.66681352 -372.71098509 287.26676337 -358.48887634 278.75712585 C-355.57367648 277.01367222 -352.65659855 275.27338619 -349.73828125 273.53515625 C-348.86772598 273.01657547 -348.86772598 273.01657547 -347.97958374 272.48751831 C-340.73787288 268.1811129 -333.45202687 264.06194162 -325.95947266 260.21240234 C-318.58991886 256.37666125 -311.52983327 252.03198775 -304.42602539 247.72998047 C-292.57480833 240.5614656 -280.56991981 233.66715219 -268.55078125 226.78515625 C-267.23817581 226.03143359 -265.92565762 225.27755894 -264.61328125 224.5234375 C-259.61887378 221.66005726 -254.61460146 218.81831722 -249.5859375 216.015625 C-237.39596755 209.20257125 -225.38056207 202.15559435 -213.50830078 194.80517578 C-207.88576052 191.33525411 -202.27155837 188.07808004 -196.31494141 185.21557617 C-187.37403634 180.80798091 -184.12902832 175.28152465 -180.56835938 166.28564453 C-178.98751942 162.40105652 -177.20579806 158.61255887 -175.44458008 154.80712891 C-173.99609785 151.67704745 -172.56772832 148.53831279 -171.140625 145.3984375 C-169.20116373 141.16123493 -167.18144101 136.99145737 -165.05078125 132.84765625 C-161.68580886 126.20843377 -158.60120317 119.44907604 -155.55078125 112.66015625 C-155.04482422 111.55551025 -154.53886719 110.45086426 -154.01757812 109.31274414 C-153.55416016 108.26981201 -153.09074219 107.22687988 -152.61328125 106.15234375 C-152.19175781 105.21503418 -151.77023437 104.27772461 -151.3359375 103.31201172 C-150.46835658 100.51989029 -150.47088717 99.45909834 -151.55078125 96.78515625 C-152.26606288 95.44550571 -153.03211132 94.13221996 -153.8359375 92.84375 C-163.01176691 77.65276438 -163.01176691 77.65276438 -162.1328125 69.9765625 C-160.15417873 62.52680718 -154.71039384 59.62420085 -148.55078125 55.78515625 C-145.19261153 53.85866797 -141.78250132 52.03806167 -138.36328125 50.22265625 C-125.76695287 43.43862913 -113.50280365 36.14426169 -101.22949219 28.796875 C-97.73474787 26.70572527 -94.23759398 24.61865202 -90.73828125 22.53515625 C-90.16087189 22.19124847 -89.58346252 21.8473407 -88.98855591 21.49301147 C-81.52386938 17.05423328 -74.01429128 12.77853173 -66.28710938 8.81469727 C-62.29853059 6.75802395 -58.46612245 4.54582014 -54.65942383 2.16943359 C-37.04069586 -8.80616744 -18.14136166 -11.59110549 0 0 Z " fill="#010101" transform="translate(481.55078125,28.21484375)"/>
    <path d="M0 0 C8.42591111 6.47757731 18.64510244 16.07110532 20.56640625 26.98828125 C20.7487015 31.33396477 20.36346102 34.43148114 18.625 38.4375 C11.70165412 45.69857007 1.99552672 49.9782013 -6.765625 54.625 C-12.72430037 57.82071416 -18.38784541 61.26079606 -23.9375 65.125 C-23.48947021 65.88006836 -23.04144043 66.63513672 -22.57983398 67.41308594 C-20.88156758 70.27567173 -19.18370066 73.13849373 -17.48608398 76.00146484 C-16.75804818 77.22909542 -16.02986354 78.45663775 -15.30151367 79.68408203 C-14.77618042 80.56942627 -14.77618042 80.56942627 -14.24023438 81.47265625 C-13.89003738 82.06277496 -13.53984039 82.65289368 -13.17903137 83.26089478 C-12.47256411 84.45353273 -11.767561 85.64703917 -11.06401062 86.84140015 C-9.35699243 89.73913257 -7.6328668 92.62089776 -5.87231445 95.48681641 C-5.23898193 96.53015137 -4.60564941 97.57348633 -3.953125 98.6484375 C-3.38754883 99.56544434 -2.82197266 100.48245117 -2.23925781 101.42724609 C-0.0490752 105.96616543 0.04475886 110.23747005 -0.9375 115.125 C-2.96026089 119.57507396 -5.55230832 122.18886377 -9.94921875 124.4296875 C-14.2972942 125.95023255 -18.52983156 125.93879193 -22.890625 124.46484375 C-30.04334789 120.87293291 -33.36911575 113.63385182 -36.625 106.6875 C-39.55507435 100.65402498 -42.74044773 94.84162349 -46.25 89.125 C-46.67047607 88.4244751 -47.09095215 87.7239502 -47.52416992 87.00219727 C-48.57698205 85.32019598 -49.74825793 83.71347254 -50.9375 82.125 C-54.87293422 82.125 -56.45871405 83.54877288 -59.75 85.6875 C-64.46130149 88.69108027 -69.22305674 91.37397602 -74.25 93.8125 C-79.38302761 96.31042101 -84.13800495 99.04607865 -88.9375 102.125 C-94.16394641 103.8671488 -99.65850004 104.12847147 -104.6875 101.625 C-112.35027075 96.5400277 -115.85291063 85.77090936 -118.48388672 77.38305664 C-119.49585941 72.3455241 -119.24464011 67.10064173 -119.28759766 61.9753418 C-119.30397441 60.55297272 -119.33101526 59.1306794 -119.36962891 57.70874023 C-119.87032215 39.11125155 -113.69921483 23.07884548 -101.5390625 8.82421875 C-73.64970561 -20.11203592 -32.30632606 -22.2755507 0 0 Z " fill="#020202" transform="translate(118.9375,159.875)"/>
    <path d="M0 0 C2.04336312 1.45176085 3.92061181 2.98790637 5.80078125 4.64453125 C6.72697266 5.43150391 6.72697266 5.43150391 7.671875 6.234375 C15.73441646 13.60336451 19.63555256 23.68253282 20.13671875 34.4921875 C20.49503185 55.14440982 15.5748879 70.89883679 1.80078125 86.64453125 C1.24648438 87.28261719 0.6921875 87.92070312 0.12109375 88.578125 C-11.66745679 101.24094604 -28.41127279 107.37527519 -45.296875 108.9296875 C-63.02667394 109.47852381 -79.62414794 103.21856265 -93.0234375 91.7109375 C-96.6921423 88.22665592 -100.04627192 84.60144456 -103.19921875 80.64453125 C-103.72902344 79.99742187 -104.25882813 79.3503125 -104.8046875 78.68359375 C-108.21698118 74.0000534 -108.90438018 69.96243282 -108.625 64.19921875 C-107.85013458 59.55002624 -105.58763111 56.86465121 -102.13671875 53.83203125 C-98.03877485 51.32038822 -93.8742975 51.13253878 -89.19921875 51.64453125 C-87.84817476 52.11752731 -86.51331351 52.63940452 -85.19921875 53.20703125 C-79.92457378 55.39357367 -75.77581614 54.64003479 -70.44921875 52.58203125 C-65.89528814 48.660591 -64.38571694 44.76483804 -63.87109375 38.9140625 C-63.80652595 37.53287303 -63.74943924 36.15131679 -63.69921875 34.76953125 C-63.24712184 22.52770454 -58.45652664 12.36374609 -49.51171875 3.89453125 C-35.85803088 -7.41777276 -15.14792855 -9.33628989 0 0 Z " fill="#020202" transform="translate(265.19921875,93.35546875)"/>
    <path d="M0 0 C4.84115976 2.33092877 7.70301121 5.14098526 10 10 C10.77008689 15.27273777 10.65455898 19.55997025 8.4375 24.4375 C4.21446274 28.87710327 0.53418071 31.19208683 -5.5625 31.5 C-11.14613396 31.22461669 -14.34543317 28.7456439 -18.12890625 24.75390625 C-21.42993403 19.89539981 -20.92973602 14.64086108 -20 9 C-15.73383815 0.78419799 -8.73248228 -1.1053775 0 0 Z " fill="#0A0A0A" transform="translate(20,298)"/>
    <path d="M0 0 C3.5 1.8125 3.5 1.8125 6 4 C6.8971875 4.7734375 6.8971875 4.7734375 7.8125 5.5625 C10.65653932 9.00528444 10.33506329 13.26240211 10.2734375 17.49609375 C9.86002561 21.28176552 8.57153267 23.23065712 6 26 C1.53374264 29.3277996 -2.04681991 30.77342656 -7.65234375 30.5234375 C-12.61993792 29.41585411 -17.43798101 26.39740256 -20.234375 22.10546875 C-21.9916867 17.27286156 -21.75760191 11.8341941 -19.8125 7.125 C-13.93505844 0.23420645 -8.76261088 -0.91586611 0 0 Z " fill="#070707" transform="translate(109,79)"/>
</svg>
