<svg width="87" height="89" viewBox="0 0 87 89" fill="none" xmlns="http://www.w3.org/2000/svg">
    <path d="M50.2044 2.75707C54.6066 -1.94581 62.4877 1.29197 62.3123 7.73135L61.8175 25.8931C61.7417 28.6768 63.323 31.2407 65.8446 32.4223L82.2963 40.1318C88.1294 42.8652 87.4855 51.3611 81.307 53.1842L63.8813 58.3259C61.2104 59.114 59.2607 61.4103 58.9161 64.1735L56.6678 82.2024C55.8706 88.5947 47.5916 90.6076 43.9485 85.295L33.6736 70.311C32.0987 68.0144 29.3124 66.8696 26.5778 67.3958L8.73658 70.8288C2.41086 72.046 -2.06195 64.7941 1.86494 59.6877L12.9404 45.2853C14.638 43.0778 14.8656 40.0741 13.5202 37.636L4.74201 21.7288C1.62965 16.0889 7.14436 9.59403 13.2144 11.7507L30.3344 17.8336C32.9583 18.7659 35.8854 18.0542 37.7884 16.0212L50.2044 2.75707Z" fill="#352326"/>
</svg>
