<svg width="2560" height="2708" viewBox="0 0 2560 2708" fill="none" xmlns="http://www.w3.org/2000/svg">
<rect opacity="0.1" x="-37" y="-262" width="87" height="2982" fill="url(#paint0_linear_435_168)"/>
<rect opacity="0.1" x="149" y="-262" width="88" height="2982" fill="url(#paint1_linear_435_168)"/>
<rect opacity="0.1" x="336" y="-262" width="87" height="2982" fill="url(#paint2_linear_435_168)"/>
<rect opacity="0.1" x="522" y="-227" width="87" height="2983" fill="url(#paint3_linear_435_168)"/>
<rect opacity="0.1" x="708" y="-227" width="88" height="2983" fill="url(#paint4_linear_435_168)"/>
<rect opacity="0.1" x="895" y="-227" width="87" height="2983" fill="url(#paint5_linear_435_168)"/>
<rect opacity="0.1" x="1081" y="-245" width="87" height="2981" fill="url(#paint6_linear_435_168)"/>
<rect opacity="0.1" x="1267" y="-245" width="88" height="2981" fill="url(#paint7_linear_435_168)"/>
<rect opacity="0.1" x="1454" y="-245" width="87" height="2981" fill="url(#paint8_linear_435_168)"/>
<rect opacity="0.1" x="1640" y="-37" width="87" height="2983" fill="url(#paint9_linear_435_168)"/>
<rect opacity="0.1" x="1826" y="-37" width="88" height="2983" fill="url(#paint10_linear_435_168)"/>
<rect opacity="0.1" x="2013" y="-37" width="87" height="2983" fill="url(#paint11_linear_435_168)"/>
<rect opacity="0.1" x="2199" y="-55" width="87" height="2982" fill="url(#paint12_linear_435_168)"/>
<rect opacity="0.1" x="2385" y="-55" width="88" height="2982" fill="url(#paint13_linear_435_168)"/>
<rect opacity="0.1" x="2676" y="58" width="87.0001" height="2961" transform="rotate(90 2676 58)" fill="#BE4D54"/>
<rect opacity="0.1" x="2676" y="244" width="88.0001" height="2961" transform="rotate(90 2676 244)" fill="#CD724C"/>
<rect opacity="0.1" x="2640" y="430" width="88.0001" height="2960" transform="rotate(90 2640 430)" fill="#D68946"/>
<rect opacity="0.1" x="2640" y="617" width="87.0001" height="2960" transform="rotate(90 2640 617)" fill="#DE9E42"/>
<rect opacity="0.1" x="2640" y="803" width="88.0001" height="2960" transform="rotate(90 2640 803)" fill="#D0A947"/>
<rect opacity="0.1" x="2659" y="989" width="88.0001" height="2959" transform="rotate(90 2659 989)" fill="#C0B64E"/>
<rect opacity="0.1" x="2659" y="1176" width="87.0001" height="2959" transform="rotate(90 2659 1176)" fill="#B1C355"/>
<rect opacity="0.1" x="2659" y="1362" width="88.0001" height="2959" transform="rotate(90 2659 1362)" fill="#A4C865"/>
<rect opacity="0.1" x="2604" y="1549" width="87.0001" height="2866" transform="rotate(90 2604 1549)" fill="#96C684"/>
<rect opacity="0.1" x="2604" y="1735" width="87.0001" height="2866" transform="rotate(90 2604 1735)" fill="#86C1A8"/>
<rect opacity="0.1" x="2658" y="1921" width="88.0001" height="2959" transform="rotate(90 2658 1921)" fill="#76BECB"/>
<rect opacity="0.1" x="2603" y="2108" width="87.0001" height="2866" transform="rotate(90 2603 2108)" fill="#74BDD2"/>
<rect opacity="0.1" x="2603" y="2294" width="87.0001" height="2866" transform="rotate(90 2603 2294)" fill="#73BED3"/>
<rect opacity="0.1" x="2719" y="2486" width="88.0001" height="2959" transform="rotate(90 2719 2486)" fill="#73BED3"/>
<rect opacity="0.1" x="2664" y="2673" width="87.0001" height="2866" transform="rotate(90 2664 2673)" fill="#73BED3"/>
<defs>
<linearGradient id="paint0_linear_435_168" x1="6.5" y1="-262" x2="6.5" y2="2720" gradientUnits="userSpaceOnUse">
<stop stop-color="#BE4D54"/>
<stop offset="0.239421" stop-color="#DE9E41"/>
<stop offset="0.461538" stop-color="#A8CA58"/>
<stop offset="0.754808" stop-color="#73BED3"/>
</linearGradient>
<linearGradient id="paint1_linear_435_168" x1="193" y1="-262" x2="193" y2="2720" gradientUnits="userSpaceOnUse">
<stop stop-color="#BE4D54"/>
<stop offset="0.239421" stop-color="#DE9E41"/>
<stop offset="0.461538" stop-color="#A8CA58"/>
<stop offset="0.754808" stop-color="#73BED3"/>
</linearGradient>
<linearGradient id="paint2_linear_435_168" x1="379.5" y1="-262" x2="379.5" y2="2720" gradientUnits="userSpaceOnUse">
<stop stop-color="#BE4D54"/>
<stop offset="0.239421" stop-color="#DE9E41"/>
<stop offset="0.461538" stop-color="#A8CA58"/>
<stop offset="0.754808" stop-color="#73BED3"/>
</linearGradient>
<linearGradient id="paint3_linear_435_168" x1="565.5" y1="-227" x2="565.5" y2="2756" gradientUnits="userSpaceOnUse">
<stop stop-color="#BE4D54"/>
<stop offset="0.239421" stop-color="#DE9E41"/>
<stop offset="0.461538" stop-color="#A8CA58"/>
<stop offset="0.754808" stop-color="#73BED3"/>
</linearGradient>
<linearGradient id="paint4_linear_435_168" x1="752" y1="-227" x2="752" y2="2756" gradientUnits="userSpaceOnUse">
<stop stop-color="#BE4D54"/>
<stop offset="0.239421" stop-color="#DE9E41"/>
<stop offset="0.461538" stop-color="#A8CA58"/>
<stop offset="0.754808" stop-color="#73BED3"/>
</linearGradient>
<linearGradient id="paint5_linear_435_168" x1="938.5" y1="-227" x2="938.5" y2="2756" gradientUnits="userSpaceOnUse">
<stop stop-color="#BE4D54"/>
<stop offset="0.239421" stop-color="#DE9E41"/>
<stop offset="0.461538" stop-color="#A8CA58"/>
<stop offset="0.754808" stop-color="#73BED3"/>
</linearGradient>
<linearGradient id="paint6_linear_435_168" x1="1124.5" y1="-245" x2="1124.5" y2="2736" gradientUnits="userSpaceOnUse">
<stop stop-color="#BE4D54"/>
<stop offset="0.239421" stop-color="#DE9E41"/>
<stop offset="0.461538" stop-color="#A8CA58"/>
<stop offset="0.754808" stop-color="#73BED3"/>
</linearGradient>
<linearGradient id="paint7_linear_435_168" x1="1311" y1="-245" x2="1311" y2="2736" gradientUnits="userSpaceOnUse">
<stop stop-color="#BE4D54"/>
<stop offset="0.239421" stop-color="#DE9E41"/>
<stop offset="0.461538" stop-color="#A8CA58"/>
<stop offset="0.754808" stop-color="#73BED3"/>
</linearGradient>
<linearGradient id="paint8_linear_435_168" x1="1497.5" y1="-245" x2="1497.5" y2="2736" gradientUnits="userSpaceOnUse">
<stop stop-color="#BE4D54"/>
<stop offset="0.239421" stop-color="#DE9E41"/>
<stop offset="0.461538" stop-color="#A8CA58"/>
<stop offset="0.754808" stop-color="#73BED3"/>
</linearGradient>
<linearGradient id="paint9_linear_435_168" x1="1683.5" y1="-37" x2="1683.5" y2="2946" gradientUnits="userSpaceOnUse">
<stop stop-color="#BE4D54"/>
<stop offset="0.239421" stop-color="#DE9E41"/>
<stop offset="0.461538" stop-color="#A8CA58"/>
<stop offset="0.754808" stop-color="#73BED3"/>
</linearGradient>
<linearGradient id="paint10_linear_435_168" x1="1870" y1="-37" x2="1870" y2="2946" gradientUnits="userSpaceOnUse">
<stop stop-color="#BE4D54"/>
<stop offset="0.239421" stop-color="#DE9E41"/>
<stop offset="0.461538" stop-color="#A8CA58"/>
<stop offset="0.754808" stop-color="#73BED3"/>
</linearGradient>
<linearGradient id="paint11_linear_435_168" x1="2056.5" y1="-37" x2="2056.5" y2="2946" gradientUnits="userSpaceOnUse">
<stop stop-color="#BE4D54"/>
<stop offset="0.239421" stop-color="#DE9E41"/>
<stop offset="0.461538" stop-color="#A8CA58"/>
<stop offset="0.754808" stop-color="#73BED3"/>
</linearGradient>
<linearGradient id="paint12_linear_435_168" x1="2242.5" y1="-55" x2="2242.5" y2="2927" gradientUnits="userSpaceOnUse">
<stop stop-color="#BE4D54"/>
<stop offset="0.239421" stop-color="#DE9E41"/>
<stop offset="0.461538" stop-color="#A8CA58"/>
<stop offset="0.754808" stop-color="#73BED3"/>
</linearGradient>
<linearGradient id="paint13_linear_435_168" x1="2429" y1="-55" x2="2429" y2="2927" gradientUnits="userSpaceOnUse">
<stop stop-color="#BE4D54"/>
<stop offset="0.239421" stop-color="#DE9E41"/>
<stop offset="0.461538" stop-color="#A8CA58"/>
<stop offset="0.754808" stop-color="#73BED3"/>
</linearGradient>
</defs>
</svg>
