<svg width="2560" height="1440" viewBox="0 0 2560 1440" fill="none" xmlns="http://www.w3.org/2000/svg">
<g opacity="0.15">
<path d="M6 -93L97 13.3441L6 119.688L-85 13.3441L6 -93Z" fill="#F8E8D1"/>
<path d="M188 -93L279 13.3441L188 119.688L97 13.3441L188 -93Z" fill="#F8E8D1"/>
<path d="M370 -93L461 13.3441L370 119.688L279 13.3441L370 -93Z" fill="#F8E8D1"/>
<path d="M552 -93L643 13.3441L552 119.688L461 13.3441L552 -93Z" fill="#F8E8D1"/>
<path d="M734 -93L825 13.3441L734 119.688L643 13.3441L734 -93Z" fill="#F8E8D1"/>
<path d="M916 -93L1007 13.3441L916 119.688L825 13.3441L916 -93Z" fill="#F8E8D1"/>
<path d="M1098 -93L1189 13.3441L1098 119.688L1007 13.3441L1098 -93Z" fill="#F8E8D1"/>
<path d="M1280 -93L1371 13.3441L1280 119.688L1189 13.3441L1280 -93Z" fill="#F8E8D1"/>
<path d="M1462 -93L1553 13.3441L1462 119.688L1371 13.3441L1462 -93Z" fill="#F8E8D1"/>
<path d="M1644 -93L1735 13.3441L1644 119.688L1553 13.3441L1644 -93Z" fill="#F8E8D1"/>
<path d="M1826 -93L1917 13.3441L1826 119.688L1735 13.3441L1826 -93Z" fill="#F8E8D1"/>
<path d="M2008 -93L2099 13.3441L2008 119.688L1917 13.3441L2008 -93Z" fill="#F8E8D1"/>
<path d="M2190 -93L2281 13.3441L2190 119.688L2099 13.3441L2190 -93Z" fill="#F8E8D1"/>
<path d="M2372 -93L2463 13.3441L2372 119.688L2281 13.3441L2372 -93Z" fill="#F8E8D1"/>
<path d="M2554 -93L2645 13.3441L2554 119.688L2463 13.3441L2554 -93Z" fill="#F8E8D1"/>
<path d="M6 119.688L97 226.033L6 332.377L-85 226.033L6 119.688Z" fill="#F8E8D1"/>
<path d="M188 119.688L279 226.033L188 332.377L97 226.033L188 119.688Z" fill="#F8E8D1"/>
<path d="M370 119.688L461 226.033L370 332.377L279 226.033L370 119.688Z" fill="#F8E8D1"/>
<path d="M552 119.688L643 226.033L552 332.377L461 226.033L552 119.688Z" fill="#F8E8D1"/>
<path d="M734 119.688L825 226.033L734 332.377L643 226.033L734 119.688Z" fill="#F8E8D1"/>
<path d="M916 119.688L1007 226.033L916 332.377L825 226.033L916 119.688Z" fill="#F8E8D1"/>
<path d="M1098 119.688L1189 226.033L1098 332.377L1007 226.033L1098 119.688Z" fill="#F8E8D1"/>
<path d="M1280 119.688L1371 226.033L1280 332.377L1189 226.033L1280 119.688Z" fill="#F8E8D1"/>
<path d="M1462 119.688L1553 226.033L1462 332.377L1371 226.033L1462 119.688Z" fill="#F8E8D1"/>
<path d="M1644 119.688L1735 226.033L1644 332.377L1553 226.033L1644 119.688Z" fill="#F8E8D1"/>
<path d="M1826 119.688L1917 226.033L1826 332.377L1735 226.033L1826 119.688Z" fill="#F8E8D1"/>
<path d="M2008 119.688L2099 226.033L2008 332.377L1917 226.033L2008 119.688Z" fill="#F8E8D1"/>
<path d="M2190 119.688L2281 226.033L2190 332.377L2099 226.033L2190 119.688Z" fill="#F8E8D1"/>
<path d="M2372 119.688L2463 226.033L2372 332.377L2281 226.033L2372 119.688Z" fill="#F8E8D1"/>
<path d="M2554 119.688L2645 226.033L2554 332.377L2463 226.033L2554 119.688Z" fill="#F8E8D1"/>
<path d="M6 332.376L97 438.721L6 545.065L-85 438.721L6 332.376Z" fill="#F8E8D1"/>
<path d="M188 332.376L279 438.721L188 545.065L97 438.721L188 332.376Z" fill="#F8E8D1"/>
<path d="M370 332.376L461 438.721L370 545.065L279 438.721L370 332.376Z" fill="#F8E8D1"/>
<path d="M552 332.376L643 438.721L552 545.065L461 438.721L552 332.376Z" fill="#F8E8D1"/>
<path d="M734 332.376L825 438.721L734 545.065L643 438.721L734 332.376Z" fill="#F8E8D1"/>
<path d="M916 332.376L1007 438.721L916 545.065L825 438.721L916 332.376Z" fill="#F8E8D1"/>
<path d="M1098 332.376L1189 438.721L1098 545.065L1007 438.721L1098 332.376Z" fill="#F8E8D1"/>
<path d="M1280 332.376L1371 438.721L1280 545.065L1189 438.721L1280 332.376Z" fill="#F8E8D1"/>
<path d="M1462 332.376L1553 438.721L1462 545.065L1371 438.721L1462 332.376Z" fill="#F8E8D1"/>
<path d="M1644 332.376L1735 438.721L1644 545.065L1553 438.721L1644 332.376Z" fill="#F8E8D1"/>
<path d="M1826 332.376L1917 438.721L1826 545.065L1735 438.721L1826 332.376Z" fill="#F8E8D1"/>
<path d="M2008 332.376L2099 438.721L2008 545.065L1917 438.721L2008 332.376Z" fill="#F8E8D1"/>
<path d="M2190 332.376L2281 438.721L2190 545.065L2099 438.721L2190 332.376Z" fill="#F8E8D1"/>
<path d="M2372 332.376L2463 438.721L2372 545.065L2281 438.721L2372 332.376Z" fill="#F8E8D1"/>
<path d="M2554 332.376L2645 438.721L2554 545.065L2463 438.721L2554 332.376Z" fill="#F8E8D1"/>
<path d="M6 545.064L97 651.409L6 757.753L-85 651.409L6 545.064Z" fill="#F8E8D1"/>
<path d="M188 545.064L279 651.409L188 757.753L97 651.409L188 545.064Z" fill="#F8E8D1"/>
<path d="M370 545.064L461 651.409L370 757.753L279 651.409L370 545.064Z" fill="#F8E8D1"/>
<path d="M552 545.064L643 651.409L552 757.753L461 651.409L552 545.064Z" fill="#F8E8D1"/>
<path d="M734 545.064L825 651.409L734 757.753L643 651.409L734 545.064Z" fill="#F8E8D1"/>
<path d="M916 545.064L1007 651.409L916 757.753L825 651.409L916 545.064Z" fill="#F8E8D1"/>
<path d="M1098 545.064L1189 651.409L1098 757.753L1007 651.409L1098 545.064Z" fill="#F8E8D1"/>
<path d="M1280 545.064L1371 651.409L1280 757.753L1189 651.409L1280 545.064Z" fill="#F8E8D1"/>
<path d="M1462 545.064L1553 651.409L1462 757.753L1371 651.409L1462 545.064Z" fill="#F8E8D1"/>
<path d="M1644 545.064L1735 651.409L1644 757.753L1553 651.409L1644 545.064Z" fill="#F8E8D1"/>
<path d="M1826 545.064L1917 651.409L1826 757.753L1735 651.409L1826 545.064Z" fill="#F8E8D1"/>
<path d="M2008 545.064L2099 651.409L2008 757.753L1917 651.409L2008 545.064Z" fill="#F8E8D1"/>
<path d="M2190 545.064L2281 651.409L2190 757.753L2099 651.409L2190 545.064Z" fill="#F8E8D1"/>
<path d="M2372 545.064L2463 651.409L2372 757.753L2281 651.409L2372 545.064Z" fill="#F8E8D1"/>
<path d="M2554 545.064L2645 651.409L2554 757.753L2463 651.409L2554 545.064Z" fill="#F8E8D1"/>
<path d="M6 754.25L97 860.595L6 966.939L-85 860.595L6 754.25Z" fill="#F8E8D1"/>
<path d="M188 754.25L279 860.595L188 966.939L97 860.595L188 754.25Z" fill="#F8E8D1"/>
<path d="M370 754.25L461 860.595L370 966.939L279 860.595L370 754.25Z" fill="#F8E8D1"/>
<path d="M552 754.25L643 860.595L552 966.939L461 860.595L552 754.25Z" fill="#F8E8D1"/>
<path d="M734 754.25L825 860.595L734 966.939L643 860.595L734 754.25Z" fill="#F8E8D1"/>
<path d="M916 754.25L1007 860.595L916 966.939L825 860.595L916 754.25Z" fill="#F8E8D1"/>
<path d="M1098 754.25L1189 860.595L1098 966.939L1007 860.595L1098 754.25Z" fill="#F8E8D1"/>
<path d="M1280 754.25L1371 860.595L1280 966.939L1189 860.595L1280 754.25Z" fill="#F8E8D1"/>
<path d="M1462 754.25L1553 860.595L1462 966.939L1371 860.595L1462 754.25Z" fill="#F8E8D1"/>
<path d="M1644 754.25L1735 860.595L1644 966.939L1553 860.595L1644 754.25Z" fill="#F8E8D1"/>
<path d="M1826 754.25L1917 860.595L1826 966.939L1735 860.595L1826 754.25Z" fill="#F8E8D1"/>
<path d="M2008 754.25L2099 860.595L2008 966.939L1917 860.595L2008 754.25Z" fill="#F8E8D1"/>
<path d="M2190 754.25L2281 860.595L2190 966.939L2099 860.595L2190 754.25Z" fill="#F8E8D1"/>
<path d="M2372 754.25L2463 860.595L2372 966.939L2281 860.595L2372 754.25Z" fill="#F8E8D1"/>
<path d="M2554 754.25L2645 860.595L2554 966.939L2463 860.595L2554 754.25Z" fill="#F8E8D1"/>
<path d="M6 966.936L97 1073.28L6 1179.62L-85 1073.28L6 966.936Z" fill="#F8E8D1"/>
<path d="M188 966.936L279 1073.28L188 1179.62L97 1073.28L188 966.936Z" fill="#F8E8D1"/>
<path d="M370 966.936L461 1073.28L370 1179.62L279 1073.28L370 966.936Z" fill="#F8E8D1"/>
<path d="M552 966.936L643 1073.28L552 1179.62L461 1073.28L552 966.936Z" fill="#F8E8D1"/>
<path d="M734 966.936L825 1073.28L734 1179.62L643 1073.28L734 966.936Z" fill="#F8E8D1"/>
<path d="M916 966.936L1007 1073.28L916 1179.62L825 1073.28L916 966.936Z" fill="#F8E8D1"/>
<path d="M1098 966.936L1189 1073.28L1098 1179.62L1007 1073.28L1098 966.936Z" fill="#F8E8D1"/>
<path d="M1280 966.936L1371 1073.28L1280 1179.62L1189 1073.28L1280 966.936Z" fill="#F8E8D1"/>
<path d="M1462 966.936L1553 1073.28L1462 1179.62L1371 1073.28L1462 966.936Z" fill="#F8E8D1"/>
<path d="M1644 966.936L1735 1073.28L1644 1179.62L1553 1073.28L1644 966.936Z" fill="#F8E8D1"/>
<path d="M1826 966.936L1917 1073.28L1826 1179.62L1735 1073.28L1826 966.936Z" fill="#F8E8D1"/>
<path d="M2008 966.936L2099 1073.28L2008 1179.62L1917 1073.28L2008 966.936Z" fill="#F8E8D1"/>
<path d="M2190 966.936L2281 1073.28L2190 1179.62L2099 1073.28L2190 966.936Z" fill="#F8E8D1"/>
<path d="M2372 966.936L2463 1073.28L2372 1179.62L2281 1073.28L2372 966.936Z" fill="#F8E8D1"/>
<path d="M2554 966.936L2645 1073.28L2554 1179.62L2463 1073.28L2554 966.936Z" fill="#F8E8D1"/>
<path d="M6 1179.62L97 1285.97L6 1392.31L-85 1285.97L6 1179.62Z" fill="#F8E8D1"/>
<path d="M188 1179.62L279 1285.97L188 1392.31L97 1285.97L188 1179.62Z" fill="#F8E8D1"/>
<path d="M370 1179.62L461 1285.97L370 1392.31L279 1285.97L370 1179.62Z" fill="#F8E8D1"/>
<path d="M552 1179.62L643 1285.97L552 1392.31L461 1285.97L552 1179.62Z" fill="#F8E8D1"/>
<path d="M734 1179.62L825 1285.97L734 1392.31L643 1285.97L734 1179.62Z" fill="#F8E8D1"/>
<path d="M916 1179.62L1007 1285.97L916 1392.31L825 1285.97L916 1179.62Z" fill="#F8E8D1"/>
<path d="M1098 1179.62L1189 1285.97L1098 1392.31L1007 1285.97L1098 1179.62Z" fill="#F8E8D1"/>
<path d="M1280 1179.62L1371 1285.97L1280 1392.31L1189 1285.97L1280 1179.62Z" fill="#F8E8D1"/>
<path d="M1462 1179.62L1553 1285.97L1462 1392.31L1371 1285.97L1462 1179.62Z" fill="#F8E8D1"/>
<path d="M1644 1179.62L1735 1285.97L1644 1392.31L1553 1285.97L1644 1179.62Z" fill="#F8E8D1"/>
<path d="M1826 1179.62L1917 1285.97L1826 1392.31L1735 1285.97L1826 1179.62Z" fill="#F8E8D1"/>
<path d="M2008 1179.62L2099 1285.97L2008 1392.31L1917 1285.97L2008 1179.62Z" fill="#F8E8D1"/>
<path d="M2190 1179.62L2281 1285.97L2190 1392.31L2099 1285.97L2190 1179.62Z" fill="#F8E8D1"/>
<path d="M2372 1179.62L2463 1285.97L2372 1392.31L2281 1285.97L2372 1179.62Z" fill="#F8E8D1"/>
<path d="M2554 1179.62L2645 1285.97L2554 1392.31L2463 1285.97L2554 1179.62Z" fill="#F8E8D1"/>
<path d="M6 1392.31L97 1498.66L6 1605L-85 1498.66L6 1392.31Z" fill="#F8E8D1"/>
<path d="M188 1392.31L279 1498.66L188 1605L97 1498.66L188 1392.31Z" fill="#F8E8D1"/>
<path d="M370 1392.31L461 1498.66L370 1605L279 1498.66L370 1392.31Z" fill="#F8E8D1"/>
<path d="M552 1392.31L643 1498.66L552 1605L461 1498.66L552 1392.31Z" fill="#F8E8D1"/>
<path d="M734 1392.31L825 1498.66L734 1605L643 1498.66L734 1392.31Z" fill="#F8E8D1"/>
<path d="M916 1392.31L1007 1498.66L916 1605L825 1498.66L916 1392.31Z" fill="#F8E8D1"/>
<path d="M1098 1392.31L1189 1498.66L1098 1605L1007 1498.66L1098 1392.31Z" fill="#F8E8D1"/>
<path d="M1280 1392.31L1371 1498.66L1280 1605L1189 1498.66L1280 1392.31Z" fill="#F8E8D1"/>
<path d="M1462 1392.31L1553 1498.66L1462 1605L1371 1498.66L1462 1392.31Z" fill="#F8E8D1"/>
<path d="M1644 1392.31L1735 1498.66L1644 1605L1553 1498.66L1644 1392.31Z" fill="#F8E8D1"/>
<path d="M1826 1392.31L1917 1498.66L1826 1605L1735 1498.66L1826 1392.31Z" fill="#F8E8D1"/>
<path d="M2008 1392.31L2099 1498.66L2008 1605L1917 1498.66L2008 1392.31Z" fill="#F8E8D1"/>
<path d="M2190 1392.31L2281 1498.66L2190 1605L2099 1498.66L2190 1392.31Z" fill="#F8E8D1"/>
<path d="M2372 1392.31L2463 1498.66L2372 1605L2281 1498.66L2372 1392.31Z" fill="#F8E8D1"/>
<path d="M2554 1392.31L2645 1498.66L2554 1605L2463 1498.66L2554 1392.31Z" fill="#F8E8D1"/>
</g>
</svg>
