<svg width="52" height="53" viewBox="0 0 52 53" fill="none" xmlns="http://www.w3.org/2000/svg">
<path fill-rule="evenodd" clip-rule="evenodd" d="M26.2517 13.1121C23.6586 13.1121 21.1237 13.881 18.9676 15.3217C16.8115 16.7623 15.131 18.81 14.1387 21.2058C13.1463 23.6015 12.8867 26.2377 13.3926 28.781C13.8985 31.3243 15.1472 33.6605 16.9808 35.4941C18.8144 37.3278 21.1506 38.5765 23.6939 39.0824C26.2372 39.5883 28.8734 39.3286 31.2691 38.3363C33.6649 37.3439 35.7126 35.6634 37.1532 33.5073C38.5939 31.3512 39.3629 28.8163 39.3629 26.2232C39.3629 22.7459 37.9815 19.411 35.5227 16.9522C33.0639 14.4934 29.729 13.1121 26.2517 13.1121ZM32.2501 25.0923L26.3992 30.9432C26.0469 31.2885 25.5733 31.4819 25.0799 31.4819C24.5866 31.4819 24.1129 31.2885 23.7606 30.9432L20.237 27.4359C19.8907 27.0809 19.6968 26.6045 19.6968 26.1085C19.6968 25.6124 19.8907 25.136 20.237 24.781C20.4107 24.6055 20.6175 24.4663 20.8454 24.3713C21.0732 24.2762 21.3176 24.2273 21.5645 24.2273C21.8114 24.2273 22.0558 24.2762 22.2837 24.3713C22.5115 24.4663 22.7183 24.6055 22.892 24.781L25.0717 26.9771L29.6115 22.4373C29.9635 22.0874 30.4402 21.8917 30.9366 21.8933C31.4329 21.8948 31.9084 22.0935 32.2583 22.4455C32.6082 22.7976 32.8039 23.2743 32.8023 23.7706C32.8008 24.267 32.6022 24.7424 32.2501 25.0923Z" fill="currentColor"/>
<path fill-rule="evenodd" clip-rule="evenodd" d="M47.1794 18.0287C46.9175 17.6378 46.739 17.197 46.6549 16.734L45.1963 9.55569C45.047 8.83546 44.6894 8.17499 44.1678 7.65635C43.6462 7.1377 42.9838 6.78375 42.2627 6.63846L35.2319 5.17985C34.7619 5.08401 34.316 4.8945 33.9208 4.62263L27.9552 0.640131C27.3412 0.223018 26.6161 0 25.8738 0C25.1316 0 24.4064 0.223018 23.7924 0.640131L17.8269 4.62263C17.4275 4.89776 16.9755 5.08746 16.4994 5.17985L9.48495 6.63846C8.76773 6.79065 8.11079 7.14958 7.59527 7.67092C7.07975 8.19227 6.72823 8.85319 6.58411 9.57208L5.1255 16.7504C5.01479 17.2054 4.82628 17.6379 4.56828 18.0287L0.602168 24.1746C0.209038 24.7855 0 25.4967 0 26.2232C0 26.9497 0.209038 27.6608 0.602168 28.2718L4.56828 34.4176C4.8165 34.8157 4.99394 35.2537 5.09272 35.7124L6.55133 42.8907C6.68608 43.6259 7.03728 44.3041 7.55994 44.8385C8.08259 45.3728 8.75289 45.7389 9.48495 45.8899L16.4994 47.3485C16.9755 47.4409 17.4275 47.6306 17.8269 47.9057L23.7924 51.8882C24.4064 52.3053 25.1316 52.5283 25.8738 52.5283C26.6161 52.5283 27.3412 52.3053 27.9552 51.8882L33.9208 47.9057C34.316 47.6338 34.7619 47.4443 35.2319 47.3485L42.2627 45.8899C42.9799 45.7377 43.6369 45.3787 44.1524 44.8574C44.6679 44.336 45.0194 43.6751 45.1636 42.9562L46.6222 35.7779C46.7073 35.2895 46.8974 34.8254 47.1794 34.4176L51.1783 28.2718C51.5705 27.6666 51.7792 26.9608 51.7792 26.2396C51.7792 25.5184 51.5705 24.8126 51.1783 24.2074L47.1794 18.0287ZM26.2508 43.071C22.9186 43.071 19.6613 42.0829 16.8907 40.2316C14.1201 38.3803 11.9606 35.7491 10.6855 32.6705C9.41029 29.592 9.07665 26.2045 9.72673 22.9363C10.3768 19.6682 11.9814 16.6662 14.3376 14.31C16.6938 11.9538 19.6958 10.3492 22.9639 9.69913C26.2321 9.04906 29.6196 9.3827 32.6981 10.6579C35.7767 11.933 38.4079 14.0925 40.2592 16.8631C42.1105 19.6337 43.0986 22.891 43.0986 26.2232C43.0899 30.6888 41.3121 34.9691 38.1544 38.1268C34.9967 41.2845 30.7164 43.0623 26.2508 43.071Z" fill="currentColor"/>
</svg>
