<svg xmlns="http://www.w3.org/2000/svg" width="14" height="14" viewBox="0 0 14 14"><path fill="currentColor" fill-rule="evenodd" d="M0 2.25A2.25 2.25 0 0 1 2.25 0h9a2.25 2.25 0 0 1 2.25 2.25v9a2.25 2.25 0 0 1-2.25 2.25h-9A2.25 2.25 0 0 1 0 11.25zm10.688 4.5c0 .15-.06.292-.165.397L8.835 8.836a.563.563 0 1 1-.795-.795l1.29-1.29-1.29-1.29a.563.563 0 1 1 .795-.795l1.688 1.688a.56.56 0 0 1 .165.397m-7.71-.397a.563.563 0 0 0 0 .795l1.687 1.687a.563.563 0 1 0 .795-.795L4.17 6.75l1.29-1.29a.563.563 0 1 0-.795-.795z" clip-rule="evenodd"/></svg>