<svg fill="none" height="512" viewBox="0 0 24 24" width="512" xmlns="http://www.w3.org/2000/svg"><path clip-rule="evenodd" d="m19.6062 3.60616.7876.78769c.5766.57657.8649.86486.9981 1.18646.1776.4288.1776.91059 0 1.33939-.1332.3216-.4215.60988-.9981 1.18646l-1.1867 1.18674-4.5-4.5 1.1867-1.18674.0001-.00001c.5765-.57657.8648-.86485 1.1864-.99806.4288-.17762.9106-.17762 1.3394 0 .3216.1332.6099.42148 1.1864.99802v.00003zm-6.3133 2.60096-7.7781 7.77808c-1.77027 1.7703-2.7648 4.1713-2.7648 6.6748 0 .3259.26414.59.58998.59 2.50354 0 4.90455-.9945 6.67482-2.7648l7.7781-7.7781z" fill="currentColor" fill-rule="evenodd"/></svg>