<svg width="39" height="47" viewBox="0 0 39 47" fill="none" xmlns="http://www.w3.org/2000/svg">
<path d="M31.2138 43.3002C29.9396 44.2804 28.2733 45.2115 26.362 45.8977C25.9699 46.0447 25.5778 45.6526 25.6758 45.2605C25.9699 44.0353 26.1659 42.7611 26.1659 41.4379C26.1659 34.6257 21.3631 28.8427 19.6968 26.9804C19.3538 26.6373 18.8147 26.6373 18.5206 26.9804C16.8543 28.7937 12.0515 34.5767 12.0515 41.4379C12.0515 42.9571 12.2965 44.4764 12.6886 45.8486C12.7866 46.2407 12.4436 46.6328 12.0515 46.5348C8.76793 45.6526 6.12147 44.2314 5.14131 43.4472C-2.84707 36.6841 -0.053587 26.0492 3.67105 20.4623C7.78776 14.1402 12.6886 8.74927 12.4436 1.20197C12.3946 0.319816 13.3747 -0.268285 14.1589 0.123782C20.0341 3.08453 24.1626 9.32042 25.555 14.5857C25.6633 14.9952 26.1944 15.096 26.452 14.7598C27.6297 13.2234 28.1335 11.1737 28.1753 9.33737C28.1753 8.30819 29.4985 7.7691 30.2336 8.55323C35.8206 14.5813 44.4461 32.9594 31.2138 43.3002Z" fill="currentColor"/>
</svg>
