<svg width="25" height="25" viewBox="0 0 25 25" fill="none" xmlns="http://www.w3.org/2000/svg">
<path fill-rule="evenodd" clip-rule="evenodd" d="M3.125 2.34375C3.3322 2.34375 3.53091 2.42606 3.67743 2.57257C3.82394 2.71909 3.90625 2.9178 3.90625 3.125V3.6875L5.82083 3.20833C8.17281 2.62027 10.6576 2.89295 12.826 3.97708L12.9385 4.03333C14.7366 4.9325 16.793 5.17283 18.75 4.7125L21.9896 3.95C22.1111 3.9215 22.2376 3.92253 22.3587 3.95299C22.4797 3.98345 22.5917 4.04246 22.6852 4.12508C22.7787 4.2077 22.8511 4.31152 22.8963 4.42786C22.9414 4.5442 22.9581 4.66966 22.9448 4.79375C22.5572 8.37261 22.5589 11.983 22.95 15.5615C22.9708 15.7511 22.9215 15.9419 22.8114 16.0977C22.7012 16.2535 22.5379 16.3637 22.3521 16.4073L19.1083 17.1708C16.7954 17.7152 14.3648 17.4314 12.2396 16.3687L12.1271 16.3125C10.2924 15.3951 8.19008 15.1641 6.2 15.6615L3.90625 16.2344V21.875C3.90625 22.0822 3.82394 22.2809 3.67743 22.4274C3.53091 22.5739 3.3322 22.6562 3.125 22.6562C2.9178 22.6562 2.71909 22.5739 2.57257 22.4274C2.42606 22.2809 2.34375 22.0822 2.34375 21.875V3.125C2.34375 3.0224 2.36396 2.92081 2.40322 2.82603C2.44248 2.73124 2.50003 2.64512 2.57257 2.57257C2.64512 2.50003 2.73124 2.44248 2.82603 2.40322C2.92081 2.36396 3.0224 2.34375 3.125 2.34375Z" fill="currentColor"/>
</svg>
