<svg xmlns="http://www.w3.org/2000/svg" xml:space="preserve" fill="currentColor" viewBox="0 0 512 512"><path d="M256 0C114.508 0 0 114.497 0 256c0 141.492 114.497 256 256 256 141.492 0 256-114.497 256-256C512 114.508 397.503 0 256 0m-99.054 52.753a584 584 0 0 0-19.499 64.295 405 405 0 0 1-45.243-16.762c18.754-19.703 40.608-35.746 64.742-47.533M72.338 124.24a435 435 0 0 0 58.802 22.253c-5.806 30.993-9.126 62.538-9.914 94.507H30.502c2.763-42.441 17.226-82.61 41.836-116.76m0 263.52C47.728 353.61 33.265 313.441 30.502 271h90.724c.788 31.969 4.108 63.514 9.914 94.507a435 435 0 0 0-58.802 22.253m19.866 23.955a404 404 0 0 1 45.243-16.762 584 584 0 0 0 19.499 64.295c-24.122-11.781-45.978-27.821-64.742-47.533M241 481.498c-15.754-1.025-31.197-3.655-46.135-7.825a556 556 0 0 1-28.398-86.363c24.318-5.437 49.199-8.616 74.533-9.515zm0-133.721c-27.448.907-54.405 4.307-80.751 10.175-5.234-28.529-8.25-57.55-9.013-86.952H241zM241 241h-89.764c.763-29.402 3.779-58.423 9.013-86.952 26.346 5.868 53.303 9.268 80.751 10.175zm0-106.795c-25.334-.899-50.215-4.078-74.533-9.515a556 556 0 0 1 28.398-86.363c14.938-4.17 30.381-6.8 46.135-7.825zm198.662-9.965c24.61 34.15 39.073 74.319 41.836 116.76h-90.724c-.788-31.969-4.108-63.514-9.914-94.507a435 435 0 0 0 58.802-22.253m-19.866-23.955a404 404 0 0 1-45.243 16.762 584 584 0 0 0-19.499-64.295c24.122 11.781 45.978 27.821 64.742 47.533M271 30.502c15.754 1.025 31.197 3.655 46.135 7.825a556 556 0 0 1 28.398 86.363c-24.318 5.437-49.199 8.616-74.533 9.515zm0 133.721c27.448-.907 54.405-4.307 80.751-10.175 5.234 28.529 8.25 57.55 9.013 86.952H271zm46.134 309.449c-14.937 4.171-30.38 6.801-46.134 7.826V377.795c25.334.899 50.215 4.078 74.533 9.515a556 556 0 0 1-28.399 86.362M271 347.777V271h89.764c-.763 29.402-3.779 58.423-9.013 86.952-26.346-5.868-53.303-9.268-80.751-10.175m84.054 111.47a584 584 0 0 0 19.499-64.295 405 405 0 0 1 45.243 16.762c-18.754 19.703-40.608 35.746-64.742 47.533m84.608-71.487a435 435 0 0 0-58.802-22.253c5.806-30.993 9.126-62.538 9.914-94.507h90.724c-2.763 42.441-17.226 82.61-41.836 116.76"/></svg>