<svg width="27" height="27" viewBox="0 0 27 27" fill="none" xmlns="http://www.w3.org/2000/svg">
<path fill-rule="evenodd" clip-rule="evenodd" d="M13.5 2.53125C7.44187 2.53125 2.53125 7.44187 2.53125 13.5C2.53125 19.5581 7.44187 24.4688 13.5 24.4688C19.5581 24.4688 24.4688 19.5581 24.4688 13.5C24.4688 7.44187 19.5581 2.53125 13.5 2.53125ZM7.04475 6.831C5.67562 8.1566 4.74773 9.87152 4.38713 11.7428C4.02653 13.6141 4.25071 15.551 5.02922 17.2905C5.80772 19.0299 7.1028 20.4876 8.73853 21.4654C10.3743 22.4432 12.2713 22.8938 14.1721 22.7559C16.0728 22.6181 17.885 21.8985 19.3625 20.6949C20.8401 19.4913 21.9113 17.862 22.4306 16.0284C22.95 14.1949 22.8924 12.2459 22.2655 10.4462C21.6387 8.64652 20.4731 7.08343 18.927 5.96925C18.5465 6.57744 18.0411 7.09781 17.4442 7.49588L16.0312 8.4375L16.2169 8.80875C16.3023 8.97966 16.3318 9.17312 16.3011 9.36171C16.2704 9.5503 16.1812 9.72446 16.046 9.8595C15.9109 9.99454 15.7366 10.0836 15.548 10.1141C15.3594 10.1446 15.166 10.115 14.9951 10.0294L14.3156 9.68962C14.0782 9.57089 13.8094 9.52981 13.5474 9.57221C13.2853 9.61461 13.0432 9.73833 12.8554 9.92587L12.7069 10.0733C12.213 10.5683 12.213 11.3693 12.7069 11.8631L13.0399 12.1961C13.3279 12.4852 13.7396 12.6169 14.1424 12.5494L15.4586 12.33C15.822 12.2692 16.1944 12.3705 16.4767 12.6056L17.973 13.8521C18.333 14.1525 18.4905 14.6329 18.3757 15.0896C17.9453 16.8098 17.0556 18.3808 15.8017 19.6346L14.9884 20.4491C14.8005 20.6367 14.5584 20.7604 14.2964 20.8028C14.0343 20.8452 13.7656 20.8041 13.5281 20.6854L13.356 20.5999C13.1458 20.4948 12.969 20.3333 12.8454 20.1334C12.7218 19.9335 12.6563 19.7031 12.6562 19.4681V18.243C12.6562 17.9077 12.5224 17.5849 12.285 17.3475L10.7696 15.8321C10.5821 15.6443 10.4584 15.4022 10.416 15.1401C10.3736 14.8781 10.4146 14.6093 10.5334 14.3719L10.9688 13.5L9.12375 11.655C8.12868 10.66 7.46945 9.37893 7.23825 7.99088L7.04475 6.831Z" fill="currentColor"/>
</svg>
