<svg width="15" height="15" viewBox="0 0 15 15" fill="none" xmlns="http://www.w3.org/2000/svg">
<path fill-rule="evenodd" clip-rule="evenodd" d="M7.3125 0C3.27375 0 0 3.27375 0 7.3125C0 11.3512 3.27375 14.625 7.3125 14.625C11.3512 14.625 14.625 11.3512 14.625 7.3125C14.625 3.27375 11.3512 0 7.3125 0ZM3.009 2.8665C2.09624 3.75023 1.47765 4.89352 1.23725 6.14104C0.996856 7.38856 1.14631 8.67985 1.66531 9.83948C2.18431 10.9991 3.0477 11.9709 4.13819 12.6227C5.22868 13.2746 6.4934 13.575 7.76054 13.4831C9.02769 13.3912 10.2358 12.9115 11.2209 12.1091C12.2059 11.3067 12.92 10.2205 13.2663 8.99813C13.6125 7.77575 13.5741 6.47641 13.1562 5.27663C12.7383 4.07685 11.9612 3.03478 10.9305 2.292C10.6768 2.69746 10.3399 3.04437 9.942 3.30975L9 3.9375L9.12375 4.185C9.1807 4.29894 9.20034 4.42791 9.1799 4.55364C9.15946 4.67937 9.09997 4.79547 9.00986 4.8855C8.91974 4.97553 8.80358 5.03491 8.67784 5.05524C8.55209 5.07557 8.42314 5.0558 8.30925 4.99875L7.85625 4.77225C7.69797 4.69309 7.5188 4.66571 7.3441 4.69397C7.16939 4.72224 7.008 4.80472 6.88275 4.92975L6.78375 5.028C6.4545 5.358 6.4545 5.892 6.78375 6.22125L7.00575 6.44325C7.19775 6.636 7.47225 6.72375 7.74075 6.67875L8.61825 6.5325C8.8605 6.492 9.10875 6.5595 9.297 6.71625L10.2945 7.54725C10.5345 7.7475 10.6395 8.06775 10.563 8.37225C10.276 9.51905 9.68292 10.5663 8.847 11.4022L8.30475 11.9452C8.1795 12.0703 8.01811 12.1528 7.8434 12.181C7.6687 12.2093 7.48953 12.1819 7.33125 12.1027L7.2165 12.0458C7.07636 11.9757 6.95849 11.868 6.8761 11.7348C6.7937 11.6015 6.75004 11.4479 6.75 11.2913V10.4745C6.75 10.251 6.66075 10.0358 6.5025 9.8775L5.49225 8.86725C5.36722 8.742 5.28474 8.58061 5.25647 8.4059C5.22821 8.2312 5.25559 8.05203 5.33475 7.89375L5.625 7.3125L4.395 6.0825C3.73162 5.41918 3.29214 4.56512 3.138 3.63975L3.009 2.8665Z" fill="#F8E8D1"/>
</svg>
