<svg xmlns="http://www.w3.org/2000/svg" width="512" height="512" viewBox="0 0 100 100"><path fill="currentColor" d="M70 43.333c-6.204 0-11.374 4.262-12.861 10H50v.014l-.007-.007c-9.186 0-16.624-7.435-16.66-16.608v-.537c5.742-1.487 10-6.656 10-12.861C43.333 15.97 37.363 10 30 10s-13.333 5.97-13.333 13.333c0 6.205 4.258 11.374 10 12.861v27.611c-5.742 1.487-10 6.656-10 12.861C16.667 84.03 22.637 90 30 90s13.333-5.97 13.333-13.333c0-6.205-4.258-11.374-10-12.861V52.988C37.568 57.312 43.464 60 49.993 60l.007-.007V60h7.139C58.626 65.739 63.796 70 70 70c7.363 0 13.333-5.97 13.333-13.333S77.363 43.333 70 43.333"/></svg>