<svg xmlns="http://www.w3.org/2000/svg" width="512" height="512" fill="none" viewBox="0 0 24 24"><path fill="currentColor" d="m19.18 7.132-4.206-4.306c-.512-.513-1.23-.82-2.05-.82H6.871C5.333 1.903 4 3.236 4 4.774v14.355A2.866 2.866 0 0 0 6.872 22h10.256A2.866 2.866 0 0 0 20 19.129V9.081c0-.718-.308-1.436-.82-1.949M8.923 10.106H12c.41 0 .82.308.82.82 0 .513-.307.82-.82.82H8.923a.81.81 0 0 1-.82-.82c0-.513.41-.82.82-.82m6.154 5.742H8.923c-.41 0-.82-.308-.82-.82s.307-.82.82-.82h6.154c.41 0 .82.307.82.82s-.41.82-.82.82"/></svg>