<svg xmlns="http://www.w3.org/2000/svg" width="656" height="656" fill="currentColor" viewBox="0 0 492.493 492"><path d="M304.14 82.473 33.165 353.469a10.8 10.8 0 0 0-2.816 4.949L.313 478.973a10.72 10.72 0 0 0 2.816 10.136 10.68 10.68 0 0 0 7.527 3.114 10.6 10.6 0 0 0 2.582-.32l120.555-30.04a10.66 10.66 0 0 0 4.95-2.812l271-270.977zM476.875 45.523 446.711 15.36c-20.16-20.16-55.297-20.14-75.434 0l-36.949 36.95 105.598 105.597 36.949-36.949c10.07-10.066 15.617-23.465 15.617-37.715s-5.547-27.648-15.617-37.719m0 0"/></svg>