<svg xmlns="http://www.w3.org/2000/svg" width="512" height="512" viewBox="0 0 24 24"><path fill="currentColor" d="M7.24 16.76a3 3 0 0 1 0 4.2c-1.52 1.53-4.75 2-5.11 2H2a1 1 0 0 1-1-1.13c.05-.36.5-3.59 2-5.11a3 3 0 0 1 4.24.04m12.14-3.65a32 32 0 0 1-6 4.63 2.93 2.93 0 0 1-1.43.37 3 3 0 0 1-2.14-.88l-3-3a3 3 0 0 1-.51-3.57 32 32 0 0 1 4.63-6A11.62 11.62 0 0 1 22 1.32a1 1 0 0 1 .67.67 11.62 11.62 0 0 1-3.29 11.12m-1-7.52a2 2 0 1 0 0 2.82 2 2 0 0 0 .03-2.82zm1.17 8.71a34.6 34.6 0 0 1-5.26 4.05l2 2a1 1 0 0 0 .71.29 1 1 0 0 0 .7-.29l.68-.68a5 5 0 0 0 1.48-3.56 5.2 5.2 0 0 0-.28-1.81zM4.3 5.56l-.68.68a1 1 0 0 0 0 1.41l2 2a33.7 33.7 0 0 1 4-5.25A5 5 0 0 0 4.3 5.56"/></svg>