<svg width="40" height="40" viewBox="0 0 40 40" fill="none" xmlns="http://www.w3.org/2000/svg">
<g clip-path="url(#clip0_1820_4483)">
<path d="M39.0527 34.2126L29.8565 25.0156C31.419 22.5281 32.3258 19.5879 32.3258 16.4326C32.3258 7.50574 25.0891 0.27002 16.1626 0.27002C7.23605 0.27002 0 7.50574 0 16.4326C0 25.3598 7.23571 32.5948 16.1626 32.5948C19.5964 32.5948 22.777 31.5213 25.3942 29.6971L34.481 38.7846C35.1124 39.4154 35.9402 39.7295 36.7669 39.7295C37.5946 39.7295 38.4213 39.4154 39.0537 38.7846C40.3155 37.5215 40.3155 35.4754 39.0527 34.2126ZM16.1626 27.3584C10.1291 27.3584 5.23745 22.4671 5.23745 16.4333C5.23745 10.3994 10.1291 5.50781 16.1626 5.50781C22.1964 5.50781 27.0877 10.3994 27.0877 16.4333C27.0877 22.4671 22.1964 27.3584 16.1626 27.3584Z" fill="#7A4841"/>
</g>
<defs>
<clipPath id="clip0_1820_4483">
<rect width="40" height="40" fill="white"/>
</clipPath>
</defs>
</svg>
