<svg width="49" height="43" viewBox="0 0 49 43" fill="none" xmlns="http://www.w3.org/2000/svg">
<path d="M28.826 2.47814C28.826 1.11169 27.7143 0 26.3479 0H22.65C21.2836 0 20.1719 1.11169 20.1719 2.47814V6.18309H28.826V2.47814Z" fill="currentColor"/>
<path d="M24.8637 15.5039L39.2283 19.2572V9.9942C39.2283 9.47587 38.8066 9.0542 38.2883 9.0542H10.7134C10.1951 9.0542 9.77344 9.47587 9.77344 9.9942V19.2572L24.138 15.5039C24.3758 15.4418 24.6258 15.4418 24.8637 15.5039Z" fill="currentColor"/>
<path d="M47.5644 39.9512C45.98 39.9512 45.2653 39.5953 44.3603 39.1446C43.9355 38.9331 43.4875 38.71 42.9529 38.5201C42.2107 38.2562 41.3012 38.0561 40.0548 38.0386L45.3108 24.8073C45.4272 24.4931 45.3342 24.2316 45.2679 24.1031C45.2011 23.9735 45.04 23.7433 44.7114 23.6575L24.4999 18.3765L4.28846 23.6575C3.95981 23.7433 3.79874 23.9735 3.73204 24.1031C3.66572 24.2317 3.5726 24.4935 3.68926 24.8078L8.9335 38.0388C7.68764 38.0575 6.77904 38.2589 6.03734 38.5237C5.50724 38.7129 5.06212 38.9345 4.63997 39.1447C3.73491 39.5953 3.0201 39.9513 1.43555 39.9513C0.642742 39.9513 0 40.594 0 41.3868C0 42.1797 0.642742 42.8224 1.43555 42.8224C3.69529 42.8224 4.87703 42.234 5.91962 41.7149C6.32588 41.5127 6.69424 41.3299 7.11964 41.1894C7.64209 41.0169 8.25066 40.9084 9.12405 40.9084C9.3234 40.9084 9.50887 40.9141 9.68286 40.9249C10.8914 40.9995 11.5373 41.3211 12.3285 41.715C13.3711 42.2341 14.5528 42.8225 16.8125 42.8225C19.0722 42.8225 20.2538 42.2341 21.2965 41.715C22.2015 41.2644 22.9163 40.9084 24.5007 40.9084C26.085 40.9084 26.7997 41.2643 27.7047 41.715C28.7473 42.2341 29.9289 42.8225 32.1886 42.8225C34.4482 42.8225 35.6299 42.2341 36.6725 41.715C37.4661 41.3199 38.1138 40.9976 39.3296 40.9242C39.5001 40.914 39.6817 40.9084 39.8766 40.9084C40.7404 40.9084 41.3451 41.0148 41.8636 41.184C42.2962 41.3252 42.6691 41.5101 43.0807 41.715C44.1233 42.2341 45.3049 42.8225 47.5645 42.8225C48.3574 42.8225 49.0001 42.1797 49.0001 41.3869C49.0001 40.5941 48.3572 39.9512 47.5644 39.9512ZM11.2281 25.723L24.137 22.3501C24.3749 22.2879 24.6249 22.2879 24.8628 22.3501L37.7717 25.723C38.5388 25.9234 38.9982 26.7078 38.7978 27.4749C38.6291 28.1203 38.0471 28.5479 37.4099 28.5479C37.2898 28.5479 37.1676 28.5327 37.046 28.5009L24.4999 25.2228L11.9539 28.5009C11.1868 28.7013 10.4025 28.2419 10.202 27.4749C10.0016 26.7078 10.461 25.9234 11.2281 25.723Z" fill="currentColor"/>
</svg>
