<svg width="34" height="34" viewBox="0 0 34 34" fill="none" xmlns="http://www.w3.org/2000/svg">
<path fill-rule="evenodd" clip-rule="evenodd" d="M9.20437 30.4524C7.83213 30.4524 6.7133 29.3335 6.7133 27.9613V12.0586L4.2557 14.5114C3.28509 15.4868 1.70247 15.4868 0.731863 14.5114C-0.238746 13.5408 -0.238746 11.9582 0.731863 10.9876L7.44006 4.27939C8.41545 3.304 9.99329 3.304 10.9687 4.27939L17.6769 10.9876C18.6475 11.9582 18.6475 13.5408 17.6769 14.5114C16.7063 15.4868 15.1237 15.4868 14.153 14.5114L11.6954 12.0586V27.9613C11.6954 29.3335 10.5766 30.4524 9.20437 30.4524Z" fill="#468232"/>
<path fill-rule="evenodd" clip-rule="evenodd" d="M24.7981 30.4524C24.1335 30.4524 23.5072 30.1942 23.0386 29.7256L16.3256 23.0126C15.355 22.042 15.355 20.4594 16.3256 19.4888C17.2962 18.5182 18.8788 18.5182 19.8494 19.4888L22.3071 21.9464V6.03892C22.3071 4.66668 23.4259 3.54785 24.7981 3.54785C26.1751 3.54785 27.2892 4.66668 27.2892 6.03892V21.9464L29.7468 19.4888C30.7174 18.5182 32.3 18.5182 33.2706 19.4888C34.2412 20.4594 34.2412 22.042 33.2706 23.0126L26.5624 29.7256C26.0891 30.1942 25.4627 30.4524 24.7981 30.4524Z" fill="#468232"/>
</svg>
