<svg fill="none" height="512" viewBox="0 0 24 24" width="512" xmlns="http://www.w3.org/2000/svg"><g clip-rule="evenodd" fill="currentColor" fill-rule="evenodd"><path d="m10.1111 2c-.73637 0-1.33332.59695-1.33332 1.33333 0 .36819-.29848.66667-.66667.66667h-.11111-3c-.55228 0-1 .44772-1 1s.44772 1 1 1h3 .11111 7.77619.0016.1111 3c.5523 0 1-.44772 1-1s-.4477-1-1-1h-3.1119c-.3678-.00044-.6659-.29874-.6659-.66667 0-.73638-.5969-1.33333-1.3333-1.33333z"/><path d="m6 8c-.27965 0-.54652.1171-.73588.32289-.18935.20579-.28389.48147-.26066.76016l.77076 9.24915c.17276 2.0732 1.90583 3.6678 3.98618 3.6678h4.4792c2.0804 0 3.8134-1.5946 3.9862-3.6678l.7707-9.24915c.0233-.27869-.0713-.55437-.2606-.76016-.1894-.20579-.4562-.32289-.7359-.32289z"/></g></svg>