<svg xmlns="http://www.w3.org/2000/svg" viewBox="0 0 24 24" fill="currentColor">
  <path d="M11.553 3.064A.75.75 0 0 1 12 3.75v16.5a.75.75 0 0 1-1.255.555L5.46 16H2.75A1.75 1.75 0 0 1 1 14.25v-4.5C1 8.784 1.784 8 2.75 8h2.71l5.285-4.805a.75.75 0 0 1 .808-.131ZM10.5 5.445 6.255 9.305a.75.75 0 0 1-.505.195H2.75a.25.25 0 0 0-.25.25v4.5c0 .138.112.25.25.25h3a.75.75 0 0 1 .505.195l4.245 3.86V5.445Z"/>
  <path d="M22.28 9.22a.75.75 0 0 0-1.06 0L19 11.44l-2.22-2.22a.75.75 0 0 0-1.06 1.06L17.94 12.5l-2.22 2.22a.75.75 0 1 0 1.06 1.06L19 13.56l2.22 2.22a.75.75 0 1 0 1.06-1.06L20.06 12.5l2.22-2.22a.75.75 0 0 0 0-1.06Z"/>
</svg>
