<svg preserveAspectRatio="xMinYMin meet" overflow="visible" style="display: block;" viewBox="0 0 2338 1418.09" fill="none" xmlns="http://www.w3.org/2000/svg">
<g id="ISS">
<!-- Main gray/purple background sections -->
<path id="Polygon 131" d="M0 790.092H416.5L506 945.092L497 1418.09H0V790.092Z" fill="#D2C4E2"/>
<ellipse id="Ellipse 11" cx="414" cy="927.092" rx="93" ry="137" fill="#D2C4E2"/>
<path id="Ellipse 13" d="M539.5 435.092C537.52 488.555 502 541.592 429 537.092C378.19 537.092 358 493.26 358 446.592C358 399.923 399.19 362.092 450 362.092C500.81 362.092 541.5 381.092 539.5 435.092Z" fill="#D2C4E2"/>
<path id="Polygon 135" d="M0 0H558L539.5 432.092L428.5 537.092L0 528.592V0Z" fill="#D2C4E2"/>

<!-- Purple accent stripes -->
<rect id="Stripe1" x="0" y="350" width="550" height="80" rx="40" fill="#716791" opacity="0.6"/>
<rect id="Stripe2" x="0" y="460" width="480" height="75" rx="37" fill="#554B73" opacity="0.5"/>
<rect id="Stripe3" x="0" y="1060" width="500" height="80" rx="40" fill="#716791" opacity="0.6"/>
<rect id="Stripe4" x="0" y="1150" width="420" height="70" rx="35" fill="#554B73" opacity="0.5"/>

<!-- Subtle shadow/texture overlay -->
<path id="Shadow" opacity="0.15" d="M500 850C580 780 650 600 650 600L680 1418H100V980C100 980 380 950 500 850Z" fill="#4C3F79"/>
</g>
</svg>
