<svg preserveAspectRatio="none" width="100%" height="100%" overflow="visible" style="display: block;" viewBox="0 0 630.168 1570.92" fill="none" xmlns="http://www.w3.org/2000/svg">
<g id="Group 308">
<mask id="mask0_3634_26" style="mask-type:alpha" maskUnits="userSpaceOnUse" x="0" y="0" width="631" height="1571">
<rect id="Rectangle 479" width="593.866" height="1568.54" transform="matrix(0.999989 -0.00471591 0.0231483 0.999732 0 2.80061)" fill="var(--fill-0, #D2C4E2)"/>
</mask>
<g mask="url(#mask0_3634_26)">
<path id="Vector 273" d="M469.608 1065.93L353.916 1068.85C337.353 1069.26 324.265 1083.03 324.683 1099.59L324.906 1108.45C325.324 1125.01 339.09 1138.1 355.653 1137.68L471.345 1134.76C487.908 1134.34 500.997 1120.58 500.579 1104.02L500.355 1095.16C499.937 1078.6 486.171 1065.51 469.608 1065.93Z" fill="var(--fill-0, #716791)"/>
<path id="Vector 275" d="M439.023 1066.7L82.5451 1075.7C65.9819 1076.11 52.8936 1089.88 53.3116 1106.44L53.535 1115.3C53.9531 1131.86 67.7191 1144.95 84.2824 1144.53L440.76 1135.53C457.323 1135.12 470.412 1121.35 469.994 1104.79L469.77 1095.93C469.352 1079.37 455.586 1066.28 439.023 1066.7Z" fill="var(--fill-0, #554B73)"/>
<path id="Vector 278" opacity="0.2" d="M512.926 851.17C606.656 773.055 686.926 591.67 686.926 591.67L705.926 1559.17H130.926V979.17C130.926 979.17 392.064 951.897 512.926 851.17Z" fill="var(--fill-0, #4C3F79)"/>
</g>
</g>
</svg>
