<svg preserveAspectRatio="none" width="100%" height="100%" overflow="visible" style="display: block;" viewBox="0 0 124.562 6.24939" fill="none" xmlns="http://www.w3.org/2000/svg">
<g id="Group 174">
<path id="Vector 22" d="M123.781 0.624695L119.781 5.6247" stroke="var(--stroke-0, #F8E8D1)" stroke-width="2"/>
<path id="Vector 21" d="M116.781 0.624695L112.781 5.6247" stroke="var(--stroke-0, #F8E8D1)" stroke-width="2"/>
<path id="Vector 20" d="M109.781 0.624695L105.781 5.6247" stroke="var(--stroke-0, #F8E8D1)" stroke-width="2"/>
<g id="Group 171">
<path id="Vector 22_2" d="M102.781 0.624695L98.7809 5.6247" stroke="var(--stroke-0, #F8E8D1)" stroke-width="2"/>
<path id="Vector 21_2" d="M95.7809 0.624695L91.7809 5.6247" stroke="var(--stroke-0, #F8E8D1)" stroke-width="2"/>
<path id="Vector 20_2" d="M88.7809 0.624695L84.7809 5.6247" stroke="var(--stroke-0, #F8E8D1)" stroke-width="2"/>
</g>
<g id="Group 172">
<path id="Vector 22_3" d="M81.7809 0.624695L77.7809 5.6247" stroke="var(--stroke-0, #F8E8D1)" stroke-width="2"/>
<path id="Vector 21_3" d="M74.7809 0.624695L70.7809 5.6247" stroke="var(--stroke-0, #F8E8D1)" stroke-width="2"/>
<path id="Vector 20_3" d="M67.7809 0.624695L63.7809 5.6247" stroke="var(--stroke-0, #F8E8D1)" stroke-width="2"/>
<g id="Group 171_2">
<path id="Vector 22_4" d="M60.7809 0.624695L56.7809 5.6247" stroke="var(--stroke-0, #F8E8D1)" stroke-width="2"/>
<path id="Vector 21_4" d="M53.7809 0.624695L49.7809 5.6247" stroke="var(--stroke-0, #F8E8D1)" stroke-width="2"/>
<path id="Vector 20_4" d="M46.7809 0.624695L42.7809 5.6247" stroke="var(--stroke-0, #F8E8D1)" stroke-width="2"/>
</g>
</g>
<g id="Group 173">
<path id="Vector 22_5" d="M81.7809 0.624695L77.7809 5.6247" stroke="var(--stroke-0, #F8E8D1)" stroke-width="2"/>
<path id="Vector 21_5" d="M74.7809 0.624695L70.7809 5.6247" stroke="var(--stroke-0, #F8E8D1)" stroke-width="2"/>
<path id="Vector 20_5" d="M67.7809 0.624695L63.7809 5.6247" stroke="var(--stroke-0, #F8E8D1)" stroke-width="2"/>
<g id="Group 171_3">
<path id="Vector 22_6" d="M60.7809 0.624695L56.7809 5.6247" stroke="var(--stroke-0, #F8E8D1)" stroke-width="2"/>
<path id="Vector 21_6" d="M53.7809 0.624695L49.7809 5.6247" stroke="var(--stroke-0, #F8E8D1)" stroke-width="2"/>
<path id="Vector 20_6" d="M46.7809 0.624695L42.7809 5.6247" stroke="var(--stroke-0, #F8E8D1)" stroke-width="2"/>
</g>
<g id="Group 172_2">
<path id="Vector 22_7" d="M39.7809 0.624695L35.7809 5.6247" stroke="var(--stroke-0, #F8E8D1)" stroke-width="2"/>
<path id="Vector 21_7" d="M32.7809 0.624695L28.7809 5.6247" stroke="var(--stroke-0, #F8E8D1)" stroke-width="2"/>
<path id="Vector 20_7" d="M25.7809 0.624695L21.7809 5.6247" stroke="var(--stroke-0, #F8E8D1)" stroke-width="2"/>
<g id="Group 171_4">
<path id="Vector 22_8" d="M18.7809 0.624695L14.7809 5.6247" stroke="var(--stroke-0, #F8E8D1)" stroke-width="2"/>
<path id="Vector 21_8" d="M11.7809 0.624695L7.78087 5.6247" stroke="var(--stroke-0, #F8E8D1)" stroke-width="2"/>
<path id="Vector 20_8" d="M4.78087 0.624695L0.780869 5.6247" stroke="var(--stroke-0, #F8E8D1)" stroke-width="2"/>
</g>
</g>
</g>
</g>
</svg>
