<svg preserveAspectRatio="none" width="100%" height="100%" overflow="visible" style="display: block;" viewBox="0 0 2451.82 1624.69" fill="none" xmlns="http://www.w3.org/2000/svg">
<g id="Group 309">
<g id="Rectangle 381" opacity="0.39" filter="url(#filter0_f_3634_63)">
<path d="M411.688 497C411.688 497 414.56 510.045 418.888 514.211C423.023 518.191 435.924 521.587 435.924 521.587C435.924 521.587 423.002 525.201 418.888 529.315C414.774 533.429 411.688 545.648 411.688 545.648C411.688 545.648 408.601 533.429 404.487 529.315C400.373 525.201 387.101 521.587 387.101 521.587C387.101 521.587 400.352 518.191 404.487 514.211C408.815 510.045 411.688 497 411.688 497Z" fill="var(--fill-0, #FFF2FA)"/>
</g>
<path id="Rectangle 382" d="M410.778 505.762C411.162 504.903 412.526 504.903 412.91 505.762C414.057 508.329 416.065 512.213 418.607 514.66C421.197 517.152 425.52 519.401 428.113 520.623C428.913 521 428.926 522.203 428.134 522.596C425.54 523.885 421.192 526.26 418.607 528.845C416.121 531.33 414.035 535.24 412.863 537.714C412.475 538.532 411.213 538.532 410.825 537.714C409.653 535.24 407.567 531.33 405.081 528.845C402.496 526.26 398.148 523.885 395.554 522.596C394.762 522.203 394.775 521 395.575 520.623C398.168 519.401 402.492 517.152 405.081 514.66C407.624 512.213 409.631 508.329 410.778 505.762Z" fill="url(#paint0_radial_3634_63)"/>
<g id="Rectangle 387" opacity="0.39" filter="url(#filter1_f_3634_63)">
<path d="M394.678 1003C394.678 1003 397.198 1014.45 400.997 1018.1C404.626 1021.6 415.947 1024.58 415.947 1024.58C415.947 1024.58 404.608 1027.75 400.997 1031.36C397.386 1034.97 394.678 1045.69 394.678 1045.69C394.678 1045.69 391.969 1034.97 388.359 1031.36C384.748 1027.75 373.101 1024.58 373.101 1024.58C373.101 1024.58 384.73 1021.6 388.359 1018.1C392.157 1014.45 394.678 1003 394.678 1003Z" fill="var(--fill-0, #FFF2FA)"/>
</g>
<path id="Rectangle 388" d="M393.132 1012.27C393.763 1011.01 395.867 1011.01 396.498 1012.27C397.533 1014.34 398.996 1016.81 400.75 1018.5C402.623 1020.3 405.529 1021.96 407.767 1023.09C408.952 1023.68 408.971 1025.52 407.799 1026.14C405.553 1027.32 402.624 1029.07 400.75 1030.95C398.997 1032.7 397.471 1035.26 396.405 1037.32C395.782 1038.53 393.848 1038.53 393.224 1037.32C392.159 1035.26 390.632 1032.7 388.88 1030.95C387.006 1029.07 384.077 1027.32 381.831 1026.14C380.659 1025.52 380.678 1023.68 381.862 1023.09C384.1 1021.96 387.007 1020.3 388.88 1018.5C390.633 1016.81 392.097 1014.34 393.132 1012.27Z" fill="url(#paint1_radial_3634_63)"/>
<g id="Rectangle 401" opacity="0.39" filter="url(#filter2_f_3634_63)">
<path d="M1883.18 1173C1883.18 1173 1885.64 1184.18 1889.35 1187.75C1892.89 1191.16 1903.95 1194.08 1903.95 1194.08C1903.95 1194.08 1892.87 1197.17 1889.35 1200.7C1885.82 1204.23 1883.18 1214.7 1883.18 1214.7C1883.18 1214.7 1880.53 1204.23 1877 1200.7C1873.48 1197.17 1862.1 1194.08 1862.1 1194.08C1862.1 1194.08 1873.46 1191.16 1877 1187.75C1880.71 1184.18 1883.18 1173 1883.18 1173Z" fill="var(--fill-0, #F2F3FF)"/>
</g>
<path id="Rectangle 402" d="M1881.62 1182.14C1882.26 1180.88 1884.36 1180.88 1885 1182.14C1886 1184.15 1887.42 1186.51 1889.11 1188.14C1890.91 1189.88 1893.71 1191.48 1895.89 1192.58C1897.07 1193.18 1897.09 1195.01 1895.92 1195.64C1893.73 1196.8 1890.92 1198.49 1889.11 1200.3C1887.42 1201.99 1885.94 1204.44 1884.9 1206.45C1884.28 1207.65 1882.34 1207.65 1881.72 1206.45C1880.68 1204.44 1879.2 1201.99 1877.51 1200.3C1875.7 1198.49 1872.88 1196.8 1870.7 1195.64C1869.53 1195.01 1869.55 1193.18 1870.73 1192.58C1872.91 1191.48 1875.7 1189.88 1877.51 1188.14C1879.2 1186.51 1880.61 1184.15 1881.62 1182.14Z" fill="url(#paint2_radial_3634_63)"/>
<g id="Rectangle 417" opacity="0.39" filter="url(#filter3_f_3634_63)">
<path d="M281.674 1268C281.674 1268 284.077 1278.92 287.699 1282.4C291.159 1285.73 301.954 1288.57 301.954 1288.57C301.954 1288.57 291.142 1291.6 287.699 1295.04C284.256 1298.48 281.674 1308.71 281.674 1308.71C281.674 1308.71 279.091 1298.48 275.649 1295.04C272.206 1291.6 261.1 1288.57 261.1 1288.57C261.1 1288.57 272.189 1285.73 275.649 1282.4C279.271 1278.92 281.674 1268 281.674 1268Z" fill="var(--fill-0, #F2F3FF)"/>
</g>
<path id="Rectangle 418" d="M280.11 1277.01C280.748 1275.76 282.858 1275.76 283.496 1277.01C284.477 1278.95 285.839 1281.22 287.462 1282.78C289.207 1284.46 291.892 1286 294.005 1287.08C295.188 1287.68 295.207 1289.51 294.037 1290.14C291.916 1291.27 289.208 1292.9 287.462 1294.65C285.835 1296.27 284.413 1298.63 283.401 1300.57C282.773 1301.77 280.833 1301.77 280.205 1300.57C279.193 1298.63 277.771 1296.27 276.144 1294.65C274.398 1292.9 271.69 1291.27 269.569 1290.14C268.399 1289.51 268.418 1287.68 269.601 1287.08C271.714 1286 274.399 1284.46 276.144 1282.78C277.767 1281.22 279.129 1278.95 280.11 1277.01Z" fill="url(#paint3_radial_3634_63)"/>
<g id="Rectangle 403" opacity="0.39" filter="url(#filter4_f_3634_63)">
<path d="M361.194 710C361.194 710 364.242 723.844 368.835 728.265C373.223 732.489 386.915 736.094 386.915 736.094C386.915 736.094 373.201 739.928 368.835 744.294C364.469 748.661 361.193 761.628 361.193 761.628C361.193 761.628 357.918 748.661 353.552 744.294C349.185 739.928 335.1 736.094 335.1 736.094C335.1 736.094 349.163 732.489 353.552 728.265C358.145 723.844 361.194 710 361.194 710Z" fill="var(--fill-0, #F2F3FF)"/>
</g>
<path id="Rectangle 404" d="M359.71 720.417C360.318 719.143 362.398 719.143 363.005 720.417C364.266 723.061 366.185 726.48 368.535 728.741C370.99 731.105 374.914 733.262 377.685 734.619C378.876 735.203 378.896 737.027 377.718 737.634C374.94 739.066 370.989 741.341 368.535 743.796C366.211 746.12 364.216 749.617 362.923 752.211C362.318 753.427 360.398 753.427 359.792 752.211C358.5 749.617 356.505 746.12 354.181 743.796C351.726 741.341 347.775 739.066 344.998 737.634C343.819 737.027 343.839 735.203 345.03 734.619C347.801 733.262 351.725 731.105 354.181 728.741C356.531 726.48 358.45 723.061 359.71 720.417Z" fill="url(#paint4_radial_3634_63)"/>
<g id="Rectangle 399" opacity="0.39" filter="url(#filter5_f_3634_63)">
<path d="M89.7152 1091C89.7152 1091 93.525 1108.31 99.2667 1113.83C104.752 1119.11 121.866 1123.62 121.866 1123.62C121.866 1123.62 104.724 1128.41 99.2667 1133.87C93.8089 1139.32 89.7148 1155.53 89.7148 1155.53C89.7148 1155.53 85.6206 1139.32 80.1628 1133.87C74.7051 1128.41 57.0988 1123.62 57.0988 1123.62C57.0988 1123.62 74.6776 1119.11 80.1628 1113.83C85.9046 1108.31 89.7152 1091 89.7152 1091Z" fill="var(--fill-0, #F2F9FF)"/>
</g>
<path id="Rectangle 400" d="M88.3104 1103.07C88.8962 1101.78 90.9521 1101.78 91.538 1103.07C93.0873 1106.46 95.666 1111.32 98.8953 1114.43C102.21 1117.62 107.666 1120.51 111.135 1122.16C112.332 1122.73 112.351 1124.54 111.166 1125.14C107.693 1126.88 102.205 1129.93 98.8953 1133.24C95.7278 1136.41 93.0494 1141.32 91.4651 1144.61C90.8759 1145.84 88.9725 1145.84 88.3833 1144.61C86.799 1141.32 84.1206 1136.41 80.9531 1133.24C77.643 1129.93 72.155 1126.88 68.6822 1125.14C67.4971 1124.54 67.516 1122.73 68.7131 1122.16C72.1823 1120.51 77.6382 1117.62 80.9531 1114.43C84.1824 1111.32 86.7611 1106.46 88.3104 1103.07Z" fill="url(#paint5_radial_3634_63)"/>
<g id="Rectangle 385" opacity="0.28" filter="url(#filter6_f_3634_63)">
<path d="M602.426 715C602.426 715 603.983 722.071 606.329 724.329C608.57 726.486 615.562 728.327 615.562 728.327C615.562 728.327 608.559 730.285 606.329 732.515C604.099 734.745 602.426 741.368 602.426 741.368C602.426 741.368 600.753 734.745 598.523 732.515C596.293 730.285 589.1 728.327 589.1 728.327C589.1 728.327 596.282 726.486 598.523 724.329C600.869 722.071 602.426 715 602.426 715Z" fill="var(--fill-0, #FFF2FA)"/>
</g>
<path id="Rectangle 386" d="M600.792 724.389C601.6 723.232 603.807 723.232 604.615 724.389C604.917 724.82 605.247 725.227 605.602 725.568C606.107 726.054 606.766 726.519 607.438 726.93C608.57 727.622 608.59 729.496 607.471 730.208C606.786 730.644 606.113 731.136 605.602 731.648C605.189 732.061 604.802 732.565 604.453 733.09C603.702 734.221 601.705 734.221 600.954 733.09C600.605 732.565 600.218 732.061 599.805 731.648C599.294 731.136 598.621 730.644 597.936 730.208C596.817 729.496 596.837 727.622 597.969 726.93C598.641 726.519 599.3 726.054 599.805 725.568C600.16 725.227 600.49 724.82 600.792 724.389Z" fill="url(#paint6_radial_3634_63)"/>
<g id="Rectangle 397" opacity="0.28" filter="url(#filter7_f_3634_63)">
<path d="M288.426 854C288.426 854 289.983 861.071 292.329 863.329C294.57 865.486 301.562 867.327 301.562 867.327C301.562 867.327 294.559 869.285 292.329 871.515C290.099 873.745 288.426 880.368 288.426 880.368C288.426 880.368 286.753 873.745 284.523 871.515C282.293 869.285 275.1 867.327 275.1 867.327C275.1 867.327 282.282 865.486 284.523 863.329C286.869 861.071 288.426 854 288.426 854Z" fill="var(--fill-0, #FFF2FA)"/>
</g>
<path id="Rectangle 398" d="M285.792 862.389C286.6 861.232 288.807 861.232 289.615 862.389C289.917 862.82 290.247 863.227 290.602 863.568C291.107 864.054 291.766 864.519 292.438 864.93C293.57 865.622 293.59 867.496 292.471 868.208C291.786 868.644 291.113 869.136 290.602 869.648C290.189 870.061 289.802 870.565 289.453 871.09C288.702 872.221 286.705 872.221 285.954 871.09C285.605 870.565 285.218 870.061 284.805 869.648C284.294 869.136 283.621 868.644 282.936 868.208C281.817 867.496 281.837 865.622 282.969 864.93C283.641 864.519 284.3 864.054 284.805 863.568C285.16 863.227 285.49 862.82 285.792 862.389Z" fill="url(#paint7_radial_3634_63)"/>
<g id="Rectangle 423" opacity="0.28" filter="url(#filter8_f_3634_63)">
<path d="M190.426 928C190.426 928 191.983 935.071 194.329 937.329C196.57 939.486 203.562 941.327 203.562 941.327C203.562 941.327 196.559 943.285 194.329 945.515C192.099 947.745 190.426 954.368 190.426 954.368C190.426 954.368 188.753 947.745 186.523 945.515C184.293 943.285 177.1 941.327 177.1 941.327C177.1 941.327 184.282 939.486 186.523 937.329C188.869 935.071 190.426 928 190.426 928Z" fill="var(--fill-0, #FFF2FA)"/>
</g>
<path id="Rectangle 424" d="M187.792 936.389C188.6 935.232 190.807 935.232 191.615 936.389C191.917 936.82 192.247 937.227 192.602 937.568C193.107 938.054 193.766 938.519 194.438 938.93C195.57 939.622 195.59 941.496 194.471 942.208C193.786 942.644 193.113 943.136 192.602 943.648C192.189 944.061 191.802 944.565 191.453 945.09C190.702 946.221 188.705 946.221 187.954 945.09C187.605 944.565 187.218 944.061 186.805 943.648C186.294 943.136 185.621 942.644 184.936 942.208C183.817 941.496 183.837 939.622 184.969 938.93C185.641 938.519 186.3 938.054 186.805 937.568C187.16 937.227 187.49 936.82 187.792 936.389Z" fill="url(#paint8_radial_3634_63)"/>
<g id="Rectangle 425" opacity="0.28" filter="url(#filter9_f_3634_63)">
<path d="M879.426 286C879.426 286 880.983 293.071 883.329 295.329C885.57 297.486 892.562 299.327 892.562 299.327C892.562 299.327 885.559 301.285 883.329 303.515C881.099 305.745 879.426 312.368 879.426 312.368C879.426 312.368 877.753 305.745 875.523 303.515C873.293 301.285 866.1 299.327 866.1 299.327C866.1 299.327 873.282 297.486 875.523 295.329C877.869 293.071 879.426 286 879.426 286Z" fill="var(--fill-0, #FFF2FA)"/>
</g>
<path id="Rectangle 426" d="M876.792 294.389C877.6 293.232 879.807 293.232 880.615 294.389C880.917 294.82 881.247 295.227 881.602 295.568C882.107 296.054 882.766 296.519 883.438 296.93C884.57 297.622 884.59 299.496 883.471 300.208C882.786 300.644 882.113 301.136 881.602 301.648C881.189 302.061 880.802 302.565 880.453 303.09C879.702 304.221 877.705 304.221 876.954 303.09C876.605 302.565 876.218 302.061 875.805 301.648C875.294 301.136 874.621 300.644 873.936 300.208C872.817 299.496 872.837 297.622 873.969 296.93C874.641 296.519 875.3 296.054 875.805 295.568C876.16 295.227 876.49 294.82 876.792 294.389Z" fill="url(#paint9_radial_3634_63)"/>
<g id="Rectangle 419" opacity="0.28" filter="url(#filter10_f_3634_63)">
<path d="M169.426 1401C169.426 1401 170.983 1408.07 173.329 1410.33C175.57 1412.49 182.562 1414.33 182.562 1414.33C182.562 1414.33 175.559 1416.29 173.329 1418.51C171.099 1420.74 169.426 1427.37 169.426 1427.37C169.426 1427.37 167.753 1420.74 165.523 1418.51C163.293 1416.29 156.1 1414.33 156.1 1414.33C156.1 1414.33 163.282 1412.49 165.523 1410.33C167.869 1408.07 169.426 1401 169.426 1401Z" fill="var(--fill-0, #FFF2FA)"/>
</g>
<path id="Rectangle 420" d="M166.792 1409.39C167.6 1408.23 169.807 1408.23 170.615 1409.39C170.917 1409.82 171.247 1410.23 171.602 1410.57C172.107 1411.05 172.766 1411.52 173.438 1411.93C174.57 1412.62 174.59 1414.5 173.471 1415.21C172.786 1415.64 172.113 1416.14 171.602 1416.65C171.189 1417.06 170.802 1417.57 170.453 1418.09C169.702 1419.22 167.705 1419.22 166.954 1418.09C166.605 1417.57 166.218 1417.06 165.805 1416.65C165.294 1416.14 164.621 1415.64 163.936 1415.21C162.817 1414.5 162.837 1412.62 163.969 1411.93C164.641 1411.52 165.3 1411.05 165.805 1410.57C166.16 1410.23 166.49 1409.82 166.792 1409.39Z" fill="url(#paint10_radial_3634_63)"/>
<g id="Rectangle 435" opacity="0.39" filter="url(#filter11_f_3634_63)">
<path d="M1035.68 639C1035.68 639 1038.08 649.916 1041.7 653.402C1045.16 656.732 1055.96 659.574 1055.96 659.574C1055.96 659.574 1045.14 662.597 1041.7 666.04C1038.26 669.483 1035.68 679.707 1035.68 679.707C1035.68 679.707 1033.09 669.483 1029.65 666.04C1026.21 662.597 1015.1 659.574 1015.1 659.574C1015.1 659.574 1026.19 656.732 1029.65 653.402C1033.27 649.916 1035.68 639 1035.68 639Z" fill="var(--fill-0, #F2F3FF)"/>
</g>
<path id="Rectangle 436" d="M1034.11 648.015C1034.75 646.755 1036.86 646.755 1037.5 648.015C1038.48 649.953 1039.84 652.215 1041.46 653.777C1043.21 655.456 1045.89 657.004 1048.01 658.076C1049.19 658.677 1049.21 660.513 1048.04 661.137C1045.92 662.269 1043.21 663.9 1041.46 665.647C1039.84 667.273 1038.41 669.629 1037.4 671.569C1036.77 672.773 1034.84 672.773 1034.21 671.569C1033.2 669.629 1031.77 667.273 1030.15 665.647C1028.4 663.9 1025.69 662.269 1023.57 661.137C1022.4 660.513 1022.42 658.677 1023.6 658.076C1025.72 657.004 1028.4 655.456 1030.15 653.777C1031.77 652.215 1033.13 649.953 1034.11 648.015Z" fill="url(#paint11_radial_3634_63)"/>
<g id="Rectangle 437" opacity="0.39" filter="url(#filter12_f_3634_63)">
<path d="M843.717 462C843.717 462 847.527 479.305 853.269 484.831C858.754 490.111 875.868 494.616 875.868 494.616C875.868 494.616 858.726 499.41 853.269 504.867C847.811 510.325 843.717 526.534 843.717 526.534C843.717 526.534 839.623 510.325 834.165 504.867C828.707 499.41 811.101 494.617 811.101 494.617C811.101 494.617 828.68 490.111 834.165 484.831C839.907 479.305 843.717 462 843.717 462Z" fill="var(--fill-0, #F2F9FF)"/>
</g>
<path id="Rectangle 438" d="M842.312 474.066C842.898 472.782 844.954 472.782 845.54 474.066C847.089 477.462 849.668 482.319 852.897 485.427C856.212 488.617 861.668 491.507 865.137 493.162C866.334 493.733 866.353 495.543 865.168 496.139C861.695 497.884 856.207 500.934 852.897 504.244C849.73 507.412 847.051 512.323 845.467 515.613C844.878 516.837 842.975 516.837 842.385 515.613C840.801 512.323 838.123 507.412 834.955 504.244C831.645 500.934 826.157 497.884 822.684 496.139C821.499 495.543 821.518 493.733 822.715 493.162C826.184 491.507 831.64 488.617 834.955 485.427C838.184 482.319 840.763 477.462 842.312 474.066Z" fill="url(#paint12_radial_3634_63)"/>
<g id="Rectangle 447" opacity="0.28" filter="url(#filter13_f_3634_63)">
<path d="M1700.43 449C1700.43 449 1701.98 456.071 1704.33 458.329C1706.57 460.486 1713.56 462.327 1713.56 462.327C1713.56 462.327 1706.56 464.285 1704.33 466.515C1702.1 468.745 1700.43 475.368 1700.43 475.368C1700.43 475.368 1698.75 468.745 1696.52 466.515C1694.29 464.285 1687.1 462.327 1687.1 462.327C1687.1 462.327 1694.28 460.486 1696.52 458.329C1698.87 456.071 1700.43 449 1700.43 449Z" fill="var(--fill-0, #FFF2FA)"/>
</g>
<path id="Rectangle 448" d="M1697.79 457.389C1698.6 456.232 1700.81 456.232 1701.62 457.389C1701.92 457.82 1702.25 458.227 1702.6 458.568C1703.11 459.054 1703.77 459.519 1704.44 459.93C1705.57 460.622 1705.59 462.496 1704.47 463.208C1703.79 463.644 1703.11 464.136 1702.6 464.648C1702.19 465.061 1701.8 465.565 1701.45 466.09C1700.7 467.221 1698.71 467.221 1697.95 466.09C1697.61 465.565 1697.22 465.061 1696.81 464.648C1696.29 464.136 1695.62 463.644 1694.94 463.208C1693.82 462.496 1693.84 460.622 1694.97 459.93C1695.64 459.519 1696.3 459.054 1696.81 458.568C1697.16 458.227 1697.49 457.82 1697.79 457.389Z" fill="url(#paint13_radial_3634_63)"/>
<g id="Rectangle 449" opacity="0.39" filter="url(#filter14_f_3634_63)">
<path d="M1664.72 625C1664.72 625 1668.53 642.305 1674.27 647.831C1679.75 653.111 1696.87 657.616 1696.87 657.616C1696.87 657.616 1679.73 662.41 1674.27 667.867C1668.81 673.325 1664.72 689.534 1664.72 689.534C1664.72 689.534 1660.62 673.325 1655.16 667.867C1649.71 662.41 1632.1 657.617 1632.1 657.617C1632.1 657.617 1649.68 653.111 1655.16 647.831C1660.91 642.305 1664.72 625 1664.72 625Z" fill="var(--fill-0, #F2F9FF)"/>
</g>
<path id="Rectangle 450" d="M1663.31 637.066C1663.9 635.782 1665.95 635.782 1666.54 637.066C1668.09 640.462 1670.67 645.319 1673.9 648.427C1677.21 651.617 1682.67 654.507 1686.14 656.162C1687.33 656.733 1687.35 658.543 1686.17 659.139C1682.7 660.884 1677.21 663.934 1673.9 667.244C1670.73 670.412 1668.05 675.323 1666.47 678.613C1665.88 679.837 1663.97 679.837 1663.39 678.613C1661.8 675.323 1659.12 670.412 1655.96 667.244C1652.65 663.934 1647.16 660.884 1643.68 659.139C1642.5 658.543 1642.52 656.733 1643.72 656.162C1647.18 654.507 1652.64 651.617 1655.96 648.427C1659.18 645.319 1661.76 640.462 1663.31 637.066Z" fill="url(#paint14_radial_3634_63)"/>
<g id="Rectangle 439" opacity="0.28" filter="url(#filter15_f_3634_63)">
<path d="M923.428 772C923.428 772 924.985 779.071 927.331 781.329C929.572 783.486 936.564 785.327 936.564 785.327C936.564 785.327 929.561 787.285 927.331 789.515C925.101 791.745 923.428 798.368 923.428 798.368C923.428 798.368 921.755 791.745 919.525 789.515C917.295 787.285 910.102 785.327 910.102 785.327C910.102 785.327 917.284 783.486 919.525 781.329C921.871 779.071 923.428 772 923.428 772Z" fill="var(--fill-0, #FFF2FA)"/>
</g>
<path id="Rectangle 440" d="M920.793 780.389C921.602 779.232 923.809 779.232 924.617 780.389C924.919 780.82 925.249 781.227 925.604 781.568C926.109 782.054 926.768 782.519 927.44 782.93C928.572 783.622 928.592 785.496 927.473 786.208C926.788 786.644 926.115 787.136 925.604 787.648C925.191 788.061 924.804 788.565 924.455 789.09C923.704 790.221 921.707 790.221 920.956 789.09C920.607 788.565 920.22 788.061 919.807 787.648C919.296 787.136 918.623 786.644 917.938 786.208C916.819 785.496 916.839 783.622 917.971 782.93C918.643 782.519 919.302 782.054 919.807 781.568C920.162 781.227 920.492 780.82 920.793 780.389Z" fill="url(#paint15_radial_3634_63)"/>
<g id="Rectangle 389" opacity="0.28" filter="url(#filter16_f_3634_63)">
<path d="M2071.16 1097C2071.16 1097 2073.15 1106.05 2076.16 1108.94C2079.03 1111.7 2087.98 1114.06 2087.98 1114.06C2087.98 1114.06 2079.01 1116.57 2076.16 1119.42C2073.3 1122.28 2071.16 1130.76 2071.16 1130.76C2071.16 1130.76 2069.02 1122.28 2066.16 1119.42C2063.31 1116.57 2054.1 1114.06 2054.1 1114.06C2054.1 1114.06 2063.29 1111.7 2066.16 1108.94C2069.17 1106.05 2071.16 1097 2071.16 1097Z" fill="var(--fill-0, #FFF2FA)"/>
</g>
<path id="Rectangle 390" d="M2069.71 1108.03C2070.43 1106.81 2072.6 1106.81 2073.32 1108.03C2073.86 1108.93 2074.51 1109.84 2075.23 1110.53C2076.09 1111.36 2077.3 1112.14 2078.44 1112.77C2079.6 1113.42 2079.61 1115.28 2078.47 1115.95C2077.32 1116.62 2076.09 1117.45 2075.23 1118.31C2074.46 1119.08 2073.77 1120.08 2073.19 1121.06C2072.5 1122.23 2070.53 1122.23 2069.84 1121.06C2069.26 1120.08 2068.57 1119.08 2067.81 1118.31C2066.94 1117.45 2065.71 1116.62 2064.56 1115.95C2063.42 1115.28 2063.44 1113.42 2064.59 1112.77C2065.73 1112.14 2066.94 1111.36 2067.81 1110.53C2068.53 1109.84 2069.17 1108.93 2069.71 1108.03Z" fill="url(#paint16_radial_3634_63)"/>
<g id="Rectangle 405" opacity="0.28" filter="url(#filter17_f_3634_63)">
<path d="M2429.16 941C2429.16 941 2431.15 950.052 2434.16 952.943C2437.03 955.704 2445.98 958.061 2445.98 958.061C2445.98 958.061 2437.01 960.568 2434.16 963.423C2431.3 966.278 2429.16 974.757 2429.16 974.757C2429.16 974.757 2427.02 966.278 2424.16 963.423C2421.31 960.568 2412.1 958.061 2412.1 958.061C2412.1 958.061 2421.29 955.704 2424.16 952.943C2427.17 950.052 2429.16 941 2429.16 941Z" fill="var(--fill-0, #FFF2FA)"/>
</g>
<path id="Rectangle 406" d="M2427.71 952.026C2428.43 950.813 2430.6 950.813 2431.32 952.026C2431.86 952.932 2432.51 953.836 2433.23 954.53C2434.09 955.36 2435.3 956.14 2436.44 956.775C2437.6 957.422 2437.61 959.283 2436.47 959.952C2435.32 960.623 2434.09 961.447 2433.23 962.313C2432.46 963.076 2431.77 964.082 2431.19 965.058C2430.5 966.228 2428.53 966.228 2427.84 965.058C2427.26 964.082 2426.57 963.076 2425.81 962.313C2424.94 961.447 2423.71 960.623 2422.56 959.952C2421.42 959.283 2421.44 957.422 2422.59 956.775C2423.73 956.14 2424.94 955.36 2425.81 954.53C2426.53 953.836 2427.17 952.932 2427.71 952.026Z" fill="url(#paint17_radial_3634_63)"/>
<g id="Rectangle 393" opacity="0.28" filter="url(#filter18_f_3634_63)">
<path d="M2250.16 478C2250.16 478 2252.15 487.052 2255.16 489.943C2258.03 492.704 2266.98 495.061 2266.98 495.061C2266.98 495.061 2258.01 497.568 2255.16 500.423C2252.3 503.278 2250.16 511.757 2250.16 511.757C2250.16 511.757 2248.02 503.278 2245.16 500.423C2242.31 497.568 2233.1 495.061 2233.1 495.061C2233.1 495.061 2242.29 492.704 2245.16 489.943C2248.17 487.052 2250.16 478 2250.16 478Z" fill="var(--fill-0, #FFF2FA)"/>
</g>
<path id="Rectangle 394" d="M2248.71 489.026C2249.43 487.813 2251.6 487.813 2252.32 489.026C2252.86 489.932 2253.51 490.836 2254.23 491.53C2255.09 492.36 2256.3 493.14 2257.44 493.775C2258.6 494.422 2258.61 496.283 2257.47 496.952C2256.32 497.623 2255.09 498.447 2254.23 499.313C2253.46 500.076 2252.77 501.082 2252.19 502.058C2251.5 503.228 2249.53 503.228 2248.84 502.058C2248.26 501.082 2247.57 500.076 2246.81 499.313C2245.94 498.447 2244.71 497.623 2243.56 496.952C2242.42 496.283 2242.44 494.422 2243.59 493.775C2244.73 493.14 2245.94 492.36 2246.81 491.53C2247.53 490.836 2248.17 489.932 2248.71 489.026Z" fill="url(#paint18_radial_3634_63)"/>
<g id="Rectangle 383" opacity="0.39" filter="url(#filter19_f_3634_63)">
<path d="M2184.22 901C2184.22 901 2187.74 916.983 2193.04 922.086C2198.11 926.962 2213.92 931.124 2213.92 931.124C2213.92 931.124 2198.09 935.55 2193.04 940.591C2188 945.632 2184.22 960.602 2184.22 960.602C2184.22 960.602 2180.44 945.632 2175.4 940.591C2170.36 935.55 2154.1 931.124 2154.1 931.124C2154.1 931.124 2170.33 926.962 2175.4 922.086C2180.7 916.983 2184.22 901 2184.22 901Z" fill="var(--fill-0, #FFF2FA)"/>
</g>
<path id="Rectangle 384" d="M2183.36 911.152C2183.74 910.289 2185.09 910.289 2185.46 911.152C2186.81 914.264 2189.38 919.447 2192.7 922.636C2196.04 925.851 2201.73 928.735 2204.83 930.168C2205.63 930.54 2205.64 931.736 2204.85 932.124C2201.75 933.636 2196.03 936.683 2192.7 940.015C2189.47 943.239 2186.8 948.417 2185.42 951.394C2185.04 952.216 2183.78 952.216 2183.4 951.394C2182.03 948.417 2179.35 943.239 2176.13 940.015C2172.79 936.683 2167.07 933.636 2163.98 932.124C2163.18 931.736 2163.19 930.54 2164 930.168C2167.09 928.735 2172.79 925.851 2176.13 922.636C2179.44 919.447 2182.01 914.264 2183.36 911.152Z" fill="url(#paint19_radial_3634_63)"/>
<g id="Rectangle 391" opacity="0.39" filter="url(#filter20_f_3634_63)">
<path d="M1876.7 682C1876.7 682 1879.92 696.643 1884.78 701.319C1889.42 705.786 1903.9 709.598 1903.9 709.598C1903.9 709.598 1889.4 713.654 1884.78 718.272C1880.16 722.89 1876.7 736.605 1876.7 736.605C1876.7 736.605 1873.23 722.89 1868.61 718.272C1864 713.654 1849.1 709.598 1849.1 709.598C1849.1 709.598 1863.97 705.786 1868.61 701.319C1873.47 696.643 1876.7 682 1876.7 682Z" fill="var(--fill-0, #FFF2FA)"/>
</g>
<g id="Rectangle 392">
<path d="M1875.81 691.518C1876.19 690.656 1877.55 690.656 1877.93 691.518C1879.19 694.387 1881.5 698.973 1884.46 701.822C1887.46 704.705 1892.52 707.298 1895.39 708.638C1896.19 709.011 1896.21 710.213 1895.41 710.604C1892.54 712.017 1887.45 714.755 1884.46 717.744C1881.58 720.629 1879.17 725.225 1877.88 727.978C1877.5 728.798 1876.24 728.798 1875.86 727.978C1874.57 725.225 1872.16 720.629 1869.28 717.744C1866.29 714.755 1861.2 712.017 1858.33 710.604C1857.53 710.213 1857.55 709.011 1858.35 708.638C1861.22 707.298 1866.28 704.705 1869.28 701.822C1872.24 698.973 1874.55 694.387 1875.81 691.518Z" fill="url(#paint20_radial_3634_63)"/>
<path d="M1875.81 691.518C1876.19 690.656 1877.55 690.656 1877.93 691.518C1879.19 694.387 1881.5 698.973 1884.46 701.822C1887.46 704.705 1892.52 707.298 1895.39 708.638C1896.19 709.011 1896.21 710.213 1895.41 710.604C1892.54 712.017 1887.45 714.755 1884.46 717.744C1881.58 720.629 1879.17 725.225 1877.88 727.978C1877.5 728.798 1876.24 728.798 1875.86 727.978C1874.57 725.225 1872.16 720.629 1869.28 717.744C1866.29 714.755 1861.2 712.017 1858.33 710.604C1857.53 710.213 1857.55 709.011 1858.35 708.638C1861.22 707.298 1866.28 704.705 1869.28 701.822C1872.24 698.973 1874.55 694.387 1875.81 691.518Z" fill="url(#paint21_radial_3634_63)"/>
</g>
<g id="Rectangle 411" opacity="0.39" filter="url(#filter21_f_3634_63)">
<path d="M151.666 430C151.666 430 153.835 439.851 157.103 442.996C160.226 446.002 169.967 448.566 169.967 448.566C169.967 448.566 160.21 451.295 157.103 454.401C153.997 457.508 151.666 466.735 151.666 466.735C151.666 466.735 149.336 457.508 146.229 454.401C143.122 451.295 133.1 448.566 133.1 448.566C133.1 448.566 143.107 446.002 146.229 442.996C149.497 439.851 151.666 430 151.666 430Z" fill="var(--fill-0, #FFF2FA)"/>
</g>
<g id="Rectangle 412">
<path d="M150.69 437.242C151.09 436.391 152.473 436.391 152.873 437.242C153.768 439.145 155.166 441.677 156.888 443.335C158.679 445.058 161.566 446.627 163.544 447.588C164.339 447.974 164.352 449.187 163.565 449.589C161.583 450.603 158.677 452.258 156.888 454.047C155.189 455.746 153.736 458.328 152.82 460.187C152.42 460.999 151.144 460.999 150.743 460.187C149.827 458.328 148.375 455.746 146.675 454.047C144.886 452.258 141.98 450.603 139.999 449.589C139.211 449.187 139.224 447.974 140.019 447.588C141.997 446.627 144.885 445.058 146.675 443.335C148.398 441.677 149.795 439.145 150.69 437.242Z" fill="url(#paint22_radial_3634_63)"/>
<path d="M150.69 437.242C151.09 436.391 152.473 436.391 152.873 437.242C153.768 439.145 155.166 441.677 156.888 443.335C158.679 445.058 161.566 446.627 163.544 447.588C164.339 447.974 164.352 449.187 163.565 449.589C161.583 450.603 158.677 452.258 156.888 454.047C155.189 455.746 153.736 458.328 152.82 460.187C152.42 460.999 151.144 460.999 150.743 460.187C149.827 458.328 148.375 455.746 146.675 454.047C144.886 452.258 141.98 450.603 139.999 449.589C139.211 449.187 139.224 447.974 140.019 447.588C141.997 446.627 144.885 445.058 146.675 443.335C148.398 441.677 149.795 439.145 150.69 437.242Z" fill="url(#paint23_radial_3634_63)"/>
</g>
<g id="Rectangle 409" opacity="0.39" filter="url(#filter22_f_3634_63)">
<path d="M2391.7 1274C2391.7 1274 2394.92 1288.64 2399.78 1293.32C2404.42 1297.79 2418.9 1301.6 2418.9 1301.6C2418.9 1301.6 2404.4 1305.65 2399.78 1310.27C2395.16 1314.89 2391.7 1328.6 2391.7 1328.6C2391.7 1328.6 2388.23 1314.89 2383.61 1310.27C2379 1305.65 2364.1 1301.6 2364.1 1301.6C2364.1 1301.6 2378.97 1297.79 2383.61 1293.32C2388.47 1288.64 2391.7 1274 2391.7 1274Z" fill="var(--fill-0, #FFF2FA)"/>
</g>
<g id="Rectangle 410">
<path d="M2390.81 1283.52C2391.19 1282.66 2392.55 1282.66 2392.93 1283.52C2394.19 1286.39 2396.5 1290.97 2399.46 1293.82C2402.46 1296.7 2407.52 1299.3 2410.39 1300.64C2411.19 1301.01 2411.21 1302.21 2410.41 1302.6C2407.54 1304.02 2402.45 1306.76 2399.46 1309.74C2396.58 1312.63 2394.17 1317.22 2392.88 1319.98C2392.5 1320.8 2391.24 1320.8 2390.86 1319.98C2389.57 1317.22 2387.16 1312.63 2384.28 1309.74C2381.29 1306.76 2376.2 1304.02 2373.33 1302.6C2372.53 1302.21 2372.55 1301.01 2373.35 1300.64C2376.22 1299.3 2381.28 1296.7 2384.28 1293.82C2387.24 1290.97 2389.55 1286.39 2390.81 1283.52Z" fill="url(#paint24_radial_3634_63)"/>
<path d="M2390.81 1283.52C2391.19 1282.66 2392.55 1282.66 2392.93 1283.52C2394.19 1286.39 2396.5 1290.97 2399.46 1293.82C2402.46 1296.7 2407.52 1299.3 2410.39 1300.64C2411.19 1301.01 2411.21 1302.21 2410.41 1302.6C2407.54 1304.02 2402.45 1306.76 2399.46 1309.74C2396.58 1312.63 2394.17 1317.22 2392.88 1319.98C2392.5 1320.8 2391.24 1320.8 2390.86 1319.98C2389.57 1317.22 2387.16 1312.63 2384.28 1309.74C2381.29 1306.76 2376.2 1304.02 2373.33 1302.6C2372.53 1302.21 2372.55 1301.01 2373.35 1300.64C2376.22 1299.3 2381.28 1296.7 2384.28 1293.82C2387.24 1290.97 2389.55 1286.39 2390.81 1283.52Z" fill="url(#paint25_radial_3634_63)"/>
</g>
<g id="Rectangle 395" opacity="0.39" filter="url(#filter23_f_3634_63)">
<path d="M99.6976 660C99.6976 660 102.921 674.643 107.78 679.319C112.421 683.786 126.902 687.598 126.902 687.598C126.902 687.598 112.398 691.654 107.78 696.272C103.162 700.89 99.6973 714.605 99.6973 714.605C99.6973 714.605 96.233 700.89 91.615 696.272C86.9969 691.654 72.0995 687.598 72.0995 687.598C72.0995 687.598 86.9737 683.786 91.615 679.319C96.4733 674.643 99.6976 660 99.6976 660Z" fill="var(--fill-0, #FFF2FA)"/>
</g>
<path id="Rectangle 396" d="M98.8137 669.518C99.1922 668.656 100.547 668.656 100.925 669.518C102.186 672.387 104.5 676.973 107.46 679.822C110.456 682.705 115.517 685.298 118.391 686.638C119.192 687.011 119.205 688.213 118.412 688.604C115.538 690.017 110.449 692.755 107.46 695.744C104.575 698.629 102.169 703.225 100.882 705.978C100.499 706.798 99.2405 706.798 98.8569 705.978C97.5696 703.225 95.1639 698.629 92.2787 695.744C89.2896 692.755 84.2014 690.017 81.3271 688.604C80.5337 688.213 80.5469 687.011 81.3483 686.638C84.2221 685.298 89.2834 682.705 92.2787 679.822C95.2391 676.973 97.5533 672.387 98.8137 669.518Z" fill="url(#paint26_radial_3634_63)"/>
<g id="Rectangle 407" opacity="0.39" filter="url(#filter24_f_3634_63)">
<path d="M2313.67 1077C2313.67 1077 2315.96 1087.38 2319.4 1090.7C2322.69 1093.87 2332.96 1096.57 2332.96 1096.57C2332.96 1096.57 2322.68 1099.45 2319.4 1102.72C2316.13 1105.99 2313.67 1115.72 2313.67 1115.72C2313.67 1115.72 2311.21 1105.99 2307.94 1102.72C2304.66 1099.45 2294.1 1096.57 2294.1 1096.57C2294.1 1096.57 2304.65 1093.87 2307.94 1090.7C2311.38 1087.38 2313.67 1077 2313.67 1077Z" fill="var(--fill-0, #FFF2FA)"/>
</g>
<path id="Rectangle 408" d="M2312.71 1084.49C2313.1 1083.64 2314.48 1083.64 2314.88 1084.49C2315.82 1086.51 2317.32 1089.27 2319.17 1091.06C2321.1 1092.91 2324.22 1094.59 2326.3 1095.59C2327.1 1095.98 2327.11 1097.19 2326.32 1097.59C2324.23 1098.65 2321.09 1100.43 2319.17 1102.35C2317.35 1104.17 2315.79 1106.97 2314.83 1108.94C2314.43 1109.75 2313.15 1109.75 2312.76 1108.94C2311.79 1106.97 2310.24 1104.17 2308.41 1102.35C2306.49 1100.43 2303.35 1098.65 2301.26 1097.59C2300.47 1097.19 2300.48 1095.98 2301.28 1095.59C2303.37 1094.59 2306.49 1092.91 2308.41 1091.06C2310.27 1089.27 2311.77 1086.51 2312.71 1084.49Z" fill="url(#paint27_radial_3634_63)"/>
<g id="Rectangle 451" opacity="0.39" filter="url(#filter25_f_3634_63)">
<path d="M756.696 1506C756.696 1506 759.919 1520.64 764.778 1525.32C769.419 1529.79 783.9 1533.6 783.9 1533.6C783.9 1533.6 769.396 1537.65 764.778 1542.27C760.16 1546.89 756.695 1560.6 756.695 1560.6C756.695 1560.6 753.231 1546.89 748.613 1542.27C743.995 1537.65 729.098 1533.6 729.098 1533.6C729.098 1533.6 743.972 1529.79 748.613 1525.32C753.471 1520.64 756.696 1506 756.696 1506Z" fill="var(--fill-0, #FFF2FA)"/>
</g>
<g id="Rectangle 452">
<path d="M755.812 1515.52C756.19 1514.66 757.545 1514.66 757.923 1515.52C759.184 1518.39 761.498 1522.97 764.458 1525.82C767.454 1528.7 772.515 1531.3 775.389 1532.64C776.19 1533.01 776.203 1534.21 775.41 1534.6C772.536 1536.02 767.448 1538.75 764.458 1541.74C761.573 1544.63 759.168 1549.22 757.88 1551.98C757.497 1552.8 756.239 1552.8 755.855 1551.98C754.568 1549.22 752.162 1544.63 749.277 1541.74C746.288 1538.75 741.199 1536.02 738.325 1534.6C737.532 1534.21 737.545 1533.01 738.346 1532.64C741.22 1531.3 746.281 1528.7 749.277 1525.82C752.237 1522.97 754.551 1518.39 755.812 1515.52Z" fill="url(#paint28_radial_3634_63)"/>
<path d="M755.812 1515.52C756.19 1514.66 757.545 1514.66 757.923 1515.52C759.184 1518.39 761.498 1522.97 764.458 1525.82C767.454 1528.7 772.515 1531.3 775.389 1532.64C776.19 1533.01 776.203 1534.21 775.41 1534.6C772.536 1536.02 767.448 1538.75 764.458 1541.74C761.573 1544.63 759.168 1549.22 757.88 1551.98C757.497 1552.8 756.239 1552.8 755.855 1551.98C754.568 1549.22 752.162 1544.63 749.277 1541.74C746.288 1538.75 741.199 1536.02 738.325 1534.6C737.532 1534.21 737.545 1533.01 738.346 1532.64C741.22 1531.3 746.281 1528.7 749.277 1525.82C752.237 1522.97 754.551 1518.39 755.812 1515.52Z" fill="url(#paint29_radial_3634_63)"/>
</g>
<g id="Rectangle 453" opacity="0.39" filter="url(#filter26_f_3634_63)">
<path d="M678.668 1309C678.668 1309 680.954 1319.38 684.399 1322.7C687.69 1325.87 697.958 1328.57 697.958 1328.57C697.958 1328.57 687.674 1331.44 684.399 1334.72C681.125 1337.99 678.668 1347.72 678.668 1347.72C678.668 1347.72 676.212 1337.99 672.937 1334.72C669.663 1331.44 659.099 1328.57 659.099 1328.57C659.099 1328.57 669.646 1325.87 672.937 1322.7C676.382 1319.38 678.668 1309 678.668 1309Z" fill="var(--fill-0, #FFF2FA)"/>
</g>
<path id="Rectangle 454" d="M677.704 1316.49C678.101 1315.64 679.478 1315.64 679.875 1316.49C680.815 1318.51 682.314 1321.27 684.172 1323.06C686.094 1324.91 689.215 1326.59 691.301 1327.59C692.097 1327.98 692.109 1329.19 691.321 1329.59C689.232 1330.65 686.091 1332.43 684.172 1334.35C682.343 1336.17 680.786 1338.97 679.825 1340.94C679.427 1341.75 678.152 1341.75 677.754 1340.94C676.792 1338.97 675.236 1336.17 673.407 1334.35C671.487 1332.43 668.347 1330.65 666.258 1329.59C665.47 1329.19 665.482 1327.98 666.278 1327.59C668.364 1326.59 671.485 1324.91 673.407 1323.06C675.265 1321.27 676.764 1318.51 677.704 1316.49Z" fill="url(#paint30_radial_3634_63)"/>
<g id="Rectangle 441" opacity="0.28" filter="url(#filter27_f_3634_63)">
<path d="M1146.16 1047C1146.16 1047 1148.15 1056.05 1151.16 1058.94C1154.03 1061.7 1162.98 1064.06 1162.98 1064.06C1162.98 1064.06 1154.01 1066.57 1151.16 1069.42C1148.3 1072.28 1146.16 1080.76 1146.16 1080.76C1146.16 1080.76 1144.02 1072.28 1141.16 1069.42C1138.31 1066.57 1129.1 1064.06 1129.1 1064.06C1129.1 1064.06 1138.29 1061.7 1141.16 1058.94C1144.17 1056.05 1146.16 1047 1146.16 1047Z" fill="var(--fill-0, #FFF2FA)"/>
</g>
<path id="Rectangle 442" d="M1144.71 1058.03C1145.43 1056.81 1147.6 1056.81 1148.32 1058.03C1148.86 1058.93 1149.51 1059.84 1150.23 1060.53C1151.09 1061.36 1152.3 1062.14 1153.44 1062.77C1154.6 1063.42 1154.61 1065.28 1153.47 1065.95C1152.32 1066.62 1151.09 1067.45 1150.23 1068.31C1149.46 1069.08 1148.77 1070.08 1148.19 1071.06C1147.5 1072.23 1145.53 1072.23 1144.84 1071.06C1144.26 1070.08 1143.57 1069.08 1142.81 1068.31C1141.94 1067.45 1140.71 1066.62 1139.56 1065.95C1138.42 1065.28 1138.44 1063.42 1139.59 1062.77C1140.73 1062.14 1141.94 1061.36 1142.81 1060.53C1143.53 1059.84 1144.17 1058.93 1144.71 1058.03Z" fill="url(#paint31_radial_3634_63)"/>
<g id="Rectangle 443" opacity="0.39" filter="url(#filter28_f_3634_63)">
<path d="M901.223 1007C901.223 1007 904.742 1022.98 910.045 1028.09C915.111 1032.96 930.916 1037.12 930.916 1037.12C930.916 1037.12 915.085 1041.55 910.045 1046.59C905.004 1051.63 901.223 1066.6 901.223 1066.6C901.223 1066.6 897.441 1051.63 892.401 1046.59C887.36 1041.55 871.099 1037.12 871.099 1037.12C871.099 1037.12 887.335 1032.96 892.401 1028.09C897.704 1022.98 901.223 1007 901.223 1007Z" fill="var(--fill-0, #FFF2FA)"/>
</g>
<path id="Rectangle 444" d="M900.363 1017.15C900.738 1016.29 902.087 1016.29 902.462 1017.15C903.812 1020.26 906.384 1025.45 909.698 1028.64C913.038 1031.85 918.732 1034.74 921.829 1036.17C922.631 1036.54 922.644 1037.74 921.849 1038.12C918.753 1039.64 913.03 1042.68 909.698 1046.02C906.475 1049.24 903.8 1054.42 902.421 1057.39C902.04 1058.22 900.785 1058.22 900.404 1057.39C899.025 1054.42 896.35 1049.24 893.127 1046.02C889.795 1042.68 884.072 1039.64 880.976 1038.12C880.181 1037.74 880.194 1036.54 880.996 1036.17C884.093 1034.74 889.787 1031.85 893.127 1028.64C896.441 1025.45 899.013 1020.26 900.363 1017.15Z" fill="url(#paint32_radial_3634_63)"/>
<g id="Rectangle 445" opacity="0.39" filter="url(#filter29_f_3634_63)">
<path d="M1030.67 1183C1030.67 1183 1032.96 1193.38 1036.4 1196.7C1039.69 1199.87 1049.96 1202.57 1049.96 1202.57C1049.96 1202.57 1039.68 1205.45 1036.4 1208.72C1033.13 1211.99 1030.67 1221.72 1030.67 1221.72C1030.67 1221.72 1028.21 1211.99 1024.94 1208.72C1021.66 1205.45 1011.1 1202.57 1011.1 1202.57C1011.1 1202.57 1021.65 1199.87 1024.94 1196.7C1028.38 1193.38 1030.67 1183 1030.67 1183Z" fill="var(--fill-0, #FFF2FA)"/>
</g>
<path id="Rectangle 446" d="M1029.71 1190.49C1030.1 1189.64 1031.48 1189.64 1031.88 1190.49C1032.82 1192.51 1034.32 1195.27 1036.17 1197.06C1038.1 1198.91 1041.22 1200.59 1043.3 1201.59C1044.1 1201.98 1044.11 1203.19 1043.32 1203.59C1041.23 1204.65 1038.09 1206.43 1036.17 1208.35C1034.35 1210.17 1032.79 1212.97 1031.83 1214.94C1031.43 1215.75 1030.15 1215.75 1029.76 1214.94C1028.79 1212.97 1027.24 1210.17 1025.41 1208.35C1023.49 1206.43 1020.35 1204.65 1018.26 1203.59C1017.47 1203.19 1017.48 1201.98 1018.28 1201.59C1020.37 1200.59 1023.49 1198.91 1025.41 1197.06C1027.27 1195.27 1028.77 1192.51 1029.71 1190.49Z" fill="url(#paint33_radial_3634_63)"/>
<g id="Rectangle 421" opacity="0.39" filter="url(#filter30_f_3634_63)">
<path d="M2126.7 1387C2126.7 1387 2129.92 1401.64 2134.78 1406.32C2139.42 1410.79 2153.9 1414.6 2153.9 1414.6C2153.9 1414.6 2139.4 1418.65 2134.78 1423.27C2130.16 1427.89 2126.7 1441.6 2126.7 1441.6C2126.7 1441.6 2123.23 1427.89 2118.61 1423.27C2114 1418.65 2099.1 1414.6 2099.1 1414.6C2099.1 1414.6 2113.97 1410.79 2118.61 1406.32C2123.47 1401.64 2126.7 1387 2126.7 1387Z" fill="var(--fill-0, #FFF2FA)"/>
</g>
<path id="Rectangle 422" d="M2125.81 1396.52C2126.19 1395.66 2127.55 1395.66 2127.93 1396.52C2129.19 1399.39 2131.5 1403.97 2134.46 1406.82C2137.46 1409.7 2142.52 1412.3 2145.39 1413.64C2146.19 1414.01 2146.21 1415.21 2145.41 1415.6C2142.54 1417.02 2137.45 1419.76 2134.46 1422.74C2131.58 1425.63 2129.17 1430.22 2127.88 1432.98C2127.5 1433.8 2126.24 1433.8 2125.86 1432.98C2124.57 1430.22 2122.16 1425.63 2119.28 1422.74C2116.29 1419.76 2111.2 1417.02 2108.33 1415.6C2107.53 1415.21 2107.55 1414.01 2108.35 1413.64C2111.22 1412.3 2116.28 1409.7 2119.28 1406.82C2122.24 1403.97 2124.55 1399.39 2125.81 1396.52Z" fill="url(#paint34_radial_3634_63)"/>
<g id="Vector 260" opacity="0.05" filter="url(#filter31_f_3634_63)">
<path d="M681.138 959.181L400.1 1287.38L572.053 1188.18L811.524 898.304L681.138 959.181Z" fill="var(--fill-0, #DF91C9)"/>
</g>
<g id="Vector 262" opacity="0.05" filter="url(#filter32_f_3634_63)">
<path d="M2110.14 1215.18L1829.1 1543.38L2001.05 1444.18L2240.52 1154.3L2110.14 1215.18Z" fill="var(--fill-0, #DF91C9)"/>
</g>
<g id="Rectangle 427" opacity="0.28" filter="url(#filter33_f_3634_63)">
<path d="M1608.16 914C1608.16 914 1610.15 923.052 1613.16 925.943C1616.03 928.704 1624.98 931.061 1624.98 931.061C1624.98 931.061 1616.01 933.568 1613.16 936.423C1610.3 939.278 1608.16 947.757 1608.16 947.757C1608.16 947.757 1606.02 939.278 1603.16 936.423C1600.31 933.568 1591.1 931.061 1591.1 931.061C1591.1 931.061 1600.29 928.704 1603.16 925.943C1606.17 923.052 1608.16 914 1608.16 914Z" fill="var(--fill-0, #FFF2FA)"/>
</g>
<path id="Rectangle 428" d="M1606.71 925.026C1607.43 923.813 1609.6 923.813 1610.32 925.026C1610.86 925.932 1611.51 926.836 1612.23 927.53C1613.09 928.36 1614.3 929.14 1615.44 929.775C1616.6 930.422 1616.61 932.283 1615.47 932.952C1614.32 933.623 1613.09 934.447 1612.23 935.313C1611.46 936.076 1610.77 937.082 1610.19 938.058C1609.5 939.228 1607.53 939.228 1606.84 938.058C1606.26 937.082 1605.57 936.076 1604.81 935.313C1603.94 934.447 1602.71 933.623 1601.56 932.952C1600.42 932.283 1600.44 930.422 1601.59 929.775C1602.73 929.14 1603.94 928.36 1604.81 927.53C1605.53 926.836 1606.17 925.932 1606.71 925.026Z" fill="url(#paint35_radial_3634_63)"/>
<g id="Rectangle 429" opacity="0.39" filter="url(#filter34_f_3634_63)">
<path d="M1363.22 874C1363.22 874 1366.74 889.983 1372.04 895.086C1377.11 899.962 1392.92 904.124 1392.92 904.124C1392.92 904.124 1377.09 908.55 1372.04 913.591C1367 918.632 1363.22 933.602 1363.22 933.602C1363.22 933.602 1359.44 918.632 1354.4 913.591C1349.36 908.55 1333.1 904.124 1333.1 904.124C1333.1 904.124 1349.33 899.962 1354.4 895.086C1359.7 889.983 1363.22 874 1363.22 874Z" fill="var(--fill-0, #FFF2FA)"/>
</g>
<path id="Rectangle 430" d="M1362.36 884.152C1362.74 883.289 1364.09 883.289 1364.46 884.152C1365.81 887.264 1368.38 892.447 1371.7 895.636C1375.04 898.851 1380.73 901.735 1383.83 903.168C1384.63 903.54 1384.64 904.736 1383.85 905.124C1380.75 906.636 1375.03 909.683 1371.7 913.015C1368.47 916.239 1365.8 921.417 1364.42 924.394C1364.04 925.216 1362.78 925.216 1362.4 924.394C1361.03 921.417 1358.35 916.239 1355.13 913.015C1351.79 909.683 1346.07 906.636 1342.98 905.124C1342.18 904.736 1342.19 903.54 1343 903.168C1346.09 901.735 1351.79 898.851 1355.13 895.636C1358.44 892.447 1361.01 887.264 1362.36 884.152Z" fill="url(#paint36_radial_3634_63)"/>
<g id="Rectangle 431" opacity="0.39" filter="url(#filter35_f_3634_63)">
<path d="M1570.7 1247C1570.7 1247 1573.92 1261.64 1578.78 1266.32C1583.42 1270.79 1597.9 1274.6 1597.9 1274.6C1597.9 1274.6 1583.4 1278.65 1578.78 1283.27C1574.16 1287.89 1570.7 1301.6 1570.7 1301.6C1570.7 1301.6 1567.23 1287.89 1562.61 1283.27C1558 1278.65 1543.1 1274.6 1543.1 1274.6C1543.1 1274.6 1557.97 1270.79 1562.61 1266.32C1567.47 1261.64 1570.7 1247 1570.7 1247Z" fill="var(--fill-0, #FFF2FA)"/>
</g>
<g id="Rectangle 432">
<path d="M1569.81 1256.52C1570.19 1255.66 1571.55 1255.66 1571.93 1256.52C1573.19 1259.39 1575.5 1263.97 1578.46 1266.82C1581.46 1269.7 1586.52 1272.3 1589.39 1273.64C1590.19 1274.01 1590.21 1275.21 1589.41 1275.6C1586.54 1277.02 1581.45 1279.76 1578.46 1282.74C1575.58 1285.63 1573.17 1290.22 1571.88 1292.98C1571.5 1293.8 1570.24 1293.8 1569.86 1292.98C1568.57 1290.22 1566.16 1285.63 1563.28 1282.74C1560.29 1279.76 1555.2 1277.02 1552.33 1275.6C1551.53 1275.21 1551.55 1274.01 1552.35 1273.64C1555.22 1272.3 1560.28 1269.7 1563.28 1266.82C1566.24 1263.97 1568.55 1259.39 1569.81 1256.52Z" fill="url(#paint37_radial_3634_63)"/>
<path d="M1569.81 1256.52C1570.19 1255.66 1571.55 1255.66 1571.93 1256.52C1573.19 1259.39 1575.5 1263.97 1578.46 1266.82C1581.46 1269.7 1586.52 1272.3 1589.39 1273.64C1590.19 1274.01 1590.21 1275.21 1589.41 1275.6C1586.54 1277.02 1581.45 1279.76 1578.46 1282.74C1575.58 1285.63 1573.17 1290.22 1571.88 1292.98C1571.5 1293.8 1570.24 1293.8 1569.86 1292.98C1568.57 1290.22 1566.16 1285.63 1563.28 1282.74C1560.29 1279.76 1555.2 1277.02 1552.33 1275.6C1551.53 1275.21 1551.55 1274.01 1552.35 1273.64C1555.22 1272.3 1560.28 1269.7 1563.28 1266.82C1566.24 1263.97 1568.55 1259.39 1569.81 1256.52Z" fill="url(#paint38_radial_3634_63)"/>
</g>
<g id="Rectangle 433" opacity="0.39" filter="url(#filter36_f_3634_63)">
<path d="M1492.67 1050C1492.67 1050 1494.96 1060.38 1498.4 1063.7C1501.69 1066.87 1511.96 1069.57 1511.96 1069.57C1511.96 1069.57 1501.68 1072.45 1498.4 1075.72C1495.13 1078.99 1492.67 1088.72 1492.67 1088.72C1492.67 1088.72 1490.21 1078.99 1486.94 1075.72C1483.66 1072.45 1473.1 1069.57 1473.1 1069.57C1473.1 1069.57 1483.65 1066.87 1486.94 1063.7C1490.38 1060.38 1492.67 1050 1492.67 1050Z" fill="var(--fill-0, #FFF2FA)"/>
</g>
<path id="Rectangle 434" d="M1491.71 1057.49C1492.1 1056.64 1493.48 1056.64 1493.88 1057.49C1494.82 1059.51 1496.32 1062.27 1498.17 1064.06C1500.1 1065.91 1503.22 1067.59 1505.3 1068.59C1506.1 1068.98 1506.11 1070.19 1505.32 1070.59C1503.23 1071.65 1500.09 1073.43 1498.17 1075.35C1496.35 1077.17 1494.79 1079.97 1493.83 1081.94C1493.43 1082.75 1492.15 1082.75 1491.76 1081.94C1490.79 1079.97 1489.24 1077.17 1487.41 1075.35C1485.49 1073.43 1482.35 1071.65 1480.26 1070.59C1479.47 1070.19 1479.48 1068.98 1480.28 1068.59C1482.37 1067.59 1485.49 1065.91 1487.41 1064.06C1489.27 1062.27 1490.77 1059.51 1491.71 1057.49Z" fill="url(#paint39_radial_3634_63)"/>
<g id="Rectangle 455" opacity="0.39" filter="url(#filter37_f_3634_63)">
<path d="M2033.7 510C2033.7 510 2036.92 524.642 2041.78 529.318C2046.42 533.786 2060.9 537.598 2060.9 537.598C2060.9 537.598 2046.4 541.654 2041.78 546.272C2037.16 550.89 2033.7 564.605 2033.7 564.605C2033.7 564.605 2030.23 550.89 2025.61 546.272C2021 541.654 2006.1 537.598 2006.1 537.598C2006.1 537.598 2020.97 533.786 2025.61 529.318C2030.47 524.642 2033.7 510 2033.7 510Z" fill="var(--fill-0, #FFF2FA)"/>
</g>
<g id="Rectangle 456">
<path d="M2032.81 519.517C2033.19 518.656 2034.55 518.656 2034.93 519.517C2036.19 522.387 2038.5 526.973 2041.46 529.822C2044.46 532.705 2049.52 535.297 2052.39 536.637C2053.19 537.011 2053.21 538.213 2052.41 538.603C2049.54 540.017 2044.45 542.755 2041.46 545.744C2038.58 548.629 2036.17 553.224 2034.88 555.978C2034.5 556.798 2033.24 556.798 2032.86 555.978C2031.57 553.224 2029.16 548.629 2026.28 545.744C2023.29 542.755 2018.2 540.017 2015.33 538.603C2014.53 538.213 2014.55 537.011 2015.35 536.637C2018.22 535.297 2023.28 532.705 2026.28 529.822C2029.24 526.973 2031.55 522.387 2032.81 519.517Z" fill="url(#paint40_radial_3634_63)"/>
<path d="M2032.81 519.517C2033.19 518.656 2034.55 518.656 2034.93 519.517C2036.19 522.387 2038.5 526.973 2041.46 529.822C2044.46 532.705 2049.52 535.297 2052.39 536.637C2053.19 537.011 2053.21 538.213 2052.41 538.603C2049.54 540.017 2044.45 542.755 2041.46 545.744C2038.58 548.629 2036.17 553.224 2034.88 555.978C2034.5 556.798 2033.24 556.798 2032.86 555.978C2031.57 553.224 2029.16 548.629 2026.28 545.744C2023.29 542.755 2018.2 540.017 2015.33 538.603C2014.53 538.213 2014.55 537.011 2015.35 536.637C2018.22 535.297 2023.28 532.705 2026.28 529.822C2029.24 526.973 2031.55 522.387 2032.81 519.517Z" fill="url(#paint41_radial_3634_63)"/>
</g>
<g id="Rectangle 459" opacity="0.28" filter="url(#filter38_f_3634_63)">
<path d="M1648.16 1418C1648.16 1418 1650.15 1427.05 1653.16 1429.94C1656.03 1432.7 1664.98 1435.06 1664.98 1435.06C1664.98 1435.06 1656.01 1437.57 1653.16 1440.42C1650.3 1443.28 1648.16 1451.76 1648.16 1451.76C1648.16 1451.76 1646.02 1443.28 1643.16 1440.42C1640.31 1437.57 1631.1 1435.06 1631.1 1435.06C1631.1 1435.06 1640.29 1432.7 1643.16 1429.94C1646.17 1427.05 1648.16 1418 1648.16 1418Z" fill="var(--fill-0, #FFF2FA)"/>
</g>
<path id="Rectangle 460" d="M1646.71 1429.03C1647.43 1427.81 1649.6 1427.81 1650.32 1429.03C1650.86 1429.93 1651.51 1430.84 1652.23 1431.53C1653.09 1432.36 1654.3 1433.14 1655.44 1433.77C1656.6 1434.42 1656.61 1436.28 1655.47 1436.95C1654.32 1437.62 1653.09 1438.45 1652.23 1439.31C1651.46 1440.08 1650.77 1441.08 1650.19 1442.06C1649.5 1443.23 1647.53 1443.23 1646.84 1442.06C1646.26 1441.08 1645.57 1440.08 1644.81 1439.31C1643.94 1438.45 1642.71 1437.62 1641.56 1436.95C1640.42 1436.28 1640.44 1434.42 1641.59 1433.77C1642.73 1433.14 1643.94 1432.36 1644.81 1431.53C1645.53 1430.84 1646.17 1429.93 1646.71 1429.03Z" fill="url(#paint42_radial_3634_63)"/>
<g id="Rectangle 461" opacity="0.39" filter="url(#filter39_f_3634_63)">
<path d="M1431.7 1450C1431.7 1450 1434.92 1464.64 1439.78 1469.32C1444.42 1473.79 1458.9 1477.6 1458.9 1477.6C1458.9 1477.6 1444.4 1481.65 1439.78 1486.27C1435.16 1490.89 1431.7 1504.6 1431.7 1504.6C1431.7 1504.6 1428.23 1490.89 1423.61 1486.27C1419 1481.65 1404.1 1477.6 1404.1 1477.6C1404.1 1477.6 1418.97 1473.79 1423.61 1469.32C1428.47 1464.64 1431.7 1450 1431.7 1450Z" fill="var(--fill-0, #FFF2FA)"/>
</g>
<g id="Rectangle 462">
<path d="M1430.81 1459.52C1431.19 1458.66 1432.55 1458.66 1432.93 1459.52C1434.19 1462.39 1436.5 1466.97 1439.46 1469.82C1442.46 1472.7 1447.52 1475.3 1450.39 1476.64C1451.19 1477.01 1451.21 1478.21 1450.41 1478.6C1447.54 1480.02 1442.45 1482.75 1439.46 1485.74C1436.58 1488.63 1434.17 1493.22 1432.88 1495.98C1432.5 1496.8 1431.24 1496.8 1430.86 1495.98C1429.57 1493.22 1427.16 1488.63 1424.28 1485.74C1421.29 1482.75 1416.2 1480.02 1413.33 1478.6C1412.53 1478.21 1412.55 1477.01 1413.35 1476.64C1416.22 1475.3 1421.28 1472.7 1424.28 1469.82C1427.24 1466.97 1429.55 1462.39 1430.81 1459.52Z" fill="url(#paint43_radial_3634_63)"/>
<path d="M1430.81 1459.52C1431.19 1458.66 1432.55 1458.66 1432.93 1459.52C1434.19 1462.39 1436.5 1466.97 1439.46 1469.82C1442.46 1472.7 1447.52 1475.3 1450.39 1476.64C1451.19 1477.01 1451.21 1478.21 1450.41 1478.6C1447.54 1480.02 1442.45 1482.75 1439.46 1485.74C1436.58 1488.63 1434.17 1493.22 1432.88 1495.98C1432.5 1496.8 1431.24 1496.8 1430.86 1495.98C1429.57 1493.22 1427.16 1488.63 1424.28 1485.74C1421.29 1482.75 1416.2 1480.02 1413.33 1478.6C1412.53 1478.21 1412.55 1477.01 1413.35 1476.64C1416.22 1475.3 1421.28 1472.7 1424.28 1469.82C1427.24 1466.97 1429.55 1462.39 1430.81 1459.52Z" fill="url(#paint44_radial_3634_63)"/>
</g>
<g id="Rectangle 457" opacity="0.39" filter="url(#filter40_f_3634_63)">
<path d="M1955.67 313C1955.67 313 1957.95 323.383 1961.4 326.698C1964.69 329.866 1974.96 332.569 1974.96 332.569C1974.96 332.569 1964.67 335.445 1961.4 338.719C1958.12 341.994 1955.67 351.719 1955.67 351.719C1955.67 351.719 1953.21 341.994 1949.94 338.719C1946.66 335.445 1936.1 332.569 1936.1 332.569C1936.1 332.569 1946.65 329.866 1949.94 326.698C1953.38 323.383 1955.67 313 1955.67 313Z" fill="var(--fill-0, #FFF2FA)"/>
</g>
<path id="Rectangle 458" d="M1954.7 320.494C1955.1 319.641 1956.48 319.641 1956.88 320.494C1957.81 322.514 1959.31 325.267 1961.17 327.055C1963.09 328.905 1966.21 330.586 1968.3 331.593C1969.1 331.978 1969.11 333.19 1968.32 333.59C1966.23 334.652 1963.09 336.426 1961.17 338.346C1959.34 340.174 1957.79 342.971 1956.82 344.939C1956.43 345.752 1955.15 345.752 1954.75 344.939C1953.79 342.971 1952.24 340.174 1950.41 338.346C1948.49 336.426 1945.35 334.652 1943.26 333.59C1942.47 333.19 1942.48 331.978 1943.28 331.593C1945.36 330.586 1948.49 328.905 1950.41 327.055C1952.27 325.267 1953.76 322.514 1954.7 320.494Z" fill="url(#paint45_radial_3634_63)"/>
<g id="Vector 264" opacity="0.05" filter="url(#filter41_f_3634_63)">
<path d="M1289.14 1188.18L1008.1 1516.38L1180.05 1417.18L1419.52 1127.3L1289.14 1188.18Z" fill="var(--fill-0, #DF91C9)"/>
</g>
<g id="Vector 261" opacity="0.05" filter="url(#filter42_f_3634_63)">
<path d="M400.467 186.123L37.1 626.946L257.538 492.088L567.352 102.902L400.467 186.123Z" fill="var(--fill-0, #DF91C9)"/>
</g>
<g id="Vector 263" opacity="0.05" filter="url(#filter43_f_3634_63)">
<path d="M1523.58 145.969L1237.1 495.158L1430.88 383.842L1673.13 76.0095L1523.58 145.969Z" fill="var(--fill-0, #DF91C9)"/>
</g>
</g>
<defs>
<filter id="filter0_f_3634_63" x="362.601" y="472.5" width="97.8234" height="97.6478" filterUnits="userSpaceOnUse" color-interpolation-filters="sRGB">
<feFlood flood-opacity="0" result="BackgroundImageFix"/>
<feBlend mode="normal" in="SourceGraphic" in2="BackgroundImageFix" result="shape"/>
<feGaussianBlur stdDeviation="12.25" result="effect1_foregroundBlur_3634_63"/>
</filter>
<filter id="filter1_f_3634_63" x="348.601" y="978.5" width="91.8468" height="91.6926" filterUnits="userSpaceOnUse" color-interpolation-filters="sRGB">
<feFlood flood-opacity="0" result="BackgroundImageFix"/>
<feBlend mode="normal" in="SourceGraphic" in2="BackgroundImageFix" result="shape"/>
<feGaussianBlur stdDeviation="12.25" result="effect1_foregroundBlur_3634_63"/>
</filter>
<filter id="filter2_f_3634_63" x="1837.6" y="1148.5" width="90.8494" height="90.6989" filterUnits="userSpaceOnUse" color-interpolation-filters="sRGB">
<feFlood flood-opacity="0" result="BackgroundImageFix"/>
<feBlend mode="normal" in="SourceGraphic" in2="BackgroundImageFix" result="shape"/>
<feGaussianBlur stdDeviation="12.25" result="effect1_foregroundBlur_3634_63"/>
</filter>
<filter id="filter3_f_3634_63" x="236.6" y="1243.5" width="89.8539" height="89.7069" filterUnits="userSpaceOnUse" color-interpolation-filters="sRGB">
<feFlood flood-opacity="0" result="BackgroundImageFix"/>
<feBlend mode="normal" in="SourceGraphic" in2="BackgroundImageFix" result="shape"/>
<feGaussianBlur stdDeviation="12.25" result="effect1_foregroundBlur_3634_63"/>
</filter>
<filter id="filter4_f_3634_63" x="310.6" y="685.5" width="100.814" height="100.628" filterUnits="userSpaceOnUse" color-interpolation-filters="sRGB">
<feFlood flood-opacity="0" result="BackgroundImageFix"/>
<feBlend mode="normal" in="SourceGraphic" in2="BackgroundImageFix" result="shape"/>
<feGaussianBlur stdDeviation="12.25" result="effect1_foregroundBlur_3634_63"/>
</filter>
<filter id="filter5_f_3634_63" x="32.5988" y="1066.5" width="113.767" height="113.534" filterUnits="userSpaceOnUse" color-interpolation-filters="sRGB">
<feFlood flood-opacity="0" result="BackgroundImageFix"/>
<feBlend mode="normal" in="SourceGraphic" in2="BackgroundImageFix" result="shape"/>
<feGaussianBlur stdDeviation="12.25" result="effect1_foregroundBlur_3634_63"/>
</filter>
<filter id="filter6_f_3634_63" x="583.255" y="709.156" width="38.1517" height="38.0566" filterUnits="userSpaceOnUse" color-interpolation-filters="sRGB">
<feFlood flood-opacity="0" result="BackgroundImageFix"/>
<feBlend mode="normal" in="SourceGraphic" in2="BackgroundImageFix" result="shape"/>
<feGaussianBlur stdDeviation="2.92222" result="effect1_foregroundBlur_3634_63"/>
</filter>
<filter id="filter7_f_3634_63" x="269.255" y="848.156" width="38.1517" height="38.0566" filterUnits="userSpaceOnUse" color-interpolation-filters="sRGB">
<feFlood flood-opacity="0" result="BackgroundImageFix"/>
<feBlend mode="normal" in="SourceGraphic" in2="BackgroundImageFix" result="shape"/>
<feGaussianBlur stdDeviation="2.92222" result="effect1_foregroundBlur_3634_63"/>
</filter>
<filter id="filter8_f_3634_63" x="171.255" y="922.156" width="38.1518" height="38.0566" filterUnits="userSpaceOnUse" color-interpolation-filters="sRGB">
<feFlood flood-opacity="0" result="BackgroundImageFix"/>
<feBlend mode="normal" in="SourceGraphic" in2="BackgroundImageFix" result="shape"/>
<feGaussianBlur stdDeviation="2.92222" result="effect1_foregroundBlur_3634_63"/>
</filter>
<filter id="filter9_f_3634_63" x="860.255" y="280.156" width="38.1517" height="38.0566" filterUnits="userSpaceOnUse" color-interpolation-filters="sRGB">
<feFlood flood-opacity="0" result="BackgroundImageFix"/>
<feBlend mode="normal" in="SourceGraphic" in2="BackgroundImageFix" result="shape"/>
<feGaussianBlur stdDeviation="2.92222" result="effect1_foregroundBlur_3634_63"/>
</filter>
<filter id="filter10_f_3634_63" x="150.255" y="1395.16" width="38.1518" height="38.0566" filterUnits="userSpaceOnUse" color-interpolation-filters="sRGB">
<feFlood flood-opacity="0" result="BackgroundImageFix"/>
<feBlend mode="normal" in="SourceGraphic" in2="BackgroundImageFix" result="shape"/>
<feGaussianBlur stdDeviation="2.92222" result="effect1_foregroundBlur_3634_63"/>
</filter>
<filter id="filter11_f_3634_63" x="990.602" y="614.5" width="89.8539" height="89.707" filterUnits="userSpaceOnUse" color-interpolation-filters="sRGB">
<feFlood flood-opacity="0" result="BackgroundImageFix"/>
<feBlend mode="normal" in="SourceGraphic" in2="BackgroundImageFix" result="shape"/>
<feGaussianBlur stdDeviation="12.25" result="effect1_foregroundBlur_3634_63"/>
</filter>
<filter id="filter12_f_3634_63" x="786.601" y="437.5" width="113.767" height="113.534" filterUnits="userSpaceOnUse" color-interpolation-filters="sRGB">
<feFlood flood-opacity="0" result="BackgroundImageFix"/>
<feBlend mode="normal" in="SourceGraphic" in2="BackgroundImageFix" result="shape"/>
<feGaussianBlur stdDeviation="12.25" result="effect1_foregroundBlur_3634_63"/>
</filter>
<filter id="filter13_f_3634_63" x="1681.26" y="443.156" width="38.1518" height="38.0566" filterUnits="userSpaceOnUse" color-interpolation-filters="sRGB">
<feFlood flood-opacity="0" result="BackgroundImageFix"/>
<feBlend mode="normal" in="SourceGraphic" in2="BackgroundImageFix" result="shape"/>
<feGaussianBlur stdDeviation="2.92222" result="effect1_foregroundBlur_3634_63"/>
</filter>
<filter id="filter14_f_3634_63" x="1607.6" y="600.5" width="113.767" height="113.534" filterUnits="userSpaceOnUse" color-interpolation-filters="sRGB">
<feFlood flood-opacity="0" result="BackgroundImageFix"/>
<feBlend mode="normal" in="SourceGraphic" in2="BackgroundImageFix" result="shape"/>
<feGaussianBlur stdDeviation="12.25" result="effect1_foregroundBlur_3634_63"/>
</filter>
<filter id="filter15_f_3634_63" x="904.257" y="766.156" width="38.1517" height="38.0566" filterUnits="userSpaceOnUse" color-interpolation-filters="sRGB">
<feFlood flood-opacity="0" result="BackgroundImageFix"/>
<feBlend mode="normal" in="SourceGraphic" in2="BackgroundImageFix" result="shape"/>
<feGaussianBlur stdDeviation="2.92222" result="effect1_foregroundBlur_3634_63"/>
</filter>
<filter id="filter16_f_3634_63" x="2048.25" y="1091.16" width="45.5674" height="45.4456" filterUnits="userSpaceOnUse" color-interpolation-filters="sRGB">
<feFlood flood-opacity="0" result="BackgroundImageFix"/>
<feBlend mode="normal" in="SourceGraphic" in2="BackgroundImageFix" result="shape"/>
<feGaussianBlur stdDeviation="2.92222" result="effect1_foregroundBlur_3634_63"/>
</filter>
<filter id="filter17_f_3634_63" x="2406.26" y="935.156" width="45.5673" height="45.4456" filterUnits="userSpaceOnUse" color-interpolation-filters="sRGB">
<feFlood flood-opacity="0" result="BackgroundImageFix"/>
<feBlend mode="normal" in="SourceGraphic" in2="BackgroundImageFix" result="shape"/>
<feGaussianBlur stdDeviation="2.92222" result="effect1_foregroundBlur_3634_63"/>
</filter>
<filter id="filter18_f_3634_63" x="2227.26" y="472.156" width="45.5673" height="45.4456" filterUnits="userSpaceOnUse" color-interpolation-filters="sRGB">
<feFlood flood-opacity="0" result="BackgroundImageFix"/>
<feBlend mode="normal" in="SourceGraphic" in2="BackgroundImageFix" result="shape"/>
<feGaussianBlur stdDeviation="2.92222" result="effect1_foregroundBlur_3634_63"/>
</filter>
<filter id="filter19_f_3634_63" x="2129.6" y="876.5" width="108.817" height="108.602" filterUnits="userSpaceOnUse" color-interpolation-filters="sRGB">
<feFlood flood-opacity="0" result="BackgroundImageFix"/>
<feBlend mode="normal" in="SourceGraphic" in2="BackgroundImageFix" result="shape"/>
<feGaussianBlur stdDeviation="12.25" result="effect1_foregroundBlur_3634_63"/>
</filter>
<filter id="filter20_f_3634_63" x="1824.6" y="657.5" width="103.802" height="103.605" filterUnits="userSpaceOnUse" color-interpolation-filters="sRGB">
<feFlood flood-opacity="0" result="BackgroundImageFix"/>
<feBlend mode="normal" in="SourceGraphic" in2="BackgroundImageFix" result="shape"/>
<feGaussianBlur stdDeviation="12.25" result="effect1_foregroundBlur_3634_63"/>
</filter>
<filter id="filter21_f_3634_63" x="108.6" y="405.5" width="85.8673" height="85.7347" filterUnits="userSpaceOnUse" color-interpolation-filters="sRGB">
<feFlood flood-opacity="0" result="BackgroundImageFix"/>
<feBlend mode="normal" in="SourceGraphic" in2="BackgroundImageFix" result="shape"/>
<feGaussianBlur stdDeviation="12.25" result="effect1_foregroundBlur_3634_63"/>
</filter>
<filter id="filter22_f_3634_63" x="2339.6" y="1249.5" width="103.802" height="103.605" filterUnits="userSpaceOnUse" color-interpolation-filters="sRGB">
<feFlood flood-opacity="0" result="BackgroundImageFix"/>
<feBlend mode="normal" in="SourceGraphic" in2="BackgroundImageFix" result="shape"/>
<feGaussianBlur stdDeviation="12.25" result="effect1_foregroundBlur_3634_63"/>
</filter>
<filter id="filter23_f_3634_63" x="47.5995" y="635.5" width="103.802" height="103.605" filterUnits="userSpaceOnUse" color-interpolation-filters="sRGB">
<feFlood flood-opacity="0" result="BackgroundImageFix"/>
<feBlend mode="normal" in="SourceGraphic" in2="BackgroundImageFix" result="shape"/>
<feGaussianBlur stdDeviation="12.25" result="effect1_foregroundBlur_3634_63"/>
</filter>
<filter id="filter24_f_3634_63" x="2269.6" y="1052.5" width="87.8586" height="87.719" filterUnits="userSpaceOnUse" color-interpolation-filters="sRGB">
<feFlood flood-opacity="0" result="BackgroundImageFix"/>
<feBlend mode="normal" in="SourceGraphic" in2="BackgroundImageFix" result="shape"/>
<feGaussianBlur stdDeviation="12.25" result="effect1_foregroundBlur_3634_63"/>
</filter>
<filter id="filter25_f_3634_63" x="704.598" y="1481.5" width="103.802" height="103.605" filterUnits="userSpaceOnUse" color-interpolation-filters="sRGB">
<feFlood flood-opacity="0" result="BackgroundImageFix"/>
<feBlend mode="normal" in="SourceGraphic" in2="BackgroundImageFix" result="shape"/>
<feGaussianBlur stdDeviation="12.25" result="effect1_foregroundBlur_3634_63"/>
</filter>
<filter id="filter26_f_3634_63" x="634.599" y="1284.5" width="87.8589" height="87.719" filterUnits="userSpaceOnUse" color-interpolation-filters="sRGB">
<feFlood flood-opacity="0" result="BackgroundImageFix"/>
<feBlend mode="normal" in="SourceGraphic" in2="BackgroundImageFix" result="shape"/>
<feGaussianBlur stdDeviation="12.25" result="effect1_foregroundBlur_3634_63"/>
</filter>
<filter id="filter27_f_3634_63" x="1123.25" y="1041.16" width="45.5674" height="45.4456" filterUnits="userSpaceOnUse" color-interpolation-filters="sRGB">
<feFlood flood-opacity="0" result="BackgroundImageFix"/>
<feBlend mode="normal" in="SourceGraphic" in2="BackgroundImageFix" result="shape"/>
<feGaussianBlur stdDeviation="2.92222" result="effect1_foregroundBlur_3634_63"/>
</filter>
<filter id="filter28_f_3634_63" x="846.599" y="982.5" width="108.817" height="108.602" filterUnits="userSpaceOnUse" color-interpolation-filters="sRGB">
<feFlood flood-opacity="0" result="BackgroundImageFix"/>
<feBlend mode="normal" in="SourceGraphic" in2="BackgroundImageFix" result="shape"/>
<feGaussianBlur stdDeviation="12.25" result="effect1_foregroundBlur_3634_63"/>
</filter>
<filter id="filter29_f_3634_63" x="986.601" y="1158.5" width="87.8589" height="87.719" filterUnits="userSpaceOnUse" color-interpolation-filters="sRGB">
<feFlood flood-opacity="0" result="BackgroundImageFix"/>
<feBlend mode="normal" in="SourceGraphic" in2="BackgroundImageFix" result="shape"/>
<feGaussianBlur stdDeviation="12.25" result="effect1_foregroundBlur_3634_63"/>
</filter>
<filter id="filter30_f_3634_63" x="2074.6" y="1362.5" width="103.802" height="103.605" filterUnits="userSpaceOnUse" color-interpolation-filters="sRGB">
<feFlood flood-opacity="0" result="BackgroundImageFix"/>
<feBlend mode="normal" in="SourceGraphic" in2="BackgroundImageFix" result="shape"/>
<feGaussianBlur stdDeviation="12.25" result="effect1_foregroundBlur_3634_63"/>
</filter>
<filter id="filter31_f_3634_63" x="363" y="861.204" width="485.623" height="463.277" filterUnits="userSpaceOnUse" color-interpolation-filters="sRGB">
<feFlood flood-opacity="0" result="BackgroundImageFix"/>
<feBlend mode="normal" in="SourceGraphic" in2="BackgroundImageFix" result="shape"/>
<feGaussianBlur stdDeviation="18.55" result="effect1_foregroundBlur_3634_63"/>
</filter>
<filter id="filter32_f_3634_63" x="1792" y="1117.2" width="485.623" height="463.277" filterUnits="userSpaceOnUse" color-interpolation-filters="sRGB">
<feFlood flood-opacity="0" result="BackgroundImageFix"/>
<feBlend mode="normal" in="SourceGraphic" in2="BackgroundImageFix" result="shape"/>
<feGaussianBlur stdDeviation="18.55" result="effect1_foregroundBlur_3634_63"/>
</filter>
<filter id="filter33_f_3634_63" x="1585.25" y="908.156" width="45.5674" height="45.4456" filterUnits="userSpaceOnUse" color-interpolation-filters="sRGB">
<feFlood flood-opacity="0" result="BackgroundImageFix"/>
<feBlend mode="normal" in="SourceGraphic" in2="BackgroundImageFix" result="shape"/>
<feGaussianBlur stdDeviation="2.92222" result="effect1_foregroundBlur_3634_63"/>
</filter>
<filter id="filter34_f_3634_63" x="1308.6" y="849.5" width="108.817" height="108.602" filterUnits="userSpaceOnUse" color-interpolation-filters="sRGB">
<feFlood flood-opacity="0" result="BackgroundImageFix"/>
<feBlend mode="normal" in="SourceGraphic" in2="BackgroundImageFix" result="shape"/>
<feGaussianBlur stdDeviation="12.25" result="effect1_foregroundBlur_3634_63"/>
</filter>
<filter id="filter35_f_3634_63" x="1518.6" y="1222.5" width="103.802" height="103.605" filterUnits="userSpaceOnUse" color-interpolation-filters="sRGB">
<feFlood flood-opacity="0" result="BackgroundImageFix"/>
<feBlend mode="normal" in="SourceGraphic" in2="BackgroundImageFix" result="shape"/>
<feGaussianBlur stdDeviation="12.25" result="effect1_foregroundBlur_3634_63"/>
</filter>
<filter id="filter36_f_3634_63" x="1448.6" y="1025.5" width="87.8589" height="87.719" filterUnits="userSpaceOnUse" color-interpolation-filters="sRGB">
<feFlood flood-opacity="0" result="BackgroundImageFix"/>
<feBlend mode="normal" in="SourceGraphic" in2="BackgroundImageFix" result="shape"/>
<feGaussianBlur stdDeviation="12.25" result="effect1_foregroundBlur_3634_63"/>
</filter>
<filter id="filter37_f_3634_63" x="1981.6" y="485.5" width="103.802" height="103.605" filterUnits="userSpaceOnUse" color-interpolation-filters="sRGB">
<feFlood flood-opacity="0" result="BackgroundImageFix"/>
<feBlend mode="normal" in="SourceGraphic" in2="BackgroundImageFix" result="shape"/>
<feGaussianBlur stdDeviation="12.25" result="effect1_foregroundBlur_3634_63"/>
</filter>
<filter id="filter38_f_3634_63" x="1625.25" y="1412.16" width="45.5674" height="45.4456" filterUnits="userSpaceOnUse" color-interpolation-filters="sRGB">
<feFlood flood-opacity="0" result="BackgroundImageFix"/>
<feBlend mode="normal" in="SourceGraphic" in2="BackgroundImageFix" result="shape"/>
<feGaussianBlur stdDeviation="2.92222" result="effect1_foregroundBlur_3634_63"/>
</filter>
<filter id="filter39_f_3634_63" x="1379.6" y="1425.5" width="103.802" height="103.605" filterUnits="userSpaceOnUse" color-interpolation-filters="sRGB">
<feFlood flood-opacity="0" result="BackgroundImageFix"/>
<feBlend mode="normal" in="SourceGraphic" in2="BackgroundImageFix" result="shape"/>
<feGaussianBlur stdDeviation="12.25" result="effect1_foregroundBlur_3634_63"/>
</filter>
<filter id="filter40_f_3634_63" x="1911.6" y="288.5" width="87.8589" height="87.7191" filterUnits="userSpaceOnUse" color-interpolation-filters="sRGB">
<feFlood flood-opacity="0" result="BackgroundImageFix"/>
<feBlend mode="normal" in="SourceGraphic" in2="BackgroundImageFix" result="shape"/>
<feGaussianBlur stdDeviation="12.25" result="effect1_foregroundBlur_3634_63"/>
</filter>
<filter id="filter41_f_3634_63" x="971.001" y="1090.2" width="485.623" height="463.277" filterUnits="userSpaceOnUse" color-interpolation-filters="sRGB">
<feFlood flood-opacity="0" result="BackgroundImageFix"/>
<feBlend mode="normal" in="SourceGraphic" in2="BackgroundImageFix" result="shape"/>
<feGaussianBlur stdDeviation="18.55" result="effect1_foregroundBlur_3634_63"/>
</filter>
<filter id="filter42_f_3634_63" x="-1.56055e-06" y="65.8023" width="604.452" height="598.244" filterUnits="userSpaceOnUse" color-interpolation-filters="sRGB">
<feFlood flood-opacity="0" result="BackgroundImageFix"/>
<feBlend mode="normal" in="SourceGraphic" in2="BackgroundImageFix" result="shape"/>
<feGaussianBlur stdDeviation="18.55" result="effect1_foregroundBlur_3634_63"/>
</filter>
<filter id="filter43_f_3634_63" x="1200" y="38.9095" width="510.228" height="493.348" filterUnits="userSpaceOnUse" color-interpolation-filters="sRGB">
<feFlood flood-opacity="0" result="BackgroundImageFix"/>
<feBlend mode="normal" in="SourceGraphic" in2="BackgroundImageFix" result="shape"/>
<feGaussianBlur stdDeviation="18.55" result="effect1_foregroundBlur_3634_63"/>
</filter>
<radialGradient id="paint0_radial_3634_63" cx="0" cy="0" r="1" gradientUnits="userSpaceOnUse" gradientTransform="translate(411.844 521.587) rotate(135) scale(13.0306)">
<stop stop-color="#FFD8F1"/>
<stop offset="1" stop-color="#C496B3" stop-opacity="0.8"/>
</radialGradient>
<radialGradient id="paint1_radial_3634_63" cx="0" cy="0" r="1" gradientUnits="userSpaceOnUse" gradientTransform="translate(394.815 1024.58) rotate(135) scale(11.4355)">
<stop stop-color="#FFD8FC"/>
<stop offset="1" stop-color="#D49DD5" stop-opacity="0.8"/>
</radialGradient>
<radialGradient id="paint2_radial_3634_63" cx="0" cy="0" r="1" gradientUnits="userSpaceOnUse" gradientTransform="translate(1883.31 1194.08) rotate(135) scale(11.1693)">
<stop stop-color="#D8E1FF"/>
<stop offset="1" stop-color="#A39DD5" stop-opacity="0.8"/>
</radialGradient>
<radialGradient id="paint3_radial_3634_63" cx="0" cy="0" r="1" gradientUnits="userSpaceOnUse" gradientTransform="translate(281.803 1288.57) rotate(135) scale(10.9036)">
<stop stop-color="#D8E1FF"/>
<stop offset="1" stop-color="#A39DD5" stop-opacity="0.8"/>
</radialGradient>
<radialGradient id="paint4_radial_3634_63" cx="0" cy="0" r="1" gradientUnits="userSpaceOnUse" gradientTransform="translate(361.358 736.094) rotate(135) scale(13.8289)">
<stop stop-color="#D8E1FF"/>
<stop offset="1" stop-color="#A39DD5" stop-opacity="0.8"/>
</radialGradient>
<radialGradient id="paint5_radial_3634_63" cx="0" cy="0" r="1" gradientUnits="userSpaceOnUse" gradientTransform="translate(89.9242 1123.62) rotate(135) scale(17.2858)">
<stop stop-color="#D8F3FF"/>
<stop offset="1" stop-color="#9DA8D5" stop-opacity="0.8"/>
</radialGradient>
<radialGradient id="paint6_radial_3634_63" cx="0" cy="0" r="1" gradientUnits="userSpaceOnUse" gradientTransform="translate(602.704 728.538) rotate(135) scale(5.58464)">
<stop stop-color="#FFD8F1"/>
<stop offset="1" stop-color="#C496B3" stop-opacity="0.8"/>
</radialGradient>
<radialGradient id="paint7_radial_3634_63" cx="0" cy="0" r="1" gradientUnits="userSpaceOnUse" gradientTransform="translate(287.703 866.538) rotate(135) scale(5.58464)">
<stop stop-color="#FFD8F1"/>
<stop offset="1" stop-color="#C496B3" stop-opacity="0.8"/>
</radialGradient>
<radialGradient id="paint8_radial_3634_63" cx="0" cy="0" r="1" gradientUnits="userSpaceOnUse" gradientTransform="translate(189.703 940.538) rotate(135) scale(5.58464)">
<stop stop-color="#FFD8F1"/>
<stop offset="1" stop-color="#C496B3" stop-opacity="0.8"/>
</radialGradient>
<radialGradient id="paint9_radial_3634_63" cx="0" cy="0" r="1" gradientUnits="userSpaceOnUse" gradientTransform="translate(878.704 298.538) rotate(135) scale(5.58464)">
<stop stop-color="#FFD8F1"/>
<stop offset="1" stop-color="#C496B3" stop-opacity="0.8"/>
</radialGradient>
<radialGradient id="paint10_radial_3634_63" cx="0" cy="0" r="1" gradientUnits="userSpaceOnUse" gradientTransform="translate(168.703 1413.54) rotate(135) scale(5.58464)">
<stop stop-color="#FFD8F1"/>
<stop offset="1" stop-color="#C496B3" stop-opacity="0.8"/>
</radialGradient>
<radialGradient id="paint11_radial_3634_63" cx="0" cy="0" r="1" gradientUnits="userSpaceOnUse" gradientTransform="translate(1035.81 659.574) rotate(135) scale(10.9036)">
<stop stop-color="#D8E1FF"/>
<stop offset="1" stop-color="#A39DD5" stop-opacity="0.8"/>
</radialGradient>
<radialGradient id="paint12_radial_3634_63" cx="0" cy="0" r="1" gradientUnits="userSpaceOnUse" gradientTransform="translate(843.926 494.617) rotate(135) scale(17.2858)">
<stop stop-color="#D8F3FF"/>
<stop offset="1" stop-color="#9DA8D5" stop-opacity="0.8"/>
</radialGradient>
<radialGradient id="paint13_radial_3634_63" cx="0" cy="0" r="1" gradientUnits="userSpaceOnUse" gradientTransform="translate(1699.7 461.538) rotate(135) scale(5.58464)">
<stop stop-color="#FFD8F1"/>
<stop offset="1" stop-color="#C496B3" stop-opacity="0.8"/>
</radialGradient>
<radialGradient id="paint14_radial_3634_63" cx="0" cy="0" r="1" gradientUnits="userSpaceOnUse" gradientTransform="translate(1664.93 657.617) rotate(135) scale(17.2858)">
<stop stop-color="#D8F3FF"/>
<stop offset="1" stop-color="#9DA8D5" stop-opacity="0.8"/>
</radialGradient>
<radialGradient id="paint15_radial_3634_63" cx="0" cy="0" r="1" gradientUnits="userSpaceOnUse" gradientTransform="translate(922.705 784.538) rotate(135) scale(5.58464)">
<stop stop-color="#FFD8F1"/>
<stop offset="1" stop-color="#C496B3" stop-opacity="0.8"/>
</radialGradient>
<radialGradient id="paint16_radial_3634_63" cx="0" cy="0" r="1" gradientUnits="userSpaceOnUse" gradientTransform="translate(2071.52 1114.33) rotate(135) scale(7.14962)">
<stop stop-color="#FFD8F1"/>
<stop offset="1" stop-color="#C496B3" stop-opacity="0.8"/>
</radialGradient>
<radialGradient id="paint17_radial_3634_63" cx="0" cy="0" r="1" gradientUnits="userSpaceOnUse" gradientTransform="translate(2429.52 958.331) rotate(135) scale(7.14962)">
<stop stop-color="#FFD8F1"/>
<stop offset="1" stop-color="#C496B3" stop-opacity="0.8"/>
</radialGradient>
<radialGradient id="paint18_radial_3634_63" cx="0" cy="0" r="1" gradientUnits="userSpaceOnUse" gradientTransform="translate(2250.52 495.331) rotate(135) scale(7.14962)">
<stop stop-color="#FFD8F1"/>
<stop offset="1" stop-color="#C496B3" stop-opacity="0.8"/>
</radialGradient>
<radialGradient id="paint19_radial_3634_63" cx="0" cy="0" r="1" gradientUnits="userSpaceOnUse" gradientTransform="translate(2184.41 931.124) rotate(135) scale(15.9647)">
<stop stop-color="#FFD8F1"/>
<stop offset="1" stop-color="#C496B3" stop-opacity="0.8"/>
</radialGradient>
<radialGradient id="paint20_radial_3634_63" cx="0" cy="0" r="1" gradientUnits="userSpaceOnUse" gradientTransform="translate(1876.87 709.598) rotate(135) scale(14.6262)">
<stop stop-color="#FFD8F1"/>
<stop offset="1" stop-color="#C496B3" stop-opacity="0.8"/>
</radialGradient>
<radialGradient id="paint21_radial_3634_63" cx="0" cy="0" r="1" gradientUnits="userSpaceOnUse" gradientTransform="translate(1876.87 709.598) rotate(135) scale(14.6262)">
<stop stop-color="#D8E1FF"/>
<stop offset="1" stop-color="#A39DD5" stop-opacity="0.8"/>
</radialGradient>
<radialGradient id="paint22_radial_3634_63" cx="0" cy="0" r="1" gradientUnits="userSpaceOnUse" gradientTransform="translate(151.782 448.566) rotate(135) scale(9.8396)">
<stop stop-color="#FFD8F1"/>
<stop offset="1" stop-color="#C496B3" stop-opacity="0.8"/>
</radialGradient>
<radialGradient id="paint23_radial_3634_63" cx="0" cy="0" r="1" gradientUnits="userSpaceOnUse" gradientTransform="translate(151.782 448.566) rotate(135) scale(9.8396)">
<stop stop-color="#D8E1FF"/>
<stop offset="1" stop-color="#A39DD5" stop-opacity="0.8"/>
</radialGradient>
<radialGradient id="paint24_radial_3634_63" cx="0" cy="0" r="1" gradientUnits="userSpaceOnUse" gradientTransform="translate(2391.87 1301.6) rotate(135) scale(14.6262)">
<stop stop-color="#FFD8F1"/>
<stop offset="1" stop-color="#C496B3" stop-opacity="0.8"/>
</radialGradient>
<radialGradient id="paint25_radial_3634_63" cx="0" cy="0" r="1" gradientUnits="userSpaceOnUse" gradientTransform="translate(2391.87 1301.6) rotate(135) scale(14.6262)">
<stop stop-color="#D8E1FF"/>
<stop offset="1" stop-color="#A39DD5" stop-opacity="0.8"/>
</radialGradient>
<radialGradient id="paint26_radial_3634_63" cx="0" cy="0" r="1" gradientUnits="userSpaceOnUse" gradientTransform="translate(99.8695 687.598) rotate(135) scale(14.6262)">
<stop stop-color="#FFD8F1"/>
<stop offset="1" stop-color="#C496B3" stop-opacity="0.8"/>
</radialGradient>
<radialGradient id="paint27_radial_3634_63" cx="0" cy="0" r="1" gradientUnits="userSpaceOnUse" gradientTransform="translate(2313.79 1096.57) rotate(135) scale(10.3711)">
<stop stop-color="#FFD8F1"/>
<stop offset="1" stop-color="#C496B3" stop-opacity="0.8"/>
</radialGradient>
<radialGradient id="paint28_radial_3634_63" cx="0" cy="0" r="1" gradientUnits="userSpaceOnUse" gradientTransform="translate(756.868 1533.6) rotate(135) scale(14.6262)">
<stop stop-color="#FFD8F1"/>
<stop offset="1" stop-color="#C496B3" stop-opacity="0.8"/>
</radialGradient>
<radialGradient id="paint29_radial_3634_63" cx="0" cy="0" r="1" gradientUnits="userSpaceOnUse" gradientTransform="translate(756.868 1533.6) rotate(135) scale(14.6262)">
<stop stop-color="#D8E1FF"/>
<stop offset="1" stop-color="#A39DD5" stop-opacity="0.8"/>
</radialGradient>
<radialGradient id="paint30_radial_3634_63" cx="0" cy="0" r="1" gradientUnits="userSpaceOnUse" gradientTransform="translate(678.789 1328.57) rotate(135) scale(10.3711)">
<stop stop-color="#FFD8F1"/>
<stop offset="1" stop-color="#C496B3" stop-opacity="0.8"/>
</radialGradient>
<radialGradient id="paint31_radial_3634_63" cx="0" cy="0" r="1" gradientUnits="userSpaceOnUse" gradientTransform="translate(1146.52 1064.33) rotate(135) scale(7.14962)">
<stop stop-color="#FFD8F1"/>
<stop offset="1" stop-color="#C496B3" stop-opacity="0.8"/>
</radialGradient>
<radialGradient id="paint32_radial_3634_63" cx="0" cy="0" r="1" gradientUnits="userSpaceOnUse" gradientTransform="translate(901.413 1037.12) rotate(135) scale(15.9647)">
<stop stop-color="#FFD8F1"/>
<stop offset="1" stop-color="#C496B3" stop-opacity="0.8"/>
</radialGradient>
<radialGradient id="paint33_radial_3634_63" cx="0" cy="0" r="1" gradientUnits="userSpaceOnUse" gradientTransform="translate(1030.79 1202.57) rotate(135) scale(10.3711)">
<stop stop-color="#FFD8F1"/>
<stop offset="1" stop-color="#C496B3" stop-opacity="0.8"/>
</radialGradient>
<radialGradient id="paint34_radial_3634_63" cx="0" cy="0" r="1" gradientUnits="userSpaceOnUse" gradientTransform="translate(2126.87 1414.6) rotate(135) scale(14.6262)">
<stop stop-color="#FFD8F1"/>
<stop offset="1" stop-color="#C496B3" stop-opacity="0.8"/>
</radialGradient>
<radialGradient id="paint35_radial_3634_63" cx="0" cy="0" r="1" gradientUnits="userSpaceOnUse" gradientTransform="translate(1608.52 931.331) rotate(135) scale(7.14962)">
<stop stop-color="#FFD8F1"/>
<stop offset="1" stop-color="#C496B3" stop-opacity="0.8"/>
</radialGradient>
<radialGradient id="paint36_radial_3634_63" cx="0" cy="0" r="1" gradientUnits="userSpaceOnUse" gradientTransform="translate(1363.41 904.124) rotate(135) scale(15.9647)">
<stop stop-color="#FFD8F1"/>
<stop offset="1" stop-color="#C496B3" stop-opacity="0.8"/>
</radialGradient>
<radialGradient id="paint37_radial_3634_63" cx="0" cy="0" r="1" gradientUnits="userSpaceOnUse" gradientTransform="translate(1570.87 1274.6) rotate(135) scale(14.6262)">
<stop stop-color="#FFD8F1"/>
<stop offset="1" stop-color="#C496B3" stop-opacity="0.8"/>
</radialGradient>
<radialGradient id="paint38_radial_3634_63" cx="0" cy="0" r="1" gradientUnits="userSpaceOnUse" gradientTransform="translate(1570.87 1274.6) rotate(135) scale(14.6262)">
<stop stop-color="#D8E1FF"/>
<stop offset="1" stop-color="#A39DD5" stop-opacity="0.8"/>
</radialGradient>
<radialGradient id="paint39_radial_3634_63" cx="0" cy="0" r="1" gradientUnits="userSpaceOnUse" gradientTransform="translate(1492.79 1069.57) rotate(135) scale(10.3711)">
<stop stop-color="#FFD8F1"/>
<stop offset="1" stop-color="#C496B3" stop-opacity="0.8"/>
</radialGradient>
<radialGradient id="paint40_radial_3634_63" cx="0" cy="0" r="1" gradientUnits="userSpaceOnUse" gradientTransform="translate(2033.87 537.598) rotate(135) scale(14.6262)">
<stop stop-color="#FFD8F1"/>
<stop offset="1" stop-color="#C496B3" stop-opacity="0.8"/>
</radialGradient>
<radialGradient id="paint41_radial_3634_63" cx="0" cy="0" r="1" gradientUnits="userSpaceOnUse" gradientTransform="translate(2033.87 537.598) rotate(135) scale(14.6262)">
<stop stop-color="#D8E1FF"/>
<stop offset="1" stop-color="#A39DD5" stop-opacity="0.8"/>
</radialGradient>
<radialGradient id="paint42_radial_3634_63" cx="0" cy="0" r="1" gradientUnits="userSpaceOnUse" gradientTransform="translate(1648.52 1435.33) rotate(135) scale(7.14962)">
<stop stop-color="#FFD8F1"/>
<stop offset="1" stop-color="#C496B3" stop-opacity="0.8"/>
</radialGradient>
<radialGradient id="paint43_radial_3634_63" cx="0" cy="0" r="1" gradientUnits="userSpaceOnUse" gradientTransform="translate(1431.87 1477.6) rotate(135) scale(14.6262)">
<stop stop-color="#FFD8F1"/>
<stop offset="1" stop-color="#C496B3" stop-opacity="0.8"/>
</radialGradient>
<radialGradient id="paint44_radial_3634_63" cx="0" cy="0" r="1" gradientUnits="userSpaceOnUse" gradientTransform="translate(1431.87 1477.6) rotate(135) scale(14.6262)">
<stop stop-color="#D8E1FF"/>
<stop offset="1" stop-color="#A39DD5" stop-opacity="0.8"/>
</radialGradient>
<radialGradient id="paint45_radial_3634_63" cx="0" cy="0" r="1" gradientUnits="userSpaceOnUse" gradientTransform="translate(1955.79 332.569) rotate(135) scale(10.3711)">
<stop stop-color="#FFD8F1"/>
<stop offset="1" stop-color="#C496B3" stop-opacity="0.8"/>
</radialGradient>
</defs>
</svg>
