<svg preserveAspectRatio="none" width="100%" height="100%" overflow="visible" style="display: block;" viewBox="0 0 1692.28 1044.41" fill="none" xmlns="http://www.w3.org/2000/svg">
<g id="Group 307">
<mask id="mask0_3634_34" style="mask-type:alpha" maskUnits="userSpaceOnUse" x="1" y="1" width="1691" height="1043">
<rect id="Rectangle 468" y="39.4316" width="1669" height="1005.26" rx="45" transform="rotate(-1.35379 0 39.4316)" fill="var(--fill-0, #608FE8)"/>
</mask>
<g mask="url(#mask0_3634_34)">
<path id="Vector 266" d="M1287.38 768.501C1494.14 672.693 1629.54 559.224 1720.13 397.274L1717.21 1110.49L-41.9018 1147.68L-47.3749 888.734L562.489 875.844C562.489 875.844 1038.91 883.641 1287.38 768.501Z" fill="var(--fill-0, #4567BD)"/>
<rect id="Rectangle 471" x="53.7949" y="43.9077" width="489" height="444" rx="5" transform="rotate(-1.21085 53.7949 43.9077)" fill="var(--fill-0, #214893)" fill-opacity="0.26"/>
<rect id="Rectangle 472" x="586.676" y="32.6443" width="489" height="444" rx="5" transform="rotate(-1.21085 586.676 32.6443)" fill="var(--fill-0, #214893)" fill-opacity="0.26"/>
<rect id="Rectangle 473" x="1119.56" y="21.3808" width="489" height="444" rx="5" transform="rotate(-1.21085 1119.56 21.3808)" fill="var(--fill-0, #214893)" fill-opacity="0.26"/>
<rect id="Rectangle 474" x="64.2129" y="536.797" width="489" height="444" rx="5" transform="rotate(-1.21085 64.2129 536.797)" fill="var(--fill-0, #214893)" fill-opacity="0.26"/>
<rect id="Rectangle 475" x="597.094" y="525.534" width="489" height="444" rx="5" transform="rotate(-1.21085 597.094 525.534)" fill="var(--fill-0, #214893)" fill-opacity="0.26"/>
<rect id="Rectangle 476" x="1129.98" y="514.271" width="489" height="444" rx="5" transform="rotate(-1.21085 1129.98 514.271)" fill="var(--fill-0, #214893)" fill-opacity="0.26"/>
</g>
</g>
</svg>
