<svg preserveAspectRatio="none" width="100%" height="100%" overflow="visible" style="display: block;" viewBox="0 0 839.889 485.332" fill="none" xmlns="http://www.w3.org/2000/svg">
<g id="Group 306">
<mask id="mask0_3634_15" style="mask-type:alpha" maskUnits="userSpaceOnUse" x="0" y="-1" width="840" height="487">
<path id="Vector 255" d="M414.355 -0.000187082C236.375 -0.000213036 4.53313e-05 35.6293 4.53313e-05 35.6293L7.0604 485.332L839.889 485.332L839.889 47.5646C839.889 47.5646 592.335 -0.000161129 414.355 -0.000187082Z" fill="var(--fill-0, #FFE2F0)"/>
</mask>
<g mask="url(#mask0_3634_15)">
<path id="Ellipse 141" opacity="0.3" d="M647.199 82.6599C647.199 114.538 631.307 140.38 591.541 140.38C551.775 140.38 506.286 121.734 506.286 89.8561C506.286 57.9784 551.775 24.9402 591.541 24.9402C631.307 24.9402 647.199 50.7822 647.199 82.6599Z" fill="url(#paint0_radial_3634_15)"/>
<path id="Ellipse 142" opacity="0.3" d="M73.609 162.521C71.9491 117.631 93.6702 79.0169 151.387 73.4515C209.104 67.8861 276.098 87.7763 277.758 132.666C279.417 177.555 246.936 226.181 189.219 231.746C131.502 237.312 75.2688 207.411 73.609 162.521Z" fill="url(#paint1_radial_3634_15)"/>
<g id="Ellipse 145" opacity="0.4">
<path d="M739.572 194.94C739.572 217.451 721.014 228.741 701.659 228.741C682.305 228.741 666.615 224.079 666.615 201.567C666.615 179.056 682.305 160.807 701.659 160.807C721.014 160.807 739.572 172.429 739.572 194.94Z" fill="var(--fill-0, #D9D9D9)"/>
<path d="M739.572 194.94C739.572 217.451 721.014 228.741 701.659 228.741C682.305 228.741 666.615 224.079 666.615 201.567C666.615 179.056 682.305 160.807 701.659 160.807C721.014 160.807 739.572 172.429 739.572 194.94Z" fill="url(#paint2_radial_3634_15)"/>
</g>
<g id="Ellipse 147" opacity="0.4">
<path d="M354.959 56.0026C355.743 74.4501 336.156 75.1113 321.32 76.7569C306.485 78.4025 294.004 69.0581 293.22 50.6106C292.435 32.1631 304.443 30.3971 319.278 28.7515C334.114 27.1059 354.174 37.5551 354.959 56.0026Z" fill="var(--fill-0, #D9D9D9)"/>
<path d="M354.959 56.0026C355.743 74.4501 336.156 75.1113 321.32 76.7569C306.485 78.4025 294.004 69.0581 293.22 50.6106C292.435 32.1631 304.443 30.3971 319.278 28.7515C334.114 27.1059 354.174 37.5551 354.959 56.0026Z" fill="url(#paint3_radial_3634_15)"/>
</g>
</g>
<mask id="mask1_3634_15" style="mask-type:alpha" maskUnits="userSpaceOnUse" x="506" y="24" width="142" height="117">
<g id="Ellipse 146" opacity="0.4">
<path d="M647.199 82.6599C647.199 114.538 631.307 140.38 591.541 140.38C551.775 140.38 506.286 121.734 506.286 89.8561C506.286 57.9784 551.775 24.9402 591.541 24.9402C631.307 24.9402 647.199 50.7822 647.199 82.6599Z" fill="url(#paint4_radial_3634_15)"/>
<path d="M647.199 82.6599C647.199 114.538 631.307 140.38 591.541 140.38C551.775 140.38 506.286 121.734 506.286 89.8561C506.286 57.9784 551.775 24.9402 591.541 24.9402C631.307 24.9402 647.199 50.7822 647.199 82.6599Z" fill="url(#paint5_radial_3634_15)"/>
</g>
</mask>
<g mask="url(#mask1_3634_15)">
<g id="Vector 256" opacity="0.2">
<path d="M547.766 98.8121C532.835 115.191 518.642 156.769 518.642 156.769L487.164 112.826L505.698 -10.214L644.993 -22.0905L666.027 103.8C666.027 103.8 649.256 73.0218 630.578 69.8335C602.47 65.0356 571.146 73.1647 547.766 98.8121Z" fill="var(--fill-0, #D9D9D9)"/>
<path d="M547.766 98.8121C532.835 115.191 518.642 156.769 518.642 156.769L487.164 112.826L505.698 -10.214L644.993 -22.0905L666.027 103.8C666.027 103.8 649.256 73.0218 630.578 69.8335C602.47 65.0356 571.146 73.1647 547.766 98.8121Z" fill="var(--fill-1, #87678F)"/>
</g>
</g>
<mask id="mask2_3634_15" style="mask-type:alpha" maskUnits="userSpaceOnUse" x="73" y="72" width="205" height="161">
<path id="Ellipse 143" opacity="0.3" d="M73.609 162.521C71.9491 117.631 93.6702 79.0169 151.387 73.4515C209.104 67.8861 276.098 87.7763 277.758 132.666C279.417 177.555 246.936 226.181 189.219 231.746C131.502 237.312 75.2688 207.411 73.609 162.521Z" fill="url(#paint6_radial_3634_15)"/>
</mask>
<g mask="url(#mask2_3634_15)">
<g id="Vector 257" opacity="0.5">
<path d="M101.44 183.721C86.9364 207.838 77.7813 245.276 77.7813 245.276L51.8022 102.216L84.2175 62.5355L209.51 21.6551L286.4 59.222L294.329 166.508C294.329 166.508 249.76 115.943 203.219 115.943C160.225 115.943 126.088 142.736 101.44 183.721Z" fill="var(--fill-0, #D9D9D9)"/>
<path d="M101.44 183.721C86.9364 207.838 77.7813 245.276 77.7813 245.276L51.8022 102.216L84.2175 62.5355L209.51 21.6551L286.4 59.222L294.329 166.508C294.329 166.508 249.76 115.943 203.219 115.943C160.225 115.943 126.088 142.736 101.44 183.721Z" fill="var(--fill-1, #87678F)"/>
</g>
</g>
</g>
<defs>
<radialGradient id="paint0_radial_3634_15" cx="0" cy="0" r="1" gradientTransform="matrix(-53.8352 -78.1472 90.1255 -66.0025 609.544 112.826)" gradientUnits="userSpaceOnUse">
<stop stop-color="#F3D9E5"/>
<stop offset="0.555767" stop-color="#C7AAC1"/>
<stop offset="1" stop-color="#C3A4AF"/>
</radialGradient>
<radialGradient id="paint1_radial_3634_15" cx="0" cy="0" r="1" gradientTransform="matrix(-72.3687 -107.601 126.711 -82.5675 210.193 196.97)" gradientUnits="userSpaceOnUse">
<stop stop-color="#F3D9E5"/>
<stop offset="0.555767" stop-color="#C7AAC1"/>
<stop offset="1" stop-color="#C3A4AF"/>
</radialGradient>
<radialGradient id="paint2_radial_3634_15" cx="0" cy="0" r="1" gradientTransform="matrix(-50.1579 -57.7197 63.5853 -77.0956 721.627 218.527)" gradientUnits="userSpaceOnUse">
<stop stop-color="#F3D9E5"/>
<stop offset="0.555767" stop-color="#C7AAC1"/>
<stop offset="1" stop-color="#C3A4AF"/>
</radialGradient>
<radialGradient id="paint3_radial_3634_15" cx="0" cy="0" r="1" gradientTransform="matrix(-40.4589 -43.0354 46.0518 -68.5847 335.978 59.8312)" gradientUnits="userSpaceOnUse">
<stop stop-color="#F3D9E5"/>
<stop offset="0.555767" stop-color="#C7AAC1"/>
<stop offset="1" stop-color="#C3A4AF"/>
</radialGradient>
<radialGradient id="paint4_radial_3634_15" cx="0" cy="0" r="1" gradientTransform="matrix(-28.1237 -55.3209 67.5284 -35.5892 594.191 106.048)" gradientUnits="userSpaceOnUse">
<stop stop-color="#F3D9E5"/>
<stop offset="1" stop-color="#D0BCC4"/>
</radialGradient>
<radialGradient id="paint5_radial_3634_15" cx="0" cy="0" r="1" gradientTransform="matrix(-96.8777 -98.0831 122.812 -131.009 612.539 123.023)" gradientUnits="userSpaceOnUse">
<stop stop-color="#F3D9E5"/>
<stop offset="0.555767" stop-color="#C7AAC1"/>
<stop offset="1" stop-color="#C3A4AF"/>
</radialGradient>
<radialGradient id="paint6_radial_3634_15" cx="0" cy="0" r="1" gradientTransform="matrix(-72.3687 -107.601 126.711 -82.5675 210.193 196.97)" gradientUnits="userSpaceOnUse">
<stop stop-color="#F3D9E5"/>
<stop offset="0.555767" stop-color="#C7AAC1"/>
<stop offset="1" stop-color="#C3A4AF"/>
</radialGradient>
</defs>
</svg>
