<svg preserveAspectRatio="none" width="100%" height="100%" overflow="visible" style="display: block;" viewBox="0 0 1573.77 2514.52" fill="none" xmlns="http://www.w3.org/2000/svg">
<g id="Group 308">
<rect id="Rectangle 466" x="1015.13" y="1619.02" width="220" height="65.8204" transform="rotate(-0.271453 1015.13 1619.02)" fill="var(--fill-0, #43438B)"/>
<rect id="Rectangle 465" x="1002.31" y="897.518" width="213.033" height="65.8204" transform="rotate(-0.271453 1002.31 897.518)" fill="var(--fill-0, #423B83)"/>
<rect id="Rectangle 477" x="1008.31" y="898.277" width="160.259" height="65.8204" transform="rotate(-0.271453 1008.31 898.277)" fill="var(--fill-0, #6869A2)"/>
<rect id="Rectangle 478" x="1031.31" y="1619.52" width="161.17" height="65.8204" transform="rotate(-0.271453 1031.31 1619.52)" fill="var(--fill-0, #5E5FAD)"/>
<rect id="Rectangle 479" width="593.866" height="1568.54" transform="matrix(0.999989 -0.00471591 0.0231483 0.999732 486.8 474.601)" fill="var(--fill-0, #D6C3E3)"/>
<g id="Rectangle 463" opacity="0.2" filter="url(#filter0_f_5012_688)">
<rect width="593.866" height="1568.54" transform="matrix(0.999989 -0.00471591 0.0231483 0.999732 471.8 474.601)" fill="var(--fill-0, #E0D8F0)"/>
</g>
<mask id="mask0_5012_688" style="mask-type:alpha" maskUnits="userSpaceOnUse" x="433" y="471" width="631" height="1572">
<rect id="Rectangle 479_2" width="593.866" height="1568.54" transform="matrix(0.999989 -0.00471591 0.0231483 0.999732 433.38 474.149)" fill="var(--fill-0, #D2C4E2)"/>
</mask>
<g mask="url(#mask0_5012_688)">
<rect id="Rectangle 464" width="593.866" height="1568.54" transform="matrix(0.999989 -0.00471591 0.0231483 0.999732 433.38 474.149)" fill="var(--fill-0, #8F84A7)"/>
<path id="Vector 273" d="M902.988 1537.28L787.296 1540.19C770.733 1540.61 757.645 1554.38 758.063 1570.94L758.286 1579.8C758.704 1596.36 772.47 1609.45 789.034 1609.03L904.725 1606.11C921.288 1605.69 934.377 1591.93 933.959 1575.36L933.735 1566.51C933.317 1549.95 919.551 1536.86 902.988 1537.28Z" fill="var(--fill-0, #716791)"/>
<path id="Vector 275" d="M872.403 1538.05L515.925 1547.04C499.362 1547.46 486.274 1561.23 486.692 1577.79L486.915 1586.65C487.333 1603.21 501.099 1616.3 517.662 1615.88L874.14 1606.88C890.703 1606.46 903.792 1592.7 903.374 1576.14L903.15 1567.28C902.732 1550.72 888.966 1537.63 872.403 1538.05Z" fill="var(--fill-0, #554B73)"/>
<path id="Vector 278" opacity="0.2" d="M946.306 1322.52C1040.04 1244.4 1120.31 1063.02 1120.31 1063.02L1139.31 2030.52H564.306V1450.52C564.306 1450.52 825.444 1423.24 946.306 1322.52Z" fill="var(--fill-0, #4C3F79)"/>
<g id="Group 311">
<path id="Vector 273_2" d="M887.988 994.275L772.296 997.195C755.733 997.613 742.645 1011.38 743.063 1027.94L743.286 1036.8C743.704 1053.36 757.47 1066.45 774.034 1066.03L889.725 1063.11C906.288 1062.69 919.377 1048.93 918.959 1032.36L918.735 1023.51C918.317 1006.95 904.551 993.857 887.988 994.275Z" fill="var(--fill-0, #716791)"/>
<path id="Vector 275_2" d="M857.402 995.047L573.526 1002.21C556.963 1002.63 543.874 1016.4 544.292 1032.96L544.516 1041.81C544.934 1058.38 558.7 1071.47 575.263 1071.05L859.139 1063.88C875.703 1063.46 888.791 1049.7 888.373 1033.14L888.15 1024.28C887.732 1007.72 873.966 994.629 857.402 995.047Z" fill="var(--fill-0, #554B73)"/>
</g>
<g id="Group 312">
<path id="Vector 276" d="M867.988 517.275L752.296 520.195C735.733 520.613 722.645 534.379 723.063 550.942L723.286 559.797C723.704 576.36 737.47 589.448 754.034 589.03L869.725 586.111C886.288 585.693 899.377 571.927 898.959 555.363L898.735 546.509C898.317 529.945 884.551 516.857 867.988 517.275Z" fill="var(--fill-0, #716791)"/>
<path id="Vector 277" d="M837.403 518.047L566.941 524.873C550.378 525.291 537.289 539.057 537.707 555.62L537.931 564.475C538.349 581.038 552.115 594.126 568.678 593.708L839.14 586.883C855.703 586.465 868.792 572.699 868.374 556.135L868.15 547.28C867.732 530.717 853.966 517.629 837.403 518.047Z" fill="var(--fill-0, #554B73)"/>
</g>
</g>
</g>
<defs>
<filter id="filter0_f_5012_688" x="0" y="1.40071e-05" width="1573.77" height="2514.52" filterUnits="userSpaceOnUse" color-interpolation-filters="sRGB">
<feFlood flood-opacity="0" result="BackgroundImageFix"/>
<feBlend mode="normal" in="SourceGraphic" in2="BackgroundImageFix" result="shape"/>
<feGaussianBlur stdDeviation="235.9" result="effect1_foregroundBlur_5012_688"/>
</filter>
</defs>
</svg>
